<?xml version="1.0" encoding="utf-8"?>
<!-- Generator: Adobe Illustrator 22.0.1, SVG Export Plug-In . SVG Version: 6.00 Build 0)  -->
<svg version="1.1" id="Layer_1" xmlns="http://www.w3.org/2000/svg" xmlns:xlink="http://www.w3.org/1999/xlink" x="0px" y="0px"
	 viewBox="0 0 470 660" style="enable-background:new 0 0 470 660;" xml:space="preserve">
<style type="text/css">
	.st0{fill:url(#SVGID_1_);}
	.st1{fill:url(#SVGID_2_);}
	.st2{fill:#221D51;}
	.st3{fill:#DA6CA0;}
	.st4{fill:url(#SVGID_3_);}
	.st5{fill:url(#SVGID_4_);}
	.st6{fill:url(#SVGID_5_);}
	.st7{fill:url(#SVGID_6_);}
	.st8{fill:url(#SVGID_7_);}
	.st9{fill:url(#SVGID_8_);}
	.st10{fill:#FF8B00;}
	.st11{fill:url(#SVGID_9_);}
	.st12{fill:url(#SVGID_10_);}
	.st13{fill:url(#SVGID_11_);}
	.st14{fill:#FFFFFF;}
	.st15{fill:url(#SVGID_12_);}
	.st16{fill:url(#SVGID_13_);}
	.st17{fill:url(#SVGID_14_);}
	.st18{fill:#007D90;}
	.st19{fill:#7CDBE8;}
	.st20{fill:#00BFB3;}
	.st21{fill:#FFC056;}
	.st22{fill:#00DD8C;}
	.st23{fill:#00B853;}
	.st24{fill:#008158;}
	.st25{fill:#00AA99;}
	.st26{fill:#008993;}
	.st27{fill:url(#SVGID_15_);}
	.st28{fill:url(#SVGID_16_);}
	.st29{fill:#FFDABD;}
	.st30{fill:#FECDA4;}
	.st31{fill:#5DADB3;}
	.st32{fill:#F7C6A1;}
	.st33{fill:#DEDDD7;}
	.st34{fill:#473E35;}
	.st35{fill:url(#SVGID_17_);}
	.st36{fill:url(#SVGID_18_);}
	.st37{fill:url(#SVGID_19_);}
	.st38{fill:url(#SVGID_20_);}
	.st39{fill:url(#SVGID_21_);}
	.st40{fill:url(#SVGID_22_);}
	.st41{fill:url(#SVGID_23_);}
	.st42{fill:#7E0058;}
	.st43{fill:url(#SVGID_24_);}
	.st44{fill:url(#SVGID_25_);}
	.st45{fill:url(#SVGID_26_);}
	.st46{fill:#8EC3C7;}
	.st47{fill:url(#SVGID_27_);}
	.st48{fill:none;stroke:#06092A;stroke-width:0.5;stroke-miterlimit:10;}
	.st49{fill:url(#SVGID_28_);}
	.st50{fill:url(#SVGID_29_);}
	.st51{fill:url(#SVGID_30_);}
	.st52{fill:url(#SVGID_31_);}
	.st53{opacity:0.6;fill:#473E35;enable-background:new    ;}
</style>
<g id="Layer_2_1_">
	
		<radialGradient id="SVGID_1_" cx="235" cy="38" r="167.3036" gradientTransform="matrix(1 0 0 -1 0 660)" gradientUnits="userSpaceOnUse">
		<stop  offset="4.048583e-03" style="stop-color:#A19F96"/>
		<stop  offset="1" style="stop-color:#C5C2B7"/>
	</radialGradient>
	<ellipse class="st0" cx="235" cy="622" rx="234" ry="35"/>
</g>
<g id="Layer_1_1_">
	
		<linearGradient id="SVGID_2_" gradientUnits="userSpaceOnUse" x1="115.5898" y1="538.7811" x2="277.8354" y2="538.7811" gradientTransform="matrix(1 0 0 -1 0 660)">
		<stop  offset="0" style="stop-color:#211B45"/>
		<stop  offset="1" style="stop-color:#4C358F"/>
	</linearGradient>
	<path class="st1" d="M230.3,51.9c0,0,9.6-31.4,33.2-18.7c23.7,12.7,9.1,63.7,5,102.4c-2.4,22.4,3,37.6,8,46.4
		c3.1,5.6,0.6,12.6-5.4,14.9c-23,9.1-73.9,24.8-116.4,7.8c-56.9-22.8-38.7-98.3-25.5-127.5C142.4,48.3,213,26,230.3,51.9z"/>
	<path class="st2" d="M230.4,56.1c0,0,7.3-14.9,16.7-11.8c9.4,3,12.4,23.1,7.3,38.5L230.4,56.1z"/>
	<g>
		<path class="st3" d="M233.8,109.4c0.2,0.2-0.8,1.7-3.6,1.5c-1.3-0.1-3-0.7-4.4-2.1c-1.4-1.5-2.3-3.6-2.4-6
			c-0.3-4.7,1.8-9.8,4.7-14.5s35.3-52.7,35.3-52.7l5.8,3.4c0,0-12.8,17.4-27.2,37.6c-6.9,10.2-14.8,18.9-15,26.1
			c-0.2,3.5,1.8,5.7,3.6,6.3C232.4,109.6,233.6,109,233.8,109.4z"/>
	</g>
	<g>
		
			<linearGradient id="SVGID_3_" gradientUnits="userSpaceOnUse" x1="22.4" y1="267.4518" x2="299.9" y2="267.4518" gradientTransform="matrix(1 0 0 -1 0 660)">
			<stop  offset="0" style="stop-color:#003025"/>
			<stop  offset="1" style="stop-color:#005742"/>
		</linearGradient>
		<path class="st4" d="M299.9,369.4c0,0-30.8-9.5-71.2-7.8c-128.9,27.4-206.3,61-206.3,61l105.4,1.1L299.9,369.4z"/>
		
			<linearGradient id="SVGID_4_" gradientUnits="userSpaceOnUse" x1="127.8" y1="153.25" x2="313.2624" y2="153.25" gradientTransform="matrix(1 0 0 -1 0 660)">
			<stop  offset="0" style="stop-color:#006B53"/>
			<stop  offset="1" style="stop-color:#008A6A"/>
		</linearGradient>
		<path class="st5" d="M299.9,369.4c14,21.3,16.7,145.3,9.5,190.6c-65,48.2-178.8,84.1-178.8,84.1l-2.8-220.3L299.9,369.4z"/>
		<g>
			
				<linearGradient id="SVGID_5_" gradientUnits="userSpaceOnUse" x1="127.8" y1="174.45" x2="313.3167" y2="174.45" gradientTransform="matrix(1 0 0 -1 0 660)">
				<stop  offset="0" style="stop-color:#003025"/>
				<stop  offset="1" style="stop-color:#005742"/>
			</linearGradient>
			<path class="st6" d="M299.9,369.4l-172.1,54.4l0.9,67.5c0.3-0.5,0.5-1.1,0.8-1.6c6.8-13.4,16.5-25.4,28.2-34.9
				c10.4-8.5,23.3-15.2,36.7-14.3c14.6,1,27.4,11.2,35,23.7s10.6,27.2,12.5,41.7c2.5,18.4,3.4,37.1,2,55.7
				c-1,13.5-3.2,26.9-6.5,40.1c25.5-12.1,51.3-26.3,72.2-41.8C316.6,514.7,313.9,390.7,299.9,369.4z"/>
		</g>
		
			<linearGradient id="SVGID_6_" gradientUnits="userSpaceOnUse" x1="19.3888" y1="126.7" x2="130.6" y2="126.7" gradientTransform="matrix(1 0 0 -1 0 660)">
			<stop  offset="0" style="stop-color:#006B53"/>
			<stop  offset="1" style="stop-color:#008A6A"/>
		</linearGradient>
		<path class="st7" d="M22.4,422.6l105.4,1.1l2.8,220.3c0,0-84.6-5-98.6-10.6C11.2,561.1,22.4,422.6,22.4,422.6z"/>
		<g>
			
				<linearGradient id="SVGID_7_" gradientUnits="userSpaceOnUse" x1="32.5468" y1="176.6364" x2="128.7" y2="176.6364" gradientTransform="matrix(1 0 0 -1 0 660)">
				<stop  offset="0" style="stop-color:#003025"/>
				<stop  offset="1" style="stop-color:#005742"/>
			</linearGradient>
			<path class="st8" d="M42,422.8c-4.8,14.1-6.9,29.6-8.3,44.5c-1.3,13.9-2.2,28.1,1.3,41.7c3.4,13.5,11.9,26.5,24.7,32.1
				c19.7,8.5,43.5-3.2,55.1-21.3c5.7-8.9,9.2-19,13.9-28.5l-0.9-67.5L42,422.8z"/>
		</g>
		
			<linearGradient id="SVGID_8_" gradientUnits="userSpaceOnUse" x1="21.4714" y1="38.6726" x2="60.4537" y2="38.6726" gradientTransform="matrix(1 0 0 -1 0 660)">
			<stop  offset="0" style="stop-color:#FFC056"/>
			<stop  offset="1" style="stop-color:#E0981F"/>
		</linearGradient>
		<path class="st9" d="M39.5,622.8c-8.7-9.9-14.9-23.3-16.8-22.3c-2.3,1.2-1.5,26.5,3.5,34.6c0.6,1,1.3,2,2.3,2.7
			c0.9,0.6,2.1,1,3.2,1.3c9.2,2.6,27.7,4.9,28.7,1.1C61.4,636.5,48.2,632.7,39.5,622.8z"/>
		<path class="st10" d="M304.5,550.2c5-8.3,6.3-19.1,7.7-18.3c1.7,0.9,3.8,20.7,2,29.1c-0.2,1-0.5,2-1,2.9c-0.5,0.7-1.1,1.2-1.8,1.7
			c-5.4,3.6-16.9,8-18.2,4.5C291.8,566.4,298.6,559.8,304.5,550.2z"/>
		
			<linearGradient id="SVGID_9_" gradientUnits="userSpaceOnUse" x1="106.2953" y1="33.5621" x2="154.2022" y2="33.5621" gradientTransform="matrix(1 0 0 -1 0 660)">
			<stop  offset="0" style="stop-color:#FFD896"/>
			<stop  offset="1" style="stop-color:#F5A622"/>
		</linearGradient>
		<path class="st11" d="M131.7,603.2c-5.8,0.5-5.1,20.3-14.2,29.7s-10.9,6.6-11.2,9.9c-0.3,3.3,13.9,8.1,24.3,6.6
			s23.8-8.9,23.6-14.4S137.7,602.7,131.7,603.2z"/>
		<g>
			
				<linearGradient id="SVGID_10_" gradientUnits="userSpaceOnUse" x1="106.2969" y1="33.25" x2="133.788" y2="33.25" gradientTransform="matrix(1 0 0 -1 0 660)">
				<stop  offset="0" style="stop-color:#FFC056"/>
				<stop  offset="1" style="stop-color:#F5A622"/>
			</linearGradient>
			<path class="st12" d="M130.2,603.9c-4.3,3.5-4.5,20.5-12.7,29c-9.1,9.4-10.9,6.6-11.2,9.9c-0.2,2.7,9.3,6.4,18.5,6.8
				c3.8-4,6.6-9.2,7.9-14.6C135.1,624.7,133.2,614,130.2,603.9z"/>
		</g>
		<g>
			
				<linearGradient id="SVGID_11_" gradientUnits="userSpaceOnUse" x1="16.4375" y1="224.2517" x2="41.9012" y2="224.2517" gradientTransform="matrix(1 0 0 -1 0 660)">
				<stop  offset="0" style="stop-color:#FFD896"/>
				<stop  offset="1" style="stop-color:#F5A622"/>
			</linearGradient>
			<path class="st13" d="M41.1,419.9c-0.8-1.4,0.5-3.1,0.8-4.7c-7.1-1.9-23.7,4.9-24.6,7.5s-1.8,32.9,2.3,33.9s10-25.9,20.8-32.8
				c0.7-0.5,1.5-1,1.6-1.8C42,421.3,41.5,420.6,41.1,419.9z"/>
		</g>
		<g>
			<g>
				<path class="st14" d="M18.9,460.3c0.1,0,0.1-0.1,0-0.1C18.8,460.2,18.8,460.3,18.9,460.3L18.9,460.3z"/>
			</g>
		</g>
		<g>
			
				<linearGradient id="SVGID_12_" gradientUnits="userSpaceOnUse" x1="16.4409" y1="220.5533" x2="39.9714" y2="220.5533" gradientTransform="matrix(1 0 0 -1 0 660)">
				<stop  offset="0" style="stop-color:#FFC056"/>
				<stop  offset="1" style="stop-color:#E0981F"/>
			</linearGradient>
			<path class="st15" d="M20.9,426.2c-1.6,1.1-3,2.4-4.3,3.9c-0.4,9.8,0,25.9,2.9,26.6c4,1,9.9-25.4,20.5-32.6
				c-2.1-1-4.3-1.7-6.7-1.9C28.9,421.9,24.5,423.6,20.9,426.2z"/>
		</g>
		
			<linearGradient id="SVGID_13_" gradientUnits="userSpaceOnUse" x1="102.2556" y1="225.4216" x2="153.972" y2="225.4216" gradientTransform="matrix(1 0 0 -1 0 660)">
			<stop  offset="0" style="stop-color:#FFC056"/>
			<stop  offset="1" style="stop-color:#F5A622"/>
		</linearGradient>
		<path class="st16" d="M102.4,422.2c-2.2,2.7,21.4,31.8,26,32.9c4.5,1.1,26.5-36.3,25.6-40.1C153,411.3,104.9,419.2,102.4,422.2z"
			/>
		<g>
			
				<linearGradient id="SVGID_14_" gradientUnits="userSpaceOnUse" x1="102.4" y1="220.7161" x2="133.3897" y2="220.7161" gradientTransform="matrix(1 0 0 -1 0 660)">
				<stop  offset="0" style="stop-color:#FFC056"/>
				<stop  offset="1" style="stop-color:#E0981F"/>
			</linearGradient>
			<path class="st17" d="M133.3,440.6c-0.5-5.3-2.8-10.6-7.1-13.6c-3.4-2.3-7.5-3-11.6-3.3c-4-0.4-8.1-0.4-12.2-0.3
				c1.5,6,21.8,30.7,26,31.8c0.8,0.2,2.3-0.9,4.1-2.9C133.1,448.4,133.6,444.5,133.3,440.6z"/>
		</g>
		<g>
			
				<ellipse transform="matrix(0.8834 -0.4686 0.4686 0.8834 -240.9066 148.5152)" class="st18" cx="178" cy="558.4" rx="21.9" ry="28.1"/>
			
				<ellipse transform="matrix(0.8834 -0.4686 0.4686 0.8834 -240.9038 148.5168)" class="st19" cx="178" cy="558.4" rx="15.7" ry="21.5"/>
			<g>
				<path class="st20" d="M195.1,563.6c0,6.1-2.4,11.4-7.1,13.8c-6.7,3.5-15.6,0-21.5-7.8c-0.9-1.2-1.7-2.5-2.5-3.9
					c-1.5-2.8-2.5-5.7-3-8.5c2.4-0.8,4.8-1.5,7.3-2.1c5.7-1.3,11.6-1.9,17.4-2h2c1.7,0,3.5,0.1,5.2,0.3
					C194.4,556.9,195.1,560.3,195.1,563.6z"/>
			</g>
			<g>
				<path class="st21" d="M185.8,553.2c-5.8,0.1-11.7,0.7-17.4,2c-0.1-2.5,0.1-5,1.6-6.9c2.7-3.5,8.4-3.4,11.8-0.7
					C183.7,549,185,551,185.8,553.2z"/>
			</g>
			<g>
				<path class="st14" d="M255.1,522c1.2-1.3,2.4-2.6,3.7-3.9c-0.4-0.9-0.9-1.8-1.3-2.7l0,0c0.5-2.1,1-4.2,1.5-6.3
					c-1.6-0.4-3.1-0.8-4.7-1.1c0,0,0,0,0,0.1c-0.4-0.9-0.7-1.8-1.1-2.7c-1.4,1-2.9,1.9-4.3,2.9c-0.8-1.5-1.6-3-2.4-4.6
					c-1.5,1-2.9,2-4.3,3.1c-0.8-1.5-1.6-3.1-2.4-4.6c-1.5,1-2.9,2.1-4.4,3.2c-0.8-1.6-1.6-3.1-2.4-4.7c-1.5,1.1-2.9,2.2-4.4,3.3
					c-0.8-1.6-1.6-3.2-2.4-4.8c-0.8,0.7-1.6,1.5-2.4,2.3c0-0.1,0-0.1,0.1-0.2c-1.6-0.3-3.2-0.7-4.8-1c-0.6,2.4-1.1,4.8-1.7,7.1
					c0.1,0,0.1,0,0.2,0c-0.8,0.8-1.6,1.6-2.4,2.4c0.6,1.9,1.1,3.7,1.7,5.6c-1.3,1.6-2.5,3.1-3.8,4.7c0.6,1.9,1.3,3.7,1.9,5.5
					c-1.2,1.6-2.4,3.2-3.6,4.8c0.7,1.8,1.4,3.6,2.1,5.4c-1.2,1.6-2.3,3.3-3.4,4.9c0.7,1.8,1.5,3.6,2.3,5.3c-1.1,1.6-2.2,3.3-3.3,5
					c0.5,0.9,1,1.7,1.5,2.6l0,0c-0.2,2.4-0.3,4.8-0.4,7.2c1.6,0,3.2,0.1,4.8,0.1c0,0,0,0,0-0.1c0.6,0.9,1.2,1.8,1.7,2.7
					c1.2-1.3,2.4-2.7,3.7-4c1.1,1.4,2.2,2.8,3.3,4.1c1.2-1.3,2.4-2.6,3.7-3.9c1.1,1.4,2.2,2.7,3.3,4.1c1.2-1.3,2.4-2.5,3.7-3.8
					c1.1,1.3,2.2,2.7,3.3,4c1.2-1.2,2.4-2.5,3.7-3.7c1.1,1.3,2.2,2.6,3.3,3.9c0.6-0.8,1.3-1.6,1.9-2.3c1.6,0.1,3.1,0.2,4.7,0.2
					c0.1-2.1,0.2-4.1,0.4-6.2c0.7-0.7,1.3-1.5,2-2.2c-0.8-1.6-1.6-3.2-2.4-4.8c1.1-1.4,2.2-2.8,3.3-4.2c-0.8-1.6-1.5-3.2-2.2-4.9
					c1.1-1.4,2.3-2.8,3.4-4.1c-0.7-1.6-1.4-3.3-2.1-4.9c1.2-1.4,2.4-2.7,3.6-4C256.4,525.3,255.7,523.6,255.1,522z"/>
				<path class="st21" d="M246.8,555.9c-10.5-0.7-21-1.3-31.5-1.7c1.1-15.4,3.4-30.8,6.7-46c10.3,1.9,20.7,4,30.9,6.2
					C249.9,528.1,247.8,542,246.8,555.9z"/>
				<path class="st22" d="M241.2,553.3c-0.2-4.6-1.3-9.1-2.8-13.1c-2.1-5.4-5.1-10.3-9.2-12.7c-3.2-1.9-6.8-2.3-10.5-2.1
					c-1.6,9.5-2.7,19.1-3.4,28.7c8.7,0.4,17.3,0.8,25.9,1.4C241.2,554.8,241.3,554.1,241.2,553.3z"/>
				<path class="st23" d="M248.4,540c-0.8-0.3-1.7-0.7-2.6-0.9c-7.7-2.2-16.1-1.4-23.8,3.1c-2.1,1.2-4.2,2.8-6.2,4.5
					c-0.2,2.5-0.5,5-0.6,7.5c10.5,0.4,21,1,31.5,1.7C247.2,550.6,247.7,545.3,248.4,540z"/>
			</g>
			<path class="st22" d="M155.4,453.9c-1.6,14.1-4.7,44-3.6,44.1c0.7,0.1,24.4-19.2,37.3-26.1C178.5,465.6,166.4,459.5,155.4,453.9z
				"/>
			<path class="st24" d="M180.9,471.7c-1.7,0.9-3.8,2.3-6,3.7c-8,5.4-17.4,13-17.8,13c-0.5,0,0.3-8.8,1.1-17.2c0.4-4,0.8-8,1.2-10.9
				C166.4,463.8,174.1,467.7,180.9,471.7z"/>
			<path class="st20" d="M174.9,475.5c-8,5.4-17.4,13-17.8,13c-0.5,0,0.3-8.8,1.1-17.2c1.2-0.6,2.4-1,3.8-1.2
				C167.2,469.2,172.1,471.5,174.9,475.5z"/>
			<g>
				<path class="st25" d="M166.5,569.6c5.3-2.5,11.2-4.1,17-5.1c3.8-0.7,7.8-1.1,11.6-0.9c0,6.1-2.4,11.4-7.1,13.8
					C181.4,580.9,172.4,577.5,166.5,569.6z"/>
			</g>
		</g>
	</g>
	<path class="st26" d="M293,534c-20.1-0.7-33.4,3.3-34.7,7.1c-1.2,3.8,59.9,4.1,62.4-1.8C323.1,533.4,293,534,293,534z"/>
	
		<linearGradient id="SVGID_15_" gradientUnits="userSpaceOnUse" x1="17.3101" y1="377.9843" x2="177.9128" y2="377.9843" gradientTransform="matrix(1 0 0 -1 0 660)">
		<stop  offset="0" style="stop-color:#8C1B69"/>
		<stop  offset="0.2109" style="stop-color:#972674"/>
		<stop  offset="0.5853" style="stop-color:#B34491"/>
		<stop  offset="1" style="stop-color:#D96DB8"/>
	</linearGradient>
	<path class="st27" d="M159.2,188.5c-28.2-10.9-85.1-14.1-115.6,46S1.3,355.6,51.8,374.7s102.9-3.2,120.6-32.3
		C190.2,313.2,159.2,188.5,159.2,188.5z"/>
	
		<linearGradient id="SVGID_16_" gradientUnits="userSpaceOnUse" x1="46.3395" y1="365.8382" x2="166.102" y2="365.8382" gradientTransform="matrix(1 0 0 -1 0 660)">
		<stop  offset="0" style="stop-color:#7E0058"/>
		<stop  offset="1" style="stop-color:#B80080"/>
	</linearGradient>
	<path class="st28" d="M149.7,209.1c0,0-39.2-25.9-71,31.4c-31.9,57.4-45.8,123-15.6,139.6s88-11.6,99.8-38.1
		C174.8,315.6,149.7,209.1,149.7,209.1z"/>
	<path class="st29" d="M177.5,48.7c23.4-11.5,61-1.8,72.8,18.7s22.8,91-0.9,114.3c-23.7,23.2-57.4-3.6-73.3,33.2
		c-10.6-0.3-20.9-1.3-27.3-11.4l7.3-26.9c0,0-14.6-9.1-18.2-20c0,0-20,2.7-21.9-24.1C114.2,105.6,150.6,61.9,177.5,48.7z"/>
	<g>
		<path class="st30" d="M178.3,175.1c4.5-8.8,17.7-12.4,18.8-22.2c0.7-5.9-3.5-11.2-8-15.1c-4.5-3.9-9.7-7.3-12.4-12.5
			c-4.4-8.6-0.6-19.2,5.2-26.9c9.6-12.7,24-20.9,38.7-27c5.5-2.3,11.5-4.6,14.5-9.8c1.3-2.3,1.8-4.9,1.7-7.5
			c-16.7-10.6-41.9-13.8-59.3-5.2c-26.9,13.2-63.3,56.9-61.5,83.8s21.9,24.1,21.9,24.1c3.6,10.9,18.2,20,18.2,20l-7.3,26.9
			c3.9,6.2,9.4,9,15.5,10.3c5.9-7.8,9.9-17,11.3-26.6C176.2,183,176.4,178.7,178.3,175.1z"/>
	</g>
	<path class="st30" d="M184.6,249.1c0,0,4.7,20.9,34.8,40.3c0,0,31.6-16.2,46.6-39.9c0,0,0.8-34,28.4-42.7s-2,20.5-2,20.5l-7.1,37.5
		c0,0-30.8,43.4-65.6,64.8c0,0-47.4-24.9-62.4-59.2L184.6,249.1z"/>
	<path class="st31" d="M163.8,335.1c0,0,119.2-46.9,135-44.9c0,0-34.4,55.7-42.3,66s-88.5-4.3-88.5-4.3L163.8,335.1z"/>
	<polygon class="st32" points="349.7,478.9 373.4,522.8 392.8,510.9 371,464.3 	"/>
	<path class="st33" d="M422.7,503.3c-2.3,2.2-4.8,4.4-7.4,6.7c-0.2,0.2-0.5,0.4-0.7,0.6c-1.2,1-2.3,1.9-3.4,2.8
		c-2.6,2.1-5,4-7.2,5.8c-27.9,21.7-31.7,16.7-31.7,16.7l-1.6-17.4c0,0,15-5.9,19.3-15c0,0,54.1-52.9,63.6-54.5
		C462.2,447.5,451.1,476.2,422.7,503.3z"/>
	<g>
		<path class="st34" d="M411.2,512.4c0,0.3,0,0.7,0,0.9c-2.6,2.1-5,4-7.2,5.8c-0.2-2.1-0.3-4.4-0.3-6.8c0.1-9.2,1.9-16.7,3.9-16.8
			C409.6,495.5,411.3,503,411.2,512.4z"/>
	</g>
	<g>
		<path class="st34" d="M422.7,503.3c-2.3,2.2-4.8,4.4-7.4,6.7v-2c0.1-10.5,1.9-19.1,4-19.1C421,488.8,422.4,494.9,422.7,503.3z"/>
	</g>
	
		<linearGradient id="SVGID_17_" gradientUnits="userSpaceOnUse" x1="58.1048" y1="214.9232" x2="342.9616" y2="214.9232" gradientTransform="matrix(1 0 0 -1 0 660)">
		<stop  offset="0" style="stop-color:#5DADB3"/>
		<stop  offset="1" style="stop-color:#458085"/>
	</linearGradient>
	<path class="st35" d="M60.9,338.3c0,0-21.9,56.9,56.9,74.7c78.8,17.8,163.9-34.6,163.9-34.6L266.2,549l37.3,4.1
		c0,0,43.2-191.7,39.2-209c-4.1-17.3-174.8,2.7-174.8,2.7S101.9,357.8,60.9,338.3z"/>
	<g>
		<g>
			
				<linearGradient id="SVGID_18_" gradientUnits="userSpaceOnUse" x1="58.2048" y1="282.7134" x2="275.5" y2="282.7134" gradientTransform="matrix(1 0 0 -1 0 660)">
				<stop  offset="0" style="stop-color:#41797D"/>
				<stop  offset="1" style="stop-color:#458085"/>
			</linearGradient>
			<path class="st36" d="M235.8,374.4c-10.6,3.1-20.1,9.2-29.9,14.2c-22.8,11.7-48.5,17.9-74.1,17.8c-17.7,0-37.1-3.9-48.2-17.8
				c-2.7-3.4-4.8-7.3-6.5-11.3c-4.8-11.1-7-23.3-6.6-35.3c-3.3-1.1-6.5-2.4-9.5-3.9c0,0-21.9,56.9,56.9,74.7
				c66.1,14.9,136.6-19.6,157.6-31C267,369.1,245.7,371.6,235.8,374.4z"/>
		</g>
	</g>
	<path class="st26" d="M346.9,435.9c-19,13.4-28.4,26.5-26.9,30.8c1.6,4.3,58.1-38.3,56.1-45.4C374.2,414.2,346.9,435.9,346.9,435.9
		z"/>
	<polygon class="st32" points="267.6,565.9 262.2,615.5 284.7,618 293.4,567.4 	"/>
	<path class="st33" d="M314,628.9c-2.2,0.1-4.5,0.2-6.8,0.3c-0.9,0-1.9,0.1-2.7,0.1c-1.8,0.1-3.6,0.1-5.3,0.2
		c-3.4,0.1-6.6,0.1-9.5,0.1c-32.7,0-33.5-1.3-33.5-1.3l6.4-17.8c0,0,15.5,4.5,24.5,0c0,0,81.5-3.1,86.5,5.1
		C379.7,625.4,354.8,627.2,314,628.9z"/>
	<g>
		<path class="st34" d="M299.2,629.4c-3.4,0.1-6.6,0.1-9.5,0.1c0.9-1.2,1.8-2.5,2.8-3.8c5.7-7.2,11.7-12.1,13.3-10.8
			C307.5,616.1,304.5,622.5,299.2,629.4z"/>
	</g>
	<g>
		<path class="st34" d="M314,628.9c-2.2,0.1-4.5,0.2-6.8,0.3c-0.9,0-1.9,0.1-2.7,0.1c6.5-8.1,13.1-13.7,14.7-12.5
			C320.5,617.8,318.3,622.7,314,628.9z"/>
	</g>
	
		<linearGradient id="SVGID_19_" gradientUnits="userSpaceOnUse" x1="281.6887" y1="460.3773" x2="344.55" y2="460.3773" gradientTransform="matrix(1 0 0 -1 0 660)">
		<stop  offset="0" style="stop-color:#70542B"/>
		<stop  offset="0.3634" style="stop-color:#654C26"/>
		<stop  offset="1" style="stop-color:#473619"/>
	</linearGradient>
	<path class="st37" d="M299.4,165.2L282,226.7c-1.3,4.6,1.6,9.3,6.3,10.2l23,4.5c4,0.8,7.9-1.5,9.2-5.3l23.6-67.6
		c0.6-1.8,0.6-3.7,0-5.5l0,0c-1.2-3.4-4.5-5.5-8.1-5.3l-29.2,1.6C303.3,159.5,300.3,161.8,299.4,165.2z"/>
	
		<linearGradient id="SVGID_20_" gradientUnits="userSpaceOnUse" x1="290.8021" y1="467.3479" x2="332.4897" y2="467.3479" gradientTransform="matrix(1 0 0 -1 0 660)">
		<stop  offset="0" style="stop-color:#0078AA"/>
		<stop  offset="0.2728" style="stop-color:#0B8DB5"/>
		<stop  offset="0.7374" style="stop-color:#1CABC6"/>
		<stop  offset="1" style="stop-color:#22B6CC"/>
	</linearGradient>
	<path class="st38" d="M329,163l-19.3,0.9c-1.4,0.1-2.6,1-3,2.3L291,216.6c-0.6,2,0.8,4.1,2.9,4.3l18.3,1.4c1.5,0.1,2.9-0.8,3.4-2.3
		l16.7-52.6C333,165.1,331.3,162.9,329,163z"/>
	
		<linearGradient id="SVGID_21_" gradientUnits="userSpaceOnUse" x1="53.8049" y1="379.9834" x2="196.3492" y2="379.9834" gradientTransform="matrix(1 0 0 -1 0 660)">
		<stop  offset="0" style="stop-color:#009674"/>
		<stop  offset="0.2927" style="stop-color:#00A17D"/>
		<stop  offset="0.8106" style="stop-color:#00BF94"/>
		<stop  offset="1" style="stop-color:#00CC9E"/>
	</linearGradient>
	<path class="st39" d="M176.1,214.9c0,0,13.6,39.7,19.6,52.6C200.5,277.8,178,282,178,282l-7.6,30l3.3,36l-5.2,1.2
		C154.4,360.1,79.9,361,54,335.5c0,0,9.9-118.9,95-131.9C148.8,203.5,162.4,215.3,176.1,214.9z"/>
	<g>
		
			<linearGradient id="SVGID_22_" gradientUnits="userSpaceOnUse" x1="53.7" y1="380.0574" x2="160.1303" y2="380.0574" gradientTransform="matrix(1 0 0 -1 0 660)">
			<stop  offset="0" style="stop-color:#006B53"/>
			<stop  offset="1" style="stop-color:#008A6A"/>
		</linearGradient>
		<path class="st40" d="M111.9,340.8c0.2-1.6,1.1-2.9,2.3-3.9c2.7-2.2,6.1-2.3,9.4-2.6c14-0.9,17.8-2.9,28.6-6.1
			c3.4-1,5.6-4.2,5.3-7.7l0,0c-0.2-1.9-1.1-3.7-2.5-4.9c-4.2-3.6-8.9-12.6-9.2-17.8c-0.3-5.7,4.1-10.4,7.3-15.1
			c10.1-15.1,8.4-54.4,0.7-75.5c-3.1-2.1-5.1-3.7-5.1-3.7c-85.1,13.1-95,131.9-95,131.9c17,16.7,54.6,22.1,82.6,20.8
			c-7.2-2-14.2-5-20.5-9.1C113.8,345.6,111.5,343.8,111.9,340.8z"/>
	</g>
	
		<linearGradient id="SVGID_23_" gradientUnits="userSpaceOnUse" x1="42.2" y1="400.8702" x2="151.1628" y2="400.8702" gradientTransform="matrix(1 0 0 -1 0 660)">
		<stop  offset="0" style="stop-color:#7E0058"/>
		<stop  offset="1" style="stop-color:#B80080"/>
	</linearGradient>
	<path class="st41" d="M141,196.2c0,0,26.4,50.1-5.9,98.8s-92.9,16.8-92.9,16.8l8.2-21.9c0,0,42.3,22.3,66-10s5.5-78.8,5.5-78.8
		L141,196.2z"/>
	<polygon class="st33" points="40.4,280.4 55.9,288.2 42.7,321 34.1,320 24.5,295.9 	"/>
	<path class="st42" d="M35.9,297.7c0,1.8-1.4,3.2-3.2,3.2s-3.2-1.4-3.2-3.2c0-1.8,1.4-3.2,3.2-3.2C34.4,294.5,35.9,296,35.9,297.7z"
		/>
	<g>
		<path class="st29" d="M98,276.9c0,0,5,5.8,7.9,8.4c62.1,55.1,137.5,55.1,137.5,55.1s44.5-53.2,49.9-82.8c0,0,31.4,2.3,32.9-4.1
			c1.4-5.5-3.2-6.8-3.2-6.8s7.3-5.5,6.8-10.9s-6.4-5.5-6.4-5.5s10.9-7.7,10.5-13.7c-0.5-5.9-32.8,5.5-32.8,5.5s10.5-11.8,10.9-18.2
			c0.5-6.4-24.1,4.1-31,20c-6.8,15.9-4.1,32.8-4.1,32.8s-23.7,33.2-46.4,50.1c0,0-52.8-2.3-102.9-56L98,276.9z"/>
	</g>
	
		<linearGradient id="SVGID_24_" gradientUnits="userSpaceOnUse" x1="81.8591" y1="411.5221" x2="141.1" y2="411.5221" gradientTransform="matrix(1 0 0 -1 0 660)">
		<stop  offset="0" style="stop-color:#009674"/>
		<stop  offset="0.2927" style="stop-color:#00A17D"/>
		<stop  offset="0.8106" style="stop-color:#00BF94"/>
		<stop  offset="1" style="stop-color:#00CC9E"/>
	</linearGradient>
	<path class="st43" d="M125.1,209c0,0-27.7-3.7-38.2,17.7s-3.2,45.5,9.1,61.5c0,0,29.6-15.5,45.1-33.7l-13.4-29.8L125.1,209z"/>
	<g>
		
			<linearGradient id="SVGID_25_" gradientUnits="userSpaceOnUse" x1="81.8591" y1="411.6222" x2="125.6" y2="411.6222" gradientTransform="matrix(1 0 0 -1 0 660)">
			<stop  offset="0" style="stop-color:#006B53"/>
			<stop  offset="1" style="stop-color:#008A6A"/>
		</linearGradient>
		<path class="st44" d="M108.1,264c-8.5-13.6-6.9-32.9,4.1-44.5c3.5-3.7,8.4-6.7,13.4-7.3l-0.5-3.3c0,0-27.7-3.7-38.2,17.7
			s-3.2,45.5,9.1,61.5c0,0,10.4-5.5,22.1-13.7C114.1,271.7,110.7,268.2,108.1,264z"/>
	</g>
	<g>
		
			<linearGradient id="SVGID_26_" gradientUnits="userSpaceOnUse" x1="51.334" y1="273.6851" x2="123.2638" y2="273.6851" gradientTransform="matrix(1 0 0 -1 0 660)">
			<stop  offset="0" style="stop-color:#D96DB8"/>
			<stop  offset="1" style="stop-color:#8C1B69"/>
		</linearGradient>
		<path class="st45" d="M114.2,355.8c0,0,6.1,40.6,9,39.9c2.3-2.7-58.3,21.1-58.3,21.1c-4.6,1.5-17.3-54.1-12.5-54.8
			C73.1,360,93.9,359.8,114.2,355.8z"/>
		<g>
			<path class="st33" d="M101.8,393.5c1-0.3,2,0.1,2.2,1.2c0,0.2,0.1,0.4,0.1,0.6c0.7-0.2,1.4-0.4,2.1-0.6c0.1,0.2,0.1,0.5,0.2,0.7
				c-1.9,0.6-3.8,1.2-5.7,1.8c-0.1-0.4-0.2-0.9-0.3-1.3C100.1,394.7,100.9,393.7,101.8,393.5z M101.9,394.2c-0.6,0.2-1,0.8-0.8,1.4
				c0,0.2,0.1,0.4,0.1,0.6c0.7-0.2,1.4-0.4,2.1-0.7c0-0.2-0.1-0.4-0.1-0.6C103.1,394.3,102.6,394,101.9,394.2z"/>
			<path class="st33" d="M103.7,389.4c0.2,0.7,0.3,1.5,0.5,2.2c0.4,0,0.9,0.1,1.3,0.1c0.1,0.3,0.1,0.5,0.2,0.8
				c-2.1-0.2-4.2-0.4-6.4-0.6v-0.1c1.8-1.4,3.5-2.7,5.3-4c0.1,0.3,0.1,0.5,0.2,0.8C104.4,388.9,104.1,389.1,103.7,389.4z M103,389.9
				c-0.7,0.5-1.4,1-2,1.5c0.8,0.1,1.6,0.1,2.4,0.2C103.3,391,103.1,390.5,103,389.9z"/>
			<path class="st33" d="M103.6,387.8c-0.2-0.1-0.4-0.2-0.7-0.4c0.4-0.4,0.6-0.9,0.5-1.4s-0.6-0.8-1-0.6c-1.4,0.4-0.4,2.7-2.3,3.2
				c-0.8,0.2-1.6-0.2-1.9-1.1c-0.2-0.7,0.1-1.3,0.5-1.7c0.2,0.1,0.4,0.2,0.6,0.3c-0.3,0.3-0.5,0.8-0.4,1.2c0.1,0.5,0.5,0.7,0.9,0.6
				c1.3-0.3,0.4-2.7,2.3-3.2c0.9-0.2,1.7,0.2,1.9,1.2C104.4,386.5,104.1,387.3,103.6,387.8z"/>
			<path class="st33" d="M102.7,383.9c-0.2-0.1-0.4-0.3-0.7-0.4c0.4-0.4,0.6-0.9,0.5-1.4s-0.6-0.8-1-0.7c-1.4,0.3-0.5,2.7-2.4,3.1
				c-0.8,0.2-1.7-0.3-1.9-1.2c-0.2-0.7,0.1-1.3,0.5-1.7c0.2,0.1,0.4,0.2,0.6,0.3c-0.3,0.3-0.5,0.8-0.4,1.2c0.1,0.5,0.5,0.7,0.9,0.6
				c1.3-0.3,0.4-2.7,2.4-3.1c0.9-0.2,1.7,0.2,2,1.2C103.5,382.7,103.2,383.4,102.7,383.9z"/>
			<path class="st33" d="M98,377.3c1-0.2,2,0.2,2.3,1.4c0,0.2,0.1,0.4,0.1,0.6c0.7-0.2,1.4-0.3,2.1-0.5c0.1,0.2,0.1,0.5,0.2,0.7
				c-2,0.4-3.9,0.9-5.9,1.3c-0.1-0.4-0.2-0.9-0.3-1.3C96.3,378.4,97.1,377.5,98,377.3z M98.2,378.1c-0.6,0.1-1,0.7-0.8,1.3
				c0,0.2,0.1,0.4,0.1,0.5c0.7-0.2,1.4-0.3,2.2-0.5c0-0.2-0.1-0.4-0.1-0.5C99.4,378.2,98.9,377.9,98.2,378.1z"/>
			<path class="st33" d="M99,376.6c-1.6,0.3-3.3-0.4-3.7-2.1c-0.4-1.6,0.8-3,2.5-3.3c1.6-0.3,3.3,0.5,3.6,2.1
				C101.8,374.9,100.6,376.2,99,376.6z M98,371.9c-1.2,0.2-2.1,1.2-1.8,2.4c0.3,1.2,1.5,1.8,2.7,1.5s2.1-1.2,1.8-2.4
				C100.4,372.3,99.2,371.7,98,371.9z"/>
			<path class="st33" d="M98,368.6c0,0.2,0.1,0.4,0.1,0.7c0.8-0.1,1.5-0.3,2.3-0.4c0.1,0.2,0.1,0.5,0.2,0.7c-2,0.4-3.9,0.7-5.9,1.1
				c-0.1-0.5-0.2-1-0.3-1.5c-0.2-1.1,0.5-1.9,1.5-2c0.8-0.1,1.5,0.2,1.9,0.8c0.7-0.6,1.4-1.1,2.1-1.7c0.1,0.3,0.1,0.5,0.2,0.8
				C99.3,367.6,98.6,368.1,98,368.6z M97.3,369.4c0-0.2-0.1-0.5-0.1-0.7c-0.1-0.6-0.7-0.9-1.3-0.8c-0.6,0.1-1,0.6-0.8,1.2
				c0,0.2,0.1,0.5,0.1,0.7C95.9,369.7,96.6,369.5,97.3,369.4z"/>
			<path class="st33" d="M93.9,363.5c0.1,0.4,0.2,0.9,0.3,1.3c1.7-0.2,3.4-0.5,5.1-0.8c0.1,0.2,0.1,0.5,0.2,0.7
				c-1.7,0.3-3.4,0.5-5.1,0.8c0.1,0.5,0.2,0.9,0.3,1.4c-0.3,0-0.5,0.1-0.8,0.1c-0.2-1.1-0.5-2.3-0.7-3.4
				C93.4,363.5,93.6,363.5,93.9,363.5z"/>
		</g>
		<g>
			<path class="st33" d="M112.2,393.2c-1.6,0.5-3.2-0.2-3.6-1.8c-0.1-0.5-0.1-0.9,0-1.3c0.3-0.1,0.6-0.2,0.9-0.2
				c-0.2,0.4-0.3,0.8-0.2,1.3c0.3,1.1,1.5,1.6,2.7,1.3c1.2-0.3,2-1.4,1.8-2.5c-0.1-0.5-0.4-0.8-0.7-1.1c0.3-0.1,0.6-0.2,0.9-0.2
				c0.3,0.3,0.5,0.6,0.6,1.1C114.9,391.4,113.8,392.8,112.2,393.2z"/>
			<path class="st33" d="M111.2,388.9c-1.6,0.4-3.2-0.2-3.6-1.8c-0.4-1.6,0.8-3,2.4-3.4s3.2,0.3,3.6,1.8
				C114,387.1,112.8,388.5,111.2,388.9z M110.2,384.4c-1.2,0.3-2,1.3-1.8,2.5c0.3,1.1,1.5,1.6,2.6,1.3c1.2-0.3,2.1-1.3,1.8-2.5
				C112.6,384.6,111.4,384.1,110.2,384.4z"/>
			<path class="st33" d="M110.8,382.6c-1.3,0.3-2.6,0.6-3.9,0.9c-0.1-0.2-0.1-0.5-0.2-0.7c1.3-0.3,2.5-0.6,3.8-0.9
				c0.9-0.2,1.3-0.8,1.1-1.4c-0.1-0.6-0.7-0.9-1.6-0.7c-1.3,0.3-2.5,0.6-3.8,0.9c-0.1-0.2-0.1-0.5-0.2-0.7c1.3-0.3,2.6-0.6,3.9-0.9
				c1.2-0.3,2.2,0.2,2.4,1.3C112.7,381.5,112,382.3,110.8,382.6z"/>
			<path class="st33" d="M104.9,374.8c2-0.4,4-0.8,6-1.3v0.1c-1.1,1.4-2.2,2.8-3.4,4.2c1.3-0.3,2.7-0.6,4-0.9
				c0.1,0.2,0.1,0.4,0.2,0.7c-2,0.4-4,0.9-5.9,1.4v-0.1c1.1-1.4,2.3-2.9,3.4-4.3c-1.4,0.3-2.7,0.6-4.1,0.9
				C105,375.3,105,375.1,104.9,374.8z"/>
			<path class="st33" d="M104.8,370.7c0.1,0.4,0.2,0.8,0.3,1.3c1.7-0.3,3.4-0.7,5.1-1c0.1,0.2,0.1,0.5,0.2,0.7
				c-1.7,0.4-3.4,0.7-5.1,1.1c0.1,0.4,0.2,0.9,0.3,1.3c-0.3,0.1-0.5,0.1-0.8,0.2c-0.2-1.1-0.5-2.2-0.7-3.2
				C104.3,370.8,104.6,370.8,104.8,370.7z"/>
			<path class="st33" d="M107.2,368.2c0,0.2,0.1,0.4,0.1,0.6c0.8-0.1,1.5-0.3,2.3-0.4c0.1,0.2,0.1,0.5,0.2,0.7
				c-2,0.4-3.9,0.8-5.9,1.2c-0.1-0.5-0.2-0.9-0.3-1.4c-0.2-1,0.5-1.8,1.4-2c0.8-0.1,1.5,0.1,1.9,0.7c0.7-0.6,1.4-1.1,2.1-1.7
				c0.1,0.3,0.1,0.5,0.2,0.8C108.6,367.1,107.9,367.7,107.2,368.2z M106.6,369c0-0.2-0.1-0.4-0.1-0.7c-0.1-0.6-0.6-0.9-1.3-0.8
				c-0.6,0.1-0.9,0.6-0.8,1.2c0,0.2,0.1,0.4,0.1,0.7C105.2,369.2,105.9,369.1,106.6,369z"/>
			<path class="st33" d="M106.5,363.9c0.7-0.1,1.4-0.3,2.1-0.4c0.1,0.2,0.1,0.5,0.2,0.7c-0.7,0.1-1.4,0.3-2.1,0.4
				c-1.1,0.8-2.3,1.6-3.4,2.4c-0.1-0.3-0.1-0.5-0.2-0.8c0.9-0.6,1.8-1.2,2.7-1.8c-1.1-0.3-2.2-0.5-3.3-0.8c-0.1-0.3-0.1-0.5-0.2-0.8
				C103.7,363.2,105.1,363.6,106.5,363.9z"/>
		</g>
		<path class="st33" d="M66.9,387.6c1.6,7,8.6,11,15,8.9s10.4-8.5,9-14.4s-7.7-10-14.4-9.1C69.9,373.9,65.3,380.5,66.9,387.6z
			 M76.9,374.7c0.3,0,1,0.8,1.8,2.3c-0.4,0-0.8,0.1-1.3,0.1c-0.4,0.1-0.8,0.2-1.3,0.3C76.2,375.7,76.6,374.8,76.9,374.7
			C76.8,374.7,76.9,374.7,76.9,374.7z M89.2,382.4L89.2,382.4c0,0.3-0.7,0.9-2.2,1.7c-0.1-0.4-0.1-0.8-0.2-1.2
			c-0.1-0.4-0.2-0.8-0.3-1.2C88.1,381.9,89.1,382.2,89.2,382.4z M85.1,383.4c0.1,0.5,0.2,1,0.3,1.6c-0.6,0.3-1.3,0.5-2.1,0.8
			c-0.1-0.7-0.2-1.3-0.4-1.9c-0.1-0.6-0.3-1.2-0.5-1.8c0.8-0.1,1.6-0.2,2.3-0.2C84.8,382.4,85,382.9,85.1,383.4z M81.1,384.3
			c0.2,0.7,0.3,1.4,0.4,2c-0.6,0.2-1.3,0.4-2.1,0.6c-0.7,0.2-1.4,0.3-2.1,0.4c-0.2-0.6-0.4-1.3-0.5-2c-0.2-0.7-0.3-1.4-0.4-2.1
			c0.7-0.2,1.3-0.3,2.1-0.5c0.7-0.2,1.4-0.3,2.1-0.4C80.8,382.9,81,383.6,81.1,384.3z M81.4,394.8L81.4,394.8c-0.3,0-1-0.7-1.9-2.1
			c0.4-0.1,0.8-0.1,1.3-0.3c0.4-0.1,0.8-0.3,1.2-0.4C82,393.7,81.7,394.7,81.4,394.8z M80.4,390.7c-0.6,0.1-1.1,0.2-1.7,0.3
			c-0.3-0.6-0.5-1.3-0.8-2.1c0.7-0.1,1.4-0.3,1.9-0.4c0.6-0.1,1.2-0.3,1.9-0.5c0.1,0.8,0.2,1.5,0.2,2.2
			C81.5,390.4,81,390.6,80.4,390.7z M68.6,387.2L68.6,387.2c0-0.3,0.7-1.1,2.3-1.9c0.1,0.4,0.1,0.9,0.2,1.3s0.3,0.8,0.4,1.3
			C69.7,387.8,68.8,387.5,68.6,387.2z M72.9,386.2c-0.1-0.6-0.2-1.1-0.3-1.7c0.6-0.3,1.4-0.5,2.2-0.8c0.1,0.7,0.2,1.4,0.4,1.9
			c0.1,0.6,0.3,1.2,0.5,1.9c-0.8,0.1-1.6,0.2-2.3,0.2C73.2,387.3,73,386.8,72.9,386.2z M76.2,381.5c-0.1-0.8-0.1-1.6-0.2-2.2
			c0.5-0.2,1.1-0.3,1.6-0.4c0.6-0.1,1.1-0.2,1.7-0.2c0.3,0.6,0.5,1.3,0.8,2.1c-0.7,0.1-1.4,0.2-2,0.3
			C77.6,381.2,76.9,381.3,76.2,381.5z M74.3,378c-0.4,0.1-0.8,0.3-1.1,0.4c0.3-0.9,0.8-1.6,1.3-2.3C74.4,376.7,74.3,377.3,74.3,378z
			 M74.3,379.9c0,0.7,0.1,1.4,0.2,2.1c-0.7,0.2-1.3,0.4-2,0.7c0-0.7,0-1.3,0.1-1.9C73.2,380.4,73.7,380.1,74.3,379.9z M70.7,383.4
			c-0.6,0.3-1.1,0.6-1.6,0.9c0.4-0.7,0.9-1.5,1.6-2.1C70.7,382.5,70.7,383,70.7,383.4z M70.3,389.6c0.6,0.1,1.2,0.1,1.9,0.1
			c0.2,0.4,0.3,0.8,0.5,1.1C71.7,390.5,70.9,390.1,70.3,389.6z M74.1,389.5c0.7-0.1,1.4-0.2,2.1-0.3c0.2,0.7,0.5,1.3,0.7,2
			c-0.7,0-1.3,0-1.9,0C74.7,390.7,74.4,390.1,74.1,389.5z M77.7,393c0.3,0.6,0.6,1.1,0.9,1.6c-0.7-0.3-1.5-0.8-2.1-1.5
			C76.9,393,77.3,393,77.7,393z M83.8,391.3c0.4-0.2,0.7-0.3,1.1-0.5c-0.3,0.9-0.7,1.7-1.2,2.3C83.7,392.5,83.8,391.9,83.8,391.3z
			 M83.7,389.4c-0.1-0.7-0.1-1.3-0.2-2c0.7-0.2,1.3-0.5,2-0.7c0,0.6,0,1.2-0.1,1.8C84.8,388.8,84.3,389.2,83.7,389.4z M87.2,385.9
			c0.6-0.3,1.1-0.6,1.6-0.9c-0.4,0.7-0.9,1.4-1.6,2C87.2,386.7,87.2,386.3,87.2,385.9z M87.7,380.3c-0.6-0.1-1.2-0.1-1.8-0.1
			c-0.1-0.4-0.3-0.7-0.5-1C86.3,379.5,87,379.9,87.7,380.3z M84,380.3c-0.7,0-1.4,0.1-2.1,0.2c-0.2-0.6-0.4-1.3-0.7-1.9
			c0.7,0,1.3,0.1,1.9,0.1C83.4,379.2,83.7,379.7,84,380.3z M80.5,376.9c-0.3-0.6-0.5-1.1-0.8-1.6c0.7,0.4,1.4,0.9,2.1,1.6
			C81.3,376.9,80.9,376.9,80.5,376.9z M71.7,377.2c-0.3,0.7-0.6,1.5-0.7,2.4c-0.7,0.5-1.4,1-1.9,1.6
			C69.6,379.7,70.5,378.3,71.7,377.2z M71.6,392.3c0.8,0.3,1.6,0.5,2.4,0.6c0.5,0.7,1.1,1.3,1.7,1.8
			C74.2,394.3,72.7,393.5,71.6,392.3z M86.3,391.8c0.3-0.7,0.5-1.5,0.6-2.3c0.7-0.5,1.3-1.1,1.8-1.6
			C88.3,389.2,87.4,390.6,86.3,391.8z M86.5,377.8c-0.7-0.3-1.5-0.5-2.4-0.7c-0.5-0.7-1-1.3-1.6-1.8
			C84.1,375.9,85.4,376.7,86.5,377.8z"/>
		<path class="st33" d="M58.6,366.2c1.3-0.1,2.5,0.9,2.7,2.3s-0.7,2.7-2,2.8c-1.3,0.2-2.5-0.9-2.7-2.3
			C56.4,367.6,57.3,366.3,58.6,366.2z"/>
	</g>
	<g>
		<path class="st46" d="M121.8,404.7c-3.4-22.1-17.8-42.1-37.6-52.4l43.6,3.5l5.6,41.4L121.8,404.7z"/>
	</g>
	
		<linearGradient id="SVGID_27_" gradientUnits="userSpaceOnUse" x1="58.8549" y1="553.1801" x2="239.0316" y2="553.1801" gradientTransform="matrix(1 0 0 -1 0 660)">
		<stop  offset="0" style="stop-color:#6446BD"/>
		<stop  offset="1" style="stop-color:#231C47"/>
	</linearGradient>
	<path class="st47" d="M144.8,116.5c3.6,2.2,8.3,0.4,9.3-3.7c4.6-17.8,15.4-49.1,36-54.6c29.1-7.7,41.4,3.2,48.3-10.5
		c6.8-13.7-42.2-66.6-104.1-33.8c-60.9,32.3-99.9,109-57.9,173.5c1.2,1.9,3.5,3,5.7,2.8c5.3-0.5,44,15.1,59,19.8
		c5.5,1.7,10.2-4.4,7.1-9.2c-12.1-19-26-50.6-12.4-81.4c1.5-3.4,5.6-4.8,8.8-2.9C144.7,116.4,144.8,116.5,144.8,116.5z"/>
	<g>
		<g>
			<path class="st48" d="M142.6,187.2"/>
		</g>
	</g>
	<g>
		<g>
			<path class="st48" d="M156.7,75"/>
		</g>
	</g>
	
		<linearGradient id="SVGID_28_" gradientUnits="userSpaceOnUse" x1="266.4" y1="281.35" x2="373.8" y2="281.35" gradientTransform="matrix(1 0 0 -1 0 660)">
		<stop  offset="0" style="stop-color:#5DADB3"/>
		<stop  offset="1" style="stop-color:#458085"/>
	</linearGradient>
	<path class="st49" d="M298.8,290.2c7.5,0.8,75,149.3,75,149.3l-35.5,27.6c0,0-61.2-79.8-71.9-128.4L298.8,290.2z"/>
	
		<linearGradient id="SVGID_29_" gradientUnits="userSpaceOnUse" x1="320.1" y1="200.6" x2="393.9825" y2="200.6" gradientTransform="matrix(1 0 0 -1 0 660)">
		<stop  offset="0" style="stop-color:#70D1D9"/>
		<stop  offset="0.3534" style="stop-color:#60B4BA"/>
		<stop  offset="0.7664" style="stop-color:#51979C"/>
		<stop  offset="1" style="stop-color:#4B8C91"/>
	</linearGradient>
	<path class="st50" d="M342.6,497.5l-22.5-30.8c0,0,21.3-14.2,34.4-25.7c13-11.5,21.7-19.7,21.7-19.7s11.1,24.5,17,29.2
		C399.1,455.3,370.6,487.2,342.6,497.5z"/>
	
		<linearGradient id="SVGID_30_" gradientUnits="userSpaceOnUse" x1="257.3" y1="101.4979" x2="322.1" y2="101.4979" gradientTransform="matrix(1 0 0 -1 0 660)">
		<stop  offset="0" style="stop-color:#70D1D9"/>
		<stop  offset="0.3534" style="stop-color:#60B4BA"/>
		<stop  offset="0.7664" style="stop-color:#51979C"/>
		<stop  offset="1" style="stop-color:#4B8C91"/>
	</linearGradient>
	<path class="st51" d="M257.3,574.2l1-33.7c0,0,22.6,1.6,37.9,0.7c15.3-0.9,25.9-2,25.9-2s-5.5,23.1-4,29.6
		C319.7,575.3,282.5,582.2,257.3,574.2z"/>
	<g>
		<g>
			<g>
				<g>
					<path class="st26" d="M121.8,404.7c-0.3,0-0.8-3.7-2.7-9.4c-0.2-0.7-0.5-1.5-0.8-2.2c-0.3-0.8-0.6-1.6-0.9-2.4
						c-0.6-1.7-1.4-3.4-2.3-5.2c-1.8-3.5-3.9-7.3-6.6-11.1c-2.7-3.7-5.6-7-8.4-9.8c-1.4-1.4-2.8-2.7-4.2-3.8c-0.7-0.6-1.3-1.1-2-1.6
						s-1.3-1-1.9-1.4c-4.8-3.6-8.2-5.3-8-5.6c0-0.1,0.9,0.3,2.4,1.1c0.4,0.2,0.8,0.4,1.3,0.6s0.9,0.5,1.5,0.9c1,0.6,2.2,1.3,3.5,2.2
						c0.6,0.4,1.3,0.9,2,1.4s1.3,1.1,2,1.6c1.4,1.1,2.8,2.4,4.3,3.8c2.9,2.8,5.9,6.1,8.6,9.9s4.9,7.7,6.6,11.3
						c0.8,1.8,1.6,3.6,2.2,5.3c0.3,0.8,0.6,1.6,0.9,2.4c0.2,0.8,0.5,1.6,0.7,2.3c0.5,1.5,0.7,2.8,1,4c0.1,0.6,0.3,1.1,0.3,1.6
						c0.1,0.5,0.1,1,0.2,1.4C121.8,403.8,121.9,404.7,121.8,404.7z"/>
				</g>
			</g>
		</g>
	</g>
	<g>
		
			<linearGradient id="SVGID_31_" gradientUnits="userSpaceOnUse" x1="125.4715" y1="594.8658" x2="270.5909" y2="594.8658" gradientTransform="matrix(1 0 0 -1 0 660)">
			<stop  offset="0" style="stop-color:#DA6CA0"/>
			<stop  offset="1" style="stop-color:#A15076"/>
		</linearGradient>
		<path class="st52" d="M268.5,34.4l-41.6-1.9c0-0.5,0-1-0.1-1.7c-0.3-1.1-1.1-2.6-2.5-3.6c-1.5-1-3.3-1.4-5.1-1.2
			c-3.6,0.2-6.3,2.4-7.3,4.2c-0.1,0.1-0.2,0.3-0.2,0.4l-47-2.2c0,0,0.1,0.5,0.4,1.3c-3.9,5.7-32.1,47.7-34.9,52
			c-2.9,4.7-5,9.8-4.7,14.5c0.2,2.3,1,4.5,2.4,6c1.4,1.4,3,2,4.4,2.1c2.8,0.2,3.8-1.3,3.6-1.5c-0.2-0.3-1.4,0.3-3.2-0.4
			c-1.9-0.6-3.9-2.7-3.6-6.3c0.2-7.2,8.2-16,15-26.1c10.8-15.2,20.1-27.5,24-32.6c5.4,11.8,17.5,30.8,38.8,27.8
			c26.6-3.7,12.6-27.1,8.5-33.2c1.2-0.6,2.6-1.1,4.1-1.2c2.1-0.1,3.1,0.3,4.1,1.3c0.1,0.1,0.1,0.1,0.2,0.2
			c0.9,2.3,12.1,31.3,32.7,29.2C278,59.5,268.5,34.4,268.5,34.4z M218.4,55.2c-1.4,3.5-5.5,5.7-12,6.6c-1.3,0.2-2.6,0.3-3.9,0.3
			c-18.6,0-28.9-20.1-32.7-29.7l42.5,2C215.5,38.9,221,49,218.4,55.2z M265.2,53.4c-1.7,2.7-4.7,4.3-9.1,4.7
			c-0.6,0.1-1.2,0.1-1.8,0.1c-12.5,0-21.2-14.1-25-21.9l36.5,1.7C266.9,42,267.9,49,265.2,53.4z"/>
		<path class="st53" d="M254.3,58.2c0.6,0,1.2,0,1.8-0.1c4.4-0.5,7.4-2,9.1-4.7c2.7-4.4,1.7-11.4,0.6-15.4l-36.5-1.7
			C233.2,44.1,241.8,58.2,254.3,58.2z"/>
		<path class="st53" d="M202.5,62.1c1.3,0,2.6-0.1,3.9-0.3c6.6-0.9,10.6-3.1,12-6.6c2.6-6.2-2.9-16.3-6-20.9l-42.5-2
			C173.6,41.9,183.9,62.1,202.5,62.1z"/>
	</g>
</g>
</svg>
