<?xml version="1.0" encoding="utf-8"?>
<!-- Generator: Adobe Illustrator 22.0.1, SVG Export Plug-In . SVG Version: 6.00 Build 0)  -->
<svg version="1.1" xmlns="http://www.w3.org/2000/svg" xmlns:xlink="http://www.w3.org/1999/xlink" x="0px" y="0px"
	 viewBox="0 0 400 660" style="enable-background:new 0 0 400 660;" xml:space="preserve">
<style type="text/css">
	.st0{fill:url(#SVGID_1_);}
	.st1{clip-path:url(#SVGID_3_);fill:url(#SVGID_4_);}
	.st2{clip-path:url(#SVGID_6_);fill:#FFDABD;}
	.st3{clip-path:url(#SVGID_6_);fill:#FECDA4;}
	.st4{clip-path:url(#SVGID_6_);fill:#DEDDD7;}
	.st5{clip-path:url(#SVGID_6_);fill:#473E35;}
	.st6{clip-path:url(#SVGID_8_);fill:url(#SVGID_9_);}
	.st7{clip-path:url(#SVGID_11_);fill:url(#SVGID_12_);}
	.st8{clip-path:url(#SVGID_14_);fill:#FECDA4;}
	.st9{clip-path:url(#SVGID_16_);fill:url(#SVGID_17_);}
	.st10{clip-path:url(#SVGID_19_);fill:url(#SVGID_20_);}
	.st11{clip-path:url(#SVGID_22_);fill:url(#SVGID_23_);}
	.st12{clip-path:url(#SVGID_25_);fill:#473E35;}
	.st13{clip-path:url(#SVGID_25_);fill:#C0BDB1;}
	.st14{clip-path:url(#SVGID_27_);fill:url(#SVGID_28_);}
	.st15{clip-path:url(#SVGID_30_);fill:url(#SVGID_31_);}
	.st16{clip-path:url(#SVGID_33_);fill:url(#SVGID_34_);}
	.st17{clip-path:url(#SVGID_36_);fill:#C0BDB1;}
	.st18{clip-path:url(#SVGID_36_);fill:#473E35;}
	.st19{clip-path:url(#SVGID_38_);fill:url(#SVGID_39_);}
	.st20{clip-path:url(#SVGID_41_);fill:#FFFFFF;}
	.st21{clip-path:url(#SVGID_41_);fill:#0F2B45;}
	.st22{opacity:0.7;clip-path:url(#SVGID_41_);}
	.st23{clip-path:url(#SVGID_43_);fill:#0F2B45;}
	.st24{clip-path:url(#SVGID_43_);fill:#7F8282;}
	.st25{clip-path:url(#SVGID_45_);fill:#0F2B45;}
	.st26{clip-path:url(#SVGID_45_);fill:#7F8282;}
	.st27{clip-path:url(#SVGID_47_);fill:#0F2B45;}
	.st28{clip-path:url(#SVGID_47_);fill:#7F8282;}
	.st29{clip-path:url(#SVGID_49_);fill:#0F2B45;}
	.st30{clip-path:url(#SVGID_49_);fill:#7F8282;}
	.st31{clip-path:url(#SVGID_51_);fill:#0F2B45;}
	.st32{clip-path:url(#SVGID_51_);fill:#7F8282;}
	.st33{clip-path:url(#SVGID_53_);fill:#0F2B45;}
	.st34{clip-path:url(#SVGID_53_);fill:#7F8282;}
	.st35{clip-path:url(#SVGID_55_);fill:#0F2B45;}
	.st36{clip-path:url(#SVGID_55_);fill:#7F8282;}
	.st37{clip-path:url(#SVGID_57_);fill:#0F2B45;}
	.st38{clip-path:url(#SVGID_57_);fill:#7F8282;}
	.st39{clip-path:url(#SVGID_59_);fill:#0F2B45;}
	.st40{clip-path:url(#SVGID_59_);fill:#7F8282;}
	.st41{clip-path:url(#SVGID_61_);fill:#0F2B45;}
	.st42{clip-path:url(#SVGID_61_);fill:#7F8282;}
	.st43{clip-path:url(#SVGID_63_);fill:#0F2B45;}
	.st44{clip-path:url(#SVGID_63_);fill:#7F8282;}
	.st45{clip-path:url(#SVGID_65_);fill:#0F2B45;}
	.st46{clip-path:url(#SVGID_65_);fill:#7F8282;}
	.st47{clip-path:url(#SVGID_67_);fill:url(#SVGID_68_);}
	.st48{clip-path:url(#SVGID_70_);fill:#FFFFFF;}
	.st49{clip-path:url(#SVGID_70_);fill:#0F2B45;}
	.st50{opacity:0.7;clip-path:url(#SVGID_70_);}
	.st51{clip-path:url(#SVGID_72_);fill:#0F2B45;}
	.st52{clip-path:url(#SVGID_72_);fill:#7F8282;}
	.st53{clip-path:url(#SVGID_74_);fill:#0F2B45;}
	.st54{clip-path:url(#SVGID_74_);fill:#7F8282;}
	.st55{clip-path:url(#SVGID_76_);fill:#0F2B45;}
	.st56{clip-path:url(#SVGID_76_);fill:#7F8282;}
	.st57{clip-path:url(#SVGID_78_);fill:#0F2B45;}
	.st58{clip-path:url(#SVGID_78_);fill:#7F8282;}
	.st59{clip-path:url(#SVGID_80_);fill:#0F2B45;}
	.st60{clip-path:url(#SVGID_80_);fill:#7F8282;}
	.st61{clip-path:url(#SVGID_82_);fill:#0F2B45;}
	.st62{clip-path:url(#SVGID_82_);fill:#7F8282;}
	.st63{clip-path:url(#SVGID_84_);fill:#0F2B45;}
	.st64{clip-path:url(#SVGID_84_);fill:#7F8282;}
	.st65{clip-path:url(#SVGID_86_);fill:#0F2B45;}
	.st66{clip-path:url(#SVGID_86_);fill:#7F8282;}
	.st67{clip-path:url(#SVGID_88_);fill:#0F2B45;}
	.st68{clip-path:url(#SVGID_88_);fill:#7F8282;}
	.st69{clip-path:url(#SVGID_90_);fill:#0F2B45;}
	.st70{clip-path:url(#SVGID_90_);fill:#7F8282;}
	.st71{clip-path:url(#SVGID_92_);fill:#0F2B45;}
	.st72{clip-path:url(#SVGID_92_);fill:#7F8282;}
	.st73{clip-path:url(#SVGID_94_);fill:#0F2B45;}
	.st74{clip-path:url(#SVGID_94_);fill:#7F8282;}
	.st75{opacity:0.5;clip-path:url(#SVGID_70_);}
	.st76{clip-path:url(#SVGID_96_);fill:#0F2B45;}
	.st77{clip-path:url(#SVGID_70_);}
	.st78{clip-path:url(#SVGID_98_);fill:url(#SVGID_99_);}
	.st79{opacity:0.7;clip-path:url(#SVGID_98_);fill:#DEDDD7;}
	.st80{clip-path:url(#SVGID_70_);fill:#FECDA4;}
	.st81{fill:#FFDABD;}
</style>
<g id="Layer_2">
	<radialGradient id="SVGID_1_" cx="201.2036" cy="618.173" r="131.9433" gradientUnits="userSpaceOnUse">
		<stop  offset="0" style="stop-color:#A8A59C"/>
		<stop  offset="1" style="stop-color:#C5C2B7"/>
	</radialGradient>
	<ellipse class="st0" cx="201.2" cy="618.2" rx="183.2" ry="35.4"/>
</g>
<g id="Layer_1">
	<g>
		<g>
			<defs>
				<path id="SVGID_2_" d="M213,6.8c-10.4,7.1-17.3,18.2-24,28.9c-10.1,16.3-23.3,35.8-26.6,54.4c5.5,19.5,44.7,67.3,65,66.1
					c11.7-0.7,22.7-6,31.9-13.2c9.2-7.2,16.7-16.3,23.7-25.6c11.4-15,22.3-32.6,20.1-51.4c-0.2-1.7-0.5-3.5-1.6-4.8
					c-1.1-1.3-3.1-2-4.6-1.1c2.2-3.5,4.2-7.2,4.7-11.3c0.5-4.1-0.7-8.6-3.9-11.2c-3.2-2.6-8.6-2.5-11.1,0.7c2.7-4.9,4.1-11.2,1.3-16
					c-2.6-4.4-9.7-5.7-12.9-2.2c1.8-3.4-0.4-8.5-4.2-10c-4.2-1.7-9.3,0.2-12.4,3.6c1.4-3.4-1-7.6-4.5-8.9c-3.5-1.3-7.4-0.3-10.5,1.7
					c-3.1,2-5.4,5-7.7,7.9c2-4.9-2.4-10.7-7.6-11.8c-0.9-0.2-1.8-0.3-2.8-0.3C220.9,2.3,216.6,4.3,213,6.8"/>
			</defs>
			<clipPath id="SVGID_3_">
				<use xlink:href="#SVGID_2_"  style="overflow:visible;"/>
			</clipPath>
			
				<linearGradient id="SVGID_4_" gradientUnits="userSpaceOnUse" x1="-137.8974" y1="894.2643" x2="-137.3211" y2="894.2643" gradientTransform="matrix(244.4236 0 0 -244.4236 33867.7578 218659.1094)">
				<stop  offset="0" style="stop-color:#6446BD"/>
				<stop  offset="0.4275" style="stop-color:#6446BD"/>
				<stop  offset="1" style="stop-color:#231C47"/>
			</linearGradient>
			<rect x="162.4" y="2.3" class="st1" width="142.8" height="155.1"/>
		</g>
		<g>
			<defs>
				<rect id="SVGID_5_" x="3.7" y="2.3" width="391" height="650"/>
			</defs>
			<clipPath id="SVGID_6_">
				<use xlink:href="#SVGID_5_"  style="overflow:visible;"/>
			</clipPath>
			<path class="st2" d="M218.9,214.8c0,0,2.6-34.2-17.6-44.6c-20.2-10.3-48.7-10.8-46.6-60.5c2.1-49.7,39.5-87.9,47.5-86.9
				c7.9,1,17,11.9,23.8,11.9c6.9,0,22.9-9.7,34.3,5c11.4,14.7,1,75.3,7.2,79.1c6.2,3.8,14-23.6,14-23.6s20.3-11.4,21.8,10.9
				c1.5,22.3-23.7,15.6-23.7,15.6s-20.5,32.4-42.8,48.1c0,0,7,26.2,3.3,49.3L218.9,214.8z"/>
			<path class="st3" d="M281.5,95.1c0,0-7.8,27.5-14,23.6c-6.2-3.8,4.1-64.5-7.2-79.1c-4.6-5.9-9.9-7.8-15-8.1
				c6.5,16.6,8.5,35,5.4,52.6c-1,5.8-2.5,11.5-5.1,16.8c-6.3,12.7-18.2,21.4-29,30.6c-3.9,3.3-7.9,7-9.8,11.7
				c-2.6,6.5-0.8,14,2.5,20.2c3.3,6.2,7.9,11.5,11.6,17.4c6.8,10.9,10.2,23.6,11.1,36.5l8,1.6c3.6-23.1-3.3-49.3-3.3-49.3
				c22.3-15.6,42.8-48.1,42.8-48.1s25.2,6.7,23.7-15.6C301.7,83.8,281.5,95.1,281.5,95.1"/>
			<path class="st4" d="M221.6,585.3l-24.4,11.5c-15.6,9.2-31.3,18.4-46.9,27.6c-5.5,3.2-11.3,6.8-13.9,12.6
				c9.8,5.3,21.9,1.7,32.5-1.9c19-6.5,37.9-13,56.9-19.6C225.3,605.3,223.9,595.2,221.6,585.3"/>
			<path class="st5" d="M192.7,619.2c-0.1,0.1-0.7-1.1-2-2.7c-0.2-0.2-0.3-0.4-0.5-0.6c-0.2-0.2-0.4-0.4-0.6-0.6
				c-0.4-0.5-0.9-0.9-1.4-1.4c-1-0.9-2.2-1.8-3.6-2.6c-1.4-0.8-2.8-1.3-4-1.7c-0.7-0.2-1.3-0.4-1.9-0.5c-0.3-0.1-0.6-0.1-0.9-0.2
				c-0.3,0-0.5-0.1-0.8-0.1c-2-0.2-3.3-0.1-3.4-0.3c0-0.1,1.3-0.4,3.4-0.3c0.3,0,0.5,0,0.8,0.1c0.3,0,0.6,0.1,0.9,0.1
				c0.6,0.1,1.3,0.2,2,0.4c1.4,0.4,2.8,1,4.2,1.7c1.4,0.8,2.6,1.8,3.7,2.7c0.5,0.5,1,1,1.4,1.5c0.2,0.2,0.4,0.5,0.6,0.7
				c0.2,0.2,0.3,0.5,0.5,0.7C192.4,617.9,192.8,619.2,192.7,619.2"/>
			<path class="st5" d="M200.3,613.6c-0.1,0.1-0.8-0.9-2.1-2.4c-0.3-0.4-0.7-0.8-1.1-1.1c-0.4-0.4-0.8-0.8-1.3-1.2
				c-1-0.8-2.1-1.7-3.3-2.4c-1.3-0.8-2.5-1.4-3.7-1.9c-0.6-0.2-1.2-0.5-1.7-0.6c-0.5-0.2-1-0.3-1.5-0.4c-1.9-0.5-3.1-0.6-3.1-0.7
				c0-0.1,1.2-0.2,3.2,0.2c0.5,0.1,1,0.2,1.6,0.4c0.6,0.1,1.2,0.3,1.8,0.6c1.2,0.5,2.5,1.1,3.8,1.9c1.3,0.8,2.4,1.7,3.4,2.6
				c0.5,0.5,0.9,0.9,1.3,1.3c0.4,0.4,0.7,0.9,1,1.2C199.9,612.4,200.4,613.5,200.3,613.6"/>
			<path class="st5" d="M207.9,606.4c-0.2,0.2-3.3-2.7-8.1-4.7c-4.8-2-9-2.2-9-2.5c0-0.1,1.1-0.2,2.8,0c1.7,0.2,4.1,0.7,6.5,1.7
				c2.4,1,4.5,2.3,5.8,3.4C207.3,605.5,208,606.3,207.9,606.4"/>
			<path class="st4" d="M240,592.4c-10.9,10.9-20.8,22.7-29.6,35.3c-1.8,2.6-3.6,5.3-4.3,8.4c-0.7,3.1-0.1,6.7,2.3,8.8
				c3.5,3,8.8,1.7,13-0.1c22.3-9.8,39.5-30.6,44.7-54.4L240,592.4z"/>
			<path class="st5" d="M252.2,608.7c-0.1,0.1-1.1-0.6-3-1.6c-0.5-0.2-1-0.5-1.5-0.7c-0.6-0.2-1.2-0.5-1.8-0.7
				c-1.3-0.4-2.7-0.8-4.3-1c-1.5-0.2-3-0.3-4.4-0.3c-0.7,0-1.3,0-1.9,0.1c-0.6,0-1.2,0.1-1.7,0.2c-2,0.3-3.3,0.7-3.3,0.6
				c0-0.1,1.1-0.7,3.2-1.1c0.5-0.1,1.1-0.2,1.7-0.3c0.6-0.1,1.3-0.1,2-0.2c1.4,0,2.9,0,4.5,0.3c1.6,0.3,3.1,0.7,4.4,1.1
				c0.7,0.3,1.3,0.5,1.8,0.8c0.6,0.3,1.1,0.5,1.5,0.8C251.3,607.8,252.3,608.7,252.2,608.7"/>
			<path class="st5" d="M246.1,617.8c-0.1,0.1-1-0.8-2.6-1.9c-0.2-0.1-0.4-0.3-0.7-0.4c-0.2-0.1-0.5-0.3-0.7-0.4
				c-0.5-0.3-1.1-0.5-1.7-0.8c-1.2-0.5-2.6-1-4.1-1.3c-1.5-0.3-2.9-0.4-4.2-0.4c-0.7,0-1.3,0-1.9,0.1c-0.3,0-0.6,0.1-0.8,0.1
				c-0.3,0-0.5,0.1-0.8,0.1c-2,0.4-3.1,0.9-3.2,0.7c0-0.1,1.1-0.7,3.1-1.3c0.3-0.1,0.5-0.1,0.8-0.2c0.3-0.1,0.6-0.1,0.9-0.1
				c0.6-0.1,1.2-0.1,1.9-0.2c1.4,0,2.9,0,4.4,0.3c1.5,0.3,3,0.8,4.2,1.4c0.6,0.3,1.2,0.6,1.7,0.9c0.3,0.2,0.5,0.3,0.7,0.5
				c0.2,0.2,0.4,0.3,0.6,0.5C245.4,616.7,246.1,617.8,246.1,617.8"/>
			<path class="st5" d="M239.2,623.8c-0.1,0.1-0.9-0.6-2.4-1.4c-0.4-0.2-0.8-0.4-1.2-0.6c-0.4-0.2-0.9-0.4-1.5-0.6
				c-1-0.4-2.2-0.7-3.5-0.8c-1.3-0.2-2.5-0.2-3.6-0.1c-0.6,0.1-1.1,0.1-1.6,0.2c-0.5,0.1-0.9,0.2-1.3,0.3c-1.6,0.4-2.6,0.9-2.6,0.8
				c0-0.1,0.8-0.7,2.5-1.3c0.4-0.1,0.9-0.3,1.4-0.4c0.5-0.1,1-0.2,1.6-0.3c1.2-0.1,2.4-0.1,3.8,0c1.3,0.2,2.6,0.5,3.7,0.9
				c0.5,0.2,1,0.4,1.5,0.7c0.5,0.2,0.9,0.5,1.2,0.7C238.5,622.9,239.2,623.8,239.2,623.8"/>
		</g>
		<g>
			<defs>
				<path id="SVGID_7_" d="M190.9,597.2c0,0,20.7,3.4,36,0.6l-8-218.6l-37.9-7.4C181,371.9,165.5,523.3,190.9,597.2"/>
			</defs>
			<clipPath id="SVGID_8_">
				<use xlink:href="#SVGID_7_"  style="overflow:visible;"/>
			</clipPath>
			
				<linearGradient id="SVGID_9_" gradientUnits="userSpaceOnUse" x1="-137.831" y1="896.357" x2="-137.2547" y2="896.357" gradientTransform="matrix(87.672 0 0 -87.672 12260.252 79071.6484)">
				<stop  offset="0" style="stop-color:#FFC056"/>
				<stop  offset="1" style="stop-color:#F5A622"/>
			</linearGradient>
			<rect x="165.5" y="371.9" class="st6" width="61.3" height="228.8"/>
		</g>
		<g>
			<defs>
				<path id="SVGID_10_" d="M217.4,408.8c0,0,8.6,190.4,9.5,193.6c0.8,3.2,40.1,4.2,46.8-2.3l-12.9-220.8l-79.7-7.4
					C181,371.9,193.2,400,217.4,408.8"/>
			</defs>
			<clipPath id="SVGID_11_">
				<use xlink:href="#SVGID_10_"  style="overflow:visible;"/>
			</clipPath>
			
				<linearGradient id="SVGID_12_" gradientUnits="userSpaceOnUse" x1="-137.9293" y1="895.7534" x2="-137.353" y2="895.7534" gradientTransform="matrix(160.8083 0 0 -160.8083 22361.1914 144533.7656)">
				<stop  offset="0" style="stop-color:#FFD896"/>
				<stop  offset="1" style="stop-color:#F5A622"/>
			</linearGradient>
			<rect x="181" y="371.9" class="st7" width="92.7" height="234.7"/>
		</g>
		<g>
			<defs>
				<rect id="SVGID_13_" x="3.7" y="2.3" width="391" height="650"/>
			</defs>
			<clipPath id="SVGID_14_">
				<use xlink:href="#SVGID_13_"  style="overflow:visible;"/>
			</clipPath>
			<path class="st8" d="M181.7,223.8c-29.4,26.2-49,40.4-87.2,49.3c-1.9-1.2-17.1-10.9-21.1-6.3c-4.3,5,6.4,10.6,6.4,10.6
				s-22,6.4-21.7,9.8c0.3,3,17.4,1.8,17.4,1.8s-17.7,8.8-15,12.5c2.7,3.7,16.8-6.5,16.8-6.5s-11.5,14.9-7.7,17.4
				c3.8,2.5,14.9-12.6,14.9-12.6s-5.5,8.7-1.2,10.9c4.3,2.1,9.3-13,9.3-13l0-0.2c22.4-6,43.2-17.3,63.1-29.3
				c17.8-10.6,35.7-28,40.8-33.6L181.7,223.8z"/>
		</g>
		<g>
			<defs>
				<path id="SVGID_15_" d="M165.8,228.4l12.3,32.4c0,0,48.5-27.4,38.4-60.4c-0.3-1-1.2-1.5-2.4-1.5
					C203.8,199,165.8,228.4,165.8,228.4"/>
			</defs>
			<clipPath id="SVGID_16_">
				<use xlink:href="#SVGID_15_"  style="overflow:visible;"/>
			</clipPath>
			
				<linearGradient id="SVGID_17_" gradientUnits="userSpaceOnUse" x1="-137.7508" y1="894.2453" x2="-137.1745" y2="894.2453" gradientTransform="matrix(90.4696 0 0 -90.4696 12628.082 81131.9766)">
				<stop  offset="0" style="stop-color:#009674"/>
				<stop  offset="0.2937" style="stop-color:#00A17D"/>
				<stop  offset="0.8142" style="stop-color:#00C094"/>
				<stop  offset="1" style="stop-color:#00CC9E"/>
			</linearGradient>
			<rect x="165.8" y="199" class="st9" width="60.8" height="61.8"/>
		</g>
		<g>
			<defs>
				<path id="SVGID_18_" d="M217.4,195.1c-46.6,60.2-51.6,176.7-51.6,176.7s42.6,26.5,99.7,12.5c4.3-19.9,4.7-90.1,4.7-90.1
					c15.9-6.3,31.5-21.3,31.5-21.3c-21.4-59.8-61.7-77.9-61.7-77.9C227.5,201.4,217.4,195.1,217.4,195.1"/>
			</defs>
			<clipPath id="SVGID_19_">
				<use xlink:href="#SVGID_18_"  style="overflow:visible;"/>
			</clipPath>
			
				<linearGradient id="SVGID_20_" gradientUnits="userSpaceOnUse" x1="-137.9044" y1="894.8824" x2="-137.328" y2="894.8824" gradientTransform="matrix(235.7008 0 0 -235.7008 32669.9766 211221.2344)">
				<stop  offset="0" style="stop-color:#009674"/>
				<stop  offset="0.2937" style="stop-color:#00A17D"/>
				<stop  offset="0.8142" style="stop-color:#00C094"/>
				<stop  offset="1" style="stop-color:#00CC9E"/>
			</linearGradient>
			<rect x="165.8" y="195.1" class="st10" width="135.8" height="203.3"/>
		</g>
		<g>
			<defs>
				<path id="SVGID_21_" d="M203.8,261.1c-6.2,2.5-12.2,6.2-16.4,11.5c-4.2,5.3-6.5,12.3-5.1,18.9C185,304,198.7,310,208,318.8
					c10.9,10.4,16,26.4,13.1,41.1c-1.9,10.1-7.6,19.4-15.5,26.1c16.4,3.1,37,4,59.9-1.6c4.3-19.9,4.7-90.1,4.7-90.1
					c1.3-0.5,2.6-1.1,3.9-1.7c-6.2-4.9-12-10.3-17.3-16.1c-4.8-5.1-9.3-10.7-15.3-14.3c-5.6-3.4-12.1-4.9-18.6-4.9
					C216.4,257.2,209.8,258.7,203.8,261.1"/>
			</defs>
			<clipPath id="SVGID_22_">
				<use xlink:href="#SVGID_21_"  style="overflow:visible;"/>
			</clipPath>
			
				<linearGradient id="SVGID_23_" gradientUnits="userSpaceOnUse" x1="-137.933" y1="894.9961" x2="-137.3567" y2="894.9961" gradientTransform="matrix(160.0582 0 0 -160.0582 22259.1934 143575.0938)">
				<stop  offset="0" style="stop-color:#006B53"/>
				<stop  offset="1" style="stop-color:#008A6A"/>
			</linearGradient>
			<rect x="180.9" y="257.2" class="st11" width="93.3" height="132.8"/>
		</g>
		<g>
			<defs>
				<rect id="SVGID_24_" x="3.7" y="2.3" width="391" height="650"/>
			</defs>
			<clipPath id="SVGID_25_">
				<use xlink:href="#SVGID_24_"  style="overflow:visible;"/>
			</clipPath>
			<path class="st12" d="M301.7,613.5l-14.9,5.2c-0.4,4.4,0.1,8.9,1.4,13.1c0.7,2.2,1.9,4.6,4.1,5.4c2.1,0.7,4.4-0.3,5.9-2
				c1.4-1.7,2.1-3.8,2.6-6C301.9,624,302.2,618.7,301.7,613.5"/>
			<path class="st12" d="M347.4,613.5l-14.9,5.2c-0.4,4.4,0.1,8.9,1.4,13.1c0.7,2.2,1.9,4.6,4.1,5.4c2.1,0.7,4.4-0.3,5.9-2
				c1.4-1.7,2.1-3.8,2.6-6C347.6,624.1,347.9,618.8,347.4,613.5"/>
			<path class="st13" d="M326.3,464.9c-0.1,0-0.3-1.1-0.5-3.1c-0.2-2-0.5-4.8-0.8-8.4c-0.6-7.1-1.3-16.9-1.7-27.8
				c-0.4-10.9-0.5-20.7-0.4-27.8c0-3.6,0.1-6.4,0.2-8.4c0.1-2,0.2-3.1,0.3-3.1c0.1,0,0.2,1.1,0.3,3.1c0.1,2,0.2,4.9,0.3,8.4
				c0.2,7.1,0.5,16.9,0.9,27.8c0.4,10.9,0.9,20.7,1.2,27.8c0.2,3.6,0.3,6.4,0.3,8.4C326.5,463.8,326.4,464.9,326.3,464.9"/>
		</g>
		<g>
			<defs>
				<path id="SVGID_26_" d="M259.2,477.7c-22,23-24,77.5-23.3,108.7c0.1,4.2,0.2,8.5,1.9,12.4c1.6,3.7,4.5,6.7,7.6,9.3
					c17.3,14.3,41,17.3,63.3,19.6c5.6,0.6,48.1,0.1,56.4-25.1c8.3-25.3,8.3-65.7-2.9-97.1c-6-16.9-16.2-38.3-31.1-44.8
					c-5-2.2-12.3-3.6-20.6-3.6C294,457.1,273.7,462.5,259.2,477.7"/>
			</defs>
			<clipPath id="SVGID_27_">
				<use xlink:href="#SVGID_26_"  style="overflow:visible;"/>
			</clipPath>
			
				<linearGradient id="SVGID_28_" gradientUnits="userSpaceOnUse" x1="-138.123" y1="895.689" x2="-137.5467" y2="895.689" gradientTransform="matrix(234.5149 0 0 -234.5149 32627.6387 210595.0469)">
				<stop  offset="0" style="stop-color:#006B53"/>
				<stop  offset="0.7977" style="stop-color:#00B086"/>
				<stop  offset="1" style="stop-color:#00B086"/>
			</linearGradient>
			<rect x="235.2" y="457.1" class="st14" width="138.1" height="171.1"/>
		</g>
		<g>
			<defs>
				<path id="SVGID_29_" d="M235.8,586.5c0.1,4.2,0.2,8.5,1.9,12.4c1.6,3.7,4.5,6.7,7.6,9.3c17.3,14.3,41,17.3,63.3,19.6
					c5.6,0.6,48.1,0.1,56.4-25.1c7-21.3,8.1-53.5,1.5-81.9c-23.6,11.6-88.5,37.4-98.8,31.6c-11.7-6.6-22.7-21-25.7-34.2
					c-0.2-0.8-0.3-1.7-0.5-2.5C236,539.5,235.4,567.3,235.8,586.5"/>
			</defs>
			<clipPath id="SVGID_30_">
				<use xlink:href="#SVGID_29_"  style="overflow:visible;"/>
			</clipPath>
			
				<linearGradient id="SVGID_31_" gradientUnits="userSpaceOnUse" x1="-138.1231" y1="895.7808" x2="-137.5467" y2="895.7808" gradientTransform="matrix(234.4827 0 0 -234.4827 32623.1992 210616.9688)">
				<stop  offset="0" style="stop-color:#007559"/>
				<stop  offset="0.1756" style="stop-color:#006950"/>
				<stop  offset="0.4877" style="stop-color:#004B39"/>
				<stop  offset="0.7214" style="stop-color:#003025"/>
				<stop  offset="1" style="stop-color:#003025"/>
			</linearGradient>
			<rect x="235.4" y="515.5" class="st15" width="137.6" height="112.7"/>
		</g>
		<g>
			<defs>
				<path id="SVGID_32_" d="M311.7,461.4c-12.6,1.3-25.1,7.9-31.4,18.9c-3.3,5.7-4.8,12.1-6.1,18.5c-4.5,22.8-6.1,46.1-4.6,69.3
					c1.3,20.1,5.8,41.9,21.6,54.4c1.8,1.5,3.8,2.7,5.9,3.9c3.9,0.5,7.8,0.9,11.7,1.3c5.6,0.6,48.1,0.1,56.4-25.1
					c8.3-25.3,8.3-65.7-2.9-97.1c-5.2-14.5-13.4-32.1-24.9-41c-6.5-2-13.3-3.3-20.1-3.3C315.3,461.1,313.5,461.2,311.7,461.4"/>
			</defs>
			<clipPath id="SVGID_33_">
				<use xlink:href="#SVGID_32_"  style="overflow:visible;"/>
			</clipPath>
			
				<linearGradient id="SVGID_34_" gradientUnits="userSpaceOnUse" x1="-138.3015" y1="895.9224" x2="-137.7252" y2="895.9224" gradientTransform="matrix(176.7979 0 0 -176.7979 24720.4199 158941.8906)">
				<stop  offset="0" style="stop-color:#00B086"/>
				<stop  offset="0.2426" style="stop-color:#00A57E"/>
				<stop  offset="0.6729" style="stop-color:#008667"/>
				<stop  offset="1" style="stop-color:#006B53"/>
			</linearGradient>
			<rect x="268.1" y="461.1" class="st16" width="105.2" height="167.1"/>
		</g>
		<g>
			<defs>
				<rect id="SVGID_35_" x="3.7" y="2.3" width="391" height="650"/>
			</defs>
			<clipPath id="SVGID_36_">
				<use xlink:href="#SVGID_35_"  style="overflow:visible;"/>
			</clipPath>
			<path class="st17" d="M276.8,474.8c-0.1,0-0.4-1.1-0.7-3.1c-0.4-2-0.8-5-1.4-8.6c-1-7.3-2.3-17.3-3.3-28.5
				c-1-11.2-1.6-21.3-1.8-28.6c-0.1-3.7-0.2-6.6-0.2-8.7c0-2.1,0.1-3.2,0.2-3.2c0.1,0,0.3,1.1,0.4,3.2c0.2,2,0.4,5,0.7,8.7
				c0.5,7.3,1.3,17.4,2.3,28.6c1,11.1,2,21.2,2.8,28.5c0.4,3.6,0.7,6.6,0.9,8.6C276.8,473.7,276.9,474.8,276.8,474.8"/>
			<path class="st18" d="M336.4,385c-0.5-5.8-5.5-10.1-11.3-9.8c-19,1-69.8,4.2-71.8,11.4c-2.4,8.9,1.5,16,5.6,18.9
				c4.1,2.9,16.6-14,35.4-15.3c18.7-1.3,27.3,3.2,35.2,5.9C334.4,397.7,337,391.5,336.4,385"/>
		</g>
		<g>
			<defs>
				<path id="SVGID_37_" d="M333.3,486.9c-2.4,5.2-2.3,11.2-1.9,16.9c0.7,9.2,2.4,18.4,4.9,27.3c1.9,6.7,4.3,13.5,3.5,20.4
					c-0.6,4.5-2.5,8.7-5.1,12.4c-8.3,12-24.6,18.6-38.2,13.6c-6.2-2.3-11.4-6.6-16.2-11.1c-4-3.8-8.1-9.2-11.4-13.6
					c0,4.7,0.3,10.7,0.6,15.4c1.3,20.1,5.8,41.9,21.6,54.4c1.8,1.5,3.8,2.7,5.9,3.9c3.9,0.5,7.8,0.9,11.7,1.3
					c5.6,0.6,48.1,0.1,56.4-25.1c8.3-25.3,8.3-65.7-2.9-97.1c-3.5-9.9-8.5-21.3-15-30.4C341.2,477.3,335.9,481.2,333.3,486.9"/>
			</defs>
			<clipPath id="SVGID_38_">
				<use xlink:href="#SVGID_37_"  style="overflow:visible;"/>
			</clipPath>
			
				<linearGradient id="SVGID_39_" gradientUnits="userSpaceOnUse" x1="-138.301" y1="895.9507" x2="-137.7247" y2="895.9507" gradientTransform="matrix(176.9314 0 0 -176.9314 24738.6953 159073.3906)">
				<stop  offset="0" style="stop-color:#007559"/>
				<stop  offset="0.2434" style="stop-color:#006950"/>
				<stop  offset="0.6761" style="stop-color:#004B39"/>
				<stop  offset="1" style="stop-color:#003025"/>
			</linearGradient>
			<rect x="268.9" y="475.1" class="st19" width="104.4" height="153.2"/>
		</g>
		<g>
			<defs>
				<rect id="SVGID_40_" x="3.7" y="2.3" width="391" height="650"/>
			</defs>
			<clipPath id="SVGID_41_">
				<use xlink:href="#SVGID_40_"  style="overflow:visible;"/>
			</clipPath>
			<polygon class="st20" points="54.7,348.2 11.1,242.1 43.6,230 87.2,336.1 			"/>
			
				<rect x="62.3" y="273.7" transform="matrix(0.9219 -0.3874 0.3874 0.9219 -101.2749 46.1457)" class="st21" width="3" height="1.2"/>
			
				<rect x="56.8" y="276" transform="matrix(0.9219 -0.3874 0.3874 0.9219 -102.6109 44.1774)" class="st21" width="3" height="1.2"/>
			
				<rect x="51.2" y="278.4" transform="matrix(0.9219 -0.3874 0.3874 0.9219 -103.9467 42.2091)" class="st21" width="3" height="1.2"/>
			
				<rect x="45.7" y="280.7" transform="matrix(0.9219 -0.3874 0.3874 0.9219 -105.2825 40.2409)" class="st21" width="3" height="1.2"/>
			
				<rect x="40.1" y="283" transform="matrix(0.9219 -0.3874 0.3874 0.9219 -106.6184 38.2726)" class="st21" width="3" height="1.2"/>
			
				<rect x="34.6" y="285.3" transform="matrix(0.9219 -0.3874 0.3874 0.9219 -107.9543 36.3041)" class="st21" width="3" height="1.2"/>
			
				<rect x="29" y="287.7" transform="matrix(0.9219 -0.3874 0.3874 0.9219 -109.2901 34.3359)" class="st21" width="3" height="1.2"/>
			<g class="st22">
				<g>
					<defs>
						<rect id="SVGID_42_" x="39.4" y="236.9" width="12.1" height="19.5"/>
					</defs>
					<clipPath id="SVGID_43_">
						<use xlink:href="#SVGID_42_"  style="overflow:visible;"/>
					</clipPath>
					<path class="st23" d="M43.7,237.3l7.8,17.9c0.2,0.4,0,0.8-0.3,1l-0.1,0.1c-0.4,0.2-0.9,0-1-0.4l-7.6-18c-0.2-0.4,0-0.9,0.5-1
						C43.2,236.8,43.6,237,43.7,237.3"/>
					<path class="st24" d="M40.9,238.3l6.2,14.3c0.2,0.4,0,0.8-0.3,1l-0.1,0.1c-0.4,0.2-0.9,0-1-0.4l-6.1-14.4c-0.2-0.4,0-0.9,0.5-1
						C40.3,237.7,40.7,237.9,40.9,238.3"/>
				</g>
			</g>
			<g class="st22">
				<g>
					<defs>
						<rect id="SVGID_44_" x="32.9" y="240" width="7.2" height="13.7"/>
					</defs>
					<clipPath id="SVGID_45_">
						<use xlink:href="#SVGID_44_"  style="overflow:visible;"/>
					</clipPath>
					<path class="st25" d="M37.1,240.5l2.9,6.6c0.2,0.4,0,0.8-0.3,1l-0.1,0.1c-0.4,0.2-0.9,0-1-0.4l-2.7-6.7c-0.2-0.4,0-0.9,0.5-1
						C36.6,239.9,37,240.1,37.1,240.5"/>
					<path class="st26" d="M34.3,241.4l4.6,11.1c0.2,0.4,0,0.8-0.3,1l-0.1,0.1c-0.4,0.2-0.9,0-1-0.4L32.9,242c-0.2-0.4,0-0.9,0.5-1
						C33.7,240.9,34.1,241.1,34.3,241.4"/>
				</g>
			</g>
			<g class="st22">
				<g>
					<defs>
						<rect id="SVGID_46_" x="25.6" y="243.1" width="7.2" height="13.7"/>
					</defs>
					<clipPath id="SVGID_47_">
						<use xlink:href="#SVGID_46_"  style="overflow:visible;"/>
					</clipPath>
					<path class="st27" d="M29.9,243.5l2.9,6.6c0.2,0.4,0,0.8-0.3,1l-0.1,0.1c-0.4,0.2-0.9,0-1-0.4l-2.7-6.7c-0.2-0.4,0-0.9,0.5-1
						C29.4,243,29.8,243.2,29.9,243.5"/>
					<path class="st28" d="M27,244.5l4.6,11.1c0.2,0.4,0,0.8-0.3,1l-0.1,0.1c-0.4,0.2-0.9,0-1-0.4l-4.5-11.2c-0.2-0.4,0-0.9,0.5-1
						C26.5,244,26.9,244.2,27,244.5"/>
				</g>
			</g>
			<g class="st22">
				<g>
					<defs>
						<rect id="SVGID_48_" x="18.5" y="245.5" width="6.2" height="9.4"/>
					</defs>
					<clipPath id="SVGID_49_">
						<use xlink:href="#SVGID_48_"  style="overflow:visible;"/>
					</clipPath>
					<path class="st29" d="M22.8,246l1.8,4.4c0.2,0.4,0,0.8-0.3,1l-0.1,0.1c-0.4,0.2-0.9,0-1-0.4l-1.7-4.5c-0.2-0.4,0-0.9,0.5-1
						C22.2,245.4,22.6,245.6,22.8,246"/>
					<path class="st30" d="M19.9,246.9l3.1,6.8c0.2,0.4,0,0.8-0.3,1l-0.1,0.1c-0.4,0.2-0.9,0-1-0.4l-2.9-6.9c-0.2-0.4,0-0.9,0.5-1
						C19.4,246.4,19.7,246.6,19.9,246.9"/>
				</g>
			</g>
			<g class="st22">
				<g>
					<defs>
						<rect id="SVGID_50_" x="24.7" y="259.3" width="6.2" height="9.4"/>
					</defs>
					<clipPath id="SVGID_51_">
						<use xlink:href="#SVGID_50_"  style="overflow:visible;"/>
					</clipPath>
					<path class="st31" d="M29,259.8l1.8,4.4c0.2,0.4,0,0.8-0.3,1l-0.1,0.1c-0.4,0.2-0.9,0-1-0.4l-1.7-4.5c-0.2-0.4,0-0.9,0.5-1
						C28.5,259.2,28.9,259.4,29,259.8"/>
					<path class="st32" d="M26.1,260.7l3.1,6.8c0.2,0.4,0,0.8-0.3,1l-0.1,0.1c-0.4,0.2-0.9,0-1-0.4l-2.9-6.9c-0.2-0.4,0-0.9,0.5-1
						C25.6,260.2,26,260.4,26.1,260.7"/>
				</g>
			</g>
			<g class="st22">
				<g>
					<defs>
						<rect id="SVGID_52_" x="29.8" y="271.6" width="6.2" height="9.4"/>
					</defs>
					<clipPath id="SVGID_53_">
						<use xlink:href="#SVGID_52_"  style="overflow:visible;"/>
					</clipPath>
					<path class="st33" d="M34.1,272l1.8,4.4c0.2,0.4,0,0.8-0.3,1l-0.1,0.1c-0.4,0.2-0.9,0-1-0.4l-1.7-4.5c-0.2-0.4,0-0.9,0.5-1
						C33.6,271.5,34,271.7,34.1,272"/>
					<path class="st34" d="M31.3,273l3.1,6.8c0.2,0.4,0,0.8-0.3,1l-0.1,0.1c-0.4,0.2-0.9,0-1-0.4l-2.9-6.9c-0.2-0.4,0-0.9,0.5-1
						C30.7,272.5,31.1,272.7,31.3,273"/>
				</g>
			</g>
			<g class="st22">
				<g>
					<defs>
						<rect id="SVGID_54_" x="58.3" y="284.4" width="21.9" height="42.2"/>
					</defs>
					<clipPath id="SVGID_55_">
						<use xlink:href="#SVGID_54_"  style="overflow:visible;"/>
					</clipPath>
					<path class="st35" d="M62.6,284.8l17.6,40.6c0.2,0.4,0,0.8-0.3,1l-0.1,0.1c-0.4,0.2-0.9,0.1-1-0.3l-17.4-40.7
						c-0.2-0.4,0-0.9,0.5-1C62,284.3,62.4,284.5,62.6,284.8"/>
					<path class="st36" d="M59.7,285.9l15.9,37c0.2,0.4,0,0.8-0.3,1l-0.1,0.1c-0.4,0.2-0.9,0.1-1-0.3l-15.8-37.1
						c-0.2-0.4,0-0.9,0.5-1C59.2,285.3,59.6,285.5,59.7,285.9"/>
				</g>
			</g>
			<g class="st22">
				<g>
					<defs>
						<rect id="SVGID_56_" x="51.8" y="287.7" width="7.3" height="13.6"/>
					</defs>
					<clipPath id="SVGID_57_">
						<use xlink:href="#SVGID_56_"  style="overflow:visible;"/>
					</clipPath>
					<path class="st37" d="M56.1,288.1l3,6.6c0.2,0.4,0,0.8-0.3,1l-0.1,0.1c-0.4,0.2-0.9,0.1-1-0.3l-2.9-6.7c-0.2-0.4,0-0.9,0.5-1
						C55.5,287.6,55.9,287.8,56.1,288.1"/>
					<path class="st38" d="M53.2,289.2l4.8,11c0.2,0.4,0,0.8-0.3,1l-0.1,0.1c-0.4,0.2-0.9,0.1-1-0.3l-4.7-11.1c-0.2-0.4,0-0.9,0.5-1
						C52.7,288.6,53.1,288.8,53.2,289.2"/>
				</g>
			</g>
			<g class="st22">
				<g>
					<defs>
						<rect id="SVGID_58_" x="44.6" y="290.9" width="7.3" height="13.6"/>
					</defs>
					<clipPath id="SVGID_59_">
						<use xlink:href="#SVGID_58_"  style="overflow:visible;"/>
					</clipPath>
					<path class="st39" d="M48.9,291.3l3,6.6c0.2,0.4,0,0.8-0.3,1l-0.1,0.1c-0.4,0.2-0.9,0.1-1-0.3l-2.9-6.7c-0.2-0.4,0-0.9,0.5-1
						C48.3,290.8,48.7,291,48.9,291.3"/>
					<path class="st40" d="M46,292.4l4.8,11c0.2,0.4,0,0.8-0.3,1l-0.1,0.1c-0.4,0.2-0.9,0.1-1-0.3L44.7,293c-0.2-0.4,0-0.9,0.5-1
						C45.5,291.8,45.9,292,46,292.4"/>
				</g>
			</g>
			<g class="st22">
				<g>
					<defs>
						<rect id="SVGID_60_" x="37.5" y="293.4" width="6.2" height="9.4"/>
					</defs>
					<clipPath id="SVGID_61_">
						<use xlink:href="#SVGID_60_"  style="overflow:visible;"/>
					</clipPath>
					<path class="st41" d="M41.8,293.9l1.9,4.4c0.2,0.4,0,0.8-0.3,1l-0.1,0.1c-0.4,0.2-0.9,0.1-1-0.3l-1.8-4.5c-0.2-0.4,0-0.9,0.5-1
						C41.2,293.4,41.6,293.5,41.8,293.9"/>
					<path class="st42" d="M38.9,294.9l3.2,6.8c0.2,0.4,0,0.8-0.3,1l-0.1,0.1c-0.4,0.2-0.9,0.1-1-0.3l-3.1-6.9c-0.2-0.4,0-0.9,0.5-1
						C38.4,294.4,38.8,294.6,38.9,294.9"/>
				</g>
			</g>
			<g class="st22">
				<g>
					<defs>
						<rect id="SVGID_62_" x="44" y="307.1" width="6.2" height="9.4"/>
					</defs>
					<clipPath id="SVGID_63_">
						<use xlink:href="#SVGID_62_"  style="overflow:visible;"/>
					</clipPath>
					<path class="st43" d="M48.3,307.6l1.9,4.4c0.2,0.4,0,0.8-0.3,1l-0.1,0.1c-0.4,0.2-0.9,0.1-1-0.3l-1.8-4.5c-0.2-0.4,0-0.9,0.5-1
						C47.7,307.1,48.1,307.2,48.3,307.6"/>
					<path class="st44" d="M45.4,308.6l3.2,6.8c0.2,0.4,0,0.8-0.3,1l-0.1,0.1c-0.4,0.2-0.9,0.1-1-0.3l-3.1-6.9c-0.2-0.4,0-0.9,0.5-1
						C44.9,308.1,45.3,308.2,45.4,308.6"/>
				</g>
			</g>
			<g class="st22">
				<g>
					<defs>
						<rect id="SVGID_64_" x="49.3" y="319.3" width="6.2" height="9.4"/>
					</defs>
					<clipPath id="SVGID_65_">
						<use xlink:href="#SVGID_64_"  style="overflow:visible;"/>
					</clipPath>
					<path class="st45" d="M53.6,319.8l1.9,4.4c0.2,0.4,0,0.8-0.3,1l-0.1,0.1c-0.4,0.2-0.9,0.1-1-0.3l-1.8-4.5c-0.2-0.4,0-0.9,0.5-1
						C53.1,319.2,53.5,319.4,53.6,319.8"/>
					<path class="st46" d="M50.8,320.8l3.2,6.8c0.2,0.4,0,0.8-0.3,1l-0.1,0.1c-0.4,0.2-0.9,0.1-1-0.3l-3.1-6.9c-0.2-0.4,0-0.9,0.5-1
						C50.2,320.3,50.6,320.4,50.8,320.8"/>
				</g>
			</g>
			<path class="st20" d="M50.4,231.5l8.5,20.6c0.3,0.8-0.1,1.6-0.9,1.8c-0.7,0.2-1.4-0.1-1.7-0.8l-8.6-20.6c-0.3-0.6,0-1.3,0.5-1.7
				l0,0C49.1,230.4,50.1,230.7,50.4,231.5"/>
		</g>
		<g>
			<defs>
				<path id="SVGID_66_" d="M44.3,222.7L5.2,244.2c-1,0.6-1.5,1.6-1.5,2.6v0c0,0.5,0.1,1.1,0.4,1.5l58.4,100.1
					c0.9,1.4,2.7,1.9,4.2,1.1l39.1-21.5c1.4-0.9,1.9-2.7,1.1-4.2L48.5,223.7c-0.6-1-1.6-1.5-2.6-1.5
					C45.4,222.3,44.8,222.4,44.3,222.7"/>
			</defs>
			<clipPath id="SVGID_67_">
				<use xlink:href="#SVGID_66_"  style="overflow:visible;"/>
			</clipPath>
			
				<linearGradient id="SVGID_68_" gradientUnits="userSpaceOnUse" x1="-137.2114" y1="894.8489" x2="-136.6351" y2="894.8489" gradientTransform="matrix(179.7101 0 0 -179.7101 24661.9922 161099.6406)">
				<stop  offset="0" style="stop-color:#0078AA"/>
				<stop  offset="0.274" style="stop-color:#0B8DB5"/>
				<stop  offset="0.7377" style="stop-color:#1CABC6"/>
				<stop  offset="1" style="stop-color:#22B6CC"/>
			</linearGradient>
			<rect x="3.7" y="222.3" class="st47" width="104" height="128"/>
		</g>
		<g>
			<defs>
				<rect id="SVGID_69_" x="3.7" y="2.3" width="391" height="650"/>
			</defs>
			<clipPath id="SVGID_70_">
				<use xlink:href="#SVGID_69_"  style="overflow:visible;"/>
			</clipPath>
			<polygon class="st48" points="69.9,346.8 9.1,242.6 41.1,225.3 101.9,329.5 			"/>
			
				<rect x="67" y="267.9" transform="matrix(0.8595 -0.5111 0.5111 0.8595 -127.5888 72.7741)" class="st49" width="3.2" height="1.3"/>
			
				<rect x="61.6" y="271.1" transform="matrix(0.8597 -0.5107 0.5107 0.8597 -129.9251 70.3698)" class="st49" width="3.2" height="1.3"/>
			
				<rect x="56.1" y="274.3" transform="matrix(0.8597 -0.5107 0.5107 0.8597 -132.3385 68.0426)" class="st49" width="3.2" height="1.3"/>
			
				<rect x="50.7" y="277.6" transform="matrix(0.8597 -0.5107 0.5107 0.8597 -134.7517 65.7153)" class="st49" width="3.2" height="1.3"/>
			
				<rect x="45.2" y="280.8" transform="matrix(0.8597 -0.5107 0.5107 0.8597 -137.1651 63.388)" class="st49" width="3.2" height="1.3"/>
			
				<rect x="39.8" y="284" transform="matrix(0.8597 -0.5107 0.5107 0.8597 -139.5781 61.0604)" class="st49" width="3.2" height="1.3"/>
			
				<rect x="34.4" y="287.3" transform="matrix(0.8597 -0.5107 0.5107 0.8597 -141.9914 58.7332)" class="st49" width="3.2" height="1.3"/>
			<g class="st50">
				<g>
					<defs>
						<rect id="SVGID_71_" x="38" y="232.5" width="15.1" height="19.2"/>
					</defs>
					<clipPath id="SVGID_72_">
						<use xlink:href="#SVGID_71_"  style="overflow:visible;"/>
					</clipPath>
					<path class="st51" d="M42.3,232.9L53,250.4c0.2,0.3,0.1,0.8-0.2,1l-0.1,0.1c-0.4,0.3-0.9,0.2-1.1-0.2l-10.5-17.6
						c-0.2-0.4-0.1-0.9,0.3-1.1C41.7,232.4,42.1,232.6,42.3,232.9"/>
					<path class="st52" d="M39.5,234.3l8.5,14c0.2,0.3,0.1,0.8-0.2,1l-0.1,0.1c-0.4,0.3-0.9,0.2-1.1-0.2l-8.4-14.1
						c-0.2-0.4-0.1-0.9,0.3-1.1C38.8,233.8,39.2,234,39.5,234.3"/>
				</g>
			</g>
			<g class="st50">
				<g>
					<defs>
						<rect id="SVGID_73_" x="31.6" y="236.8" width="8.4" height="14"/>
					</defs>
					<clipPath id="SVGID_74_">
						<use xlink:href="#SVGID_73_"  style="overflow:visible;"/>
					</clipPath>
					<path class="st53" d="M35.9,237.1l4,6.5c0.2,0.3,0.1,0.8-0.2,1l-0.1,0.1c-0.4,0.3-0.9,0.2-1.1-0.2l-3.8-6.6
						c-0.2-0.4-0.1-0.9,0.3-1.1C35.3,236.7,35.7,236.8,35.9,237.1"/>
					<path class="st54" d="M33.1,238.6l6.4,10.9c0.2,0.3,0.1,0.8-0.2,1l-0.1,0.1c-0.4,0.3-0.9,0.2-1.1-0.2l-6.3-11
						c-0.2-0.4-0.1-0.9,0.3-1.1C32.4,238.1,32.9,238.2,33.1,238.6"/>
				</g>
			</g>
			<g class="st50">
				<g>
					<defs>
						<rect id="SVGID_75_" x="24.5" y="241" width="8.4" height="14"/>
					</defs>
					<clipPath id="SVGID_76_">
						<use xlink:href="#SVGID_75_"  style="overflow:visible;"/>
					</clipPath>
					<path class="st55" d="M28.8,241.4l4,6.5c0.2,0.3,0.1,0.8-0.2,1l-0.1,0.1c-0.4,0.3-0.9,0.2-1.1-0.2l-3.8-6.6
						c-0.2-0.4-0.1-0.9,0.3-1.1C28.2,240.9,28.6,241.1,28.8,241.4"/>
					<path class="st56" d="M26,242.8l6.4,10.9c0.2,0.3,0.1,0.8-0.2,1l-0.1,0.1c-0.4,0.3-0.9,0.2-1.1-0.2l-6.3-11
						c-0.2-0.4-0.1-0.9,0.3-1.1C25.3,242.3,25.8,242.5,26,242.8"/>
				</g>
			</g>
			<g class="st50">
				<g>
					<defs>
						<rect id="SVGID_77_" x="17.4" y="244.6" width="6.9" height="9.8"/>
					</defs>
					<clipPath id="SVGID_78_">
						<use xlink:href="#SVGID_77_"  style="overflow:visible;"/>
					</clipPath>
					<path class="st57" d="M21.7,244.9l2.5,4.4c0.2,0.3,0.1,0.8-0.2,1l-0.1,0.1c-0.4,0.3-0.9,0.2-1.1-0.2l-2.4-4.5
						c-0.2-0.4-0.1-0.9,0.3-1.1C21.1,244.5,21.5,244.6,21.7,244.9"/>
					<path class="st58" d="M18.9,246.4l4.2,6.7c0.2,0.3,0.1,0.8-0.2,1l-0.1,0.1c-0.4,0.3-0.9,0.2-1.1-0.2l-4.1-6.8
						c-0.2-0.4-0.1-0.9,0.3-1.1C18.2,245.9,18.7,246,18.9,246.4"/>
				</g>
			</g>
			<g class="st50">
				<g>
					<defs>
						<rect id="SVGID_79_" x="25.9" y="258" width="6.9" height="9.8"/>
					</defs>
					<clipPath id="SVGID_80_">
						<use xlink:href="#SVGID_79_"  style="overflow:visible;"/>
					</clipPath>
					<path class="st59" d="M30.2,258.4l2.5,4.4c0.2,0.3,0.1,0.8-0.2,1l-0.1,0.1c-0.4,0.3-0.9,0.2-1.1-0.2l-2.4-4.5
						c-0.2-0.4-0.1-0.9,0.3-1.1C29.6,258,30,258.1,30.2,258.4"/>
					<path class="st60" d="M27.4,259.8l4.2,6.7c0.2,0.3,0.1,0.8-0.2,1l-0.1,0.1c-0.4,0.3-0.9,0.2-1.1-0.2l-4.1-6.8
						c-0.2-0.4-0.1-0.9,0.3-1.1C26.8,259.4,27.2,259.5,27.4,259.8"/>
				</g>
			</g>
			<g class="st50">
				<g>
					<defs>
						<rect id="SVGID_81_" x="33" y="270.1" width="6.9" height="9.8"/>
					</defs>
					<clipPath id="SVGID_82_">
						<use xlink:href="#SVGID_81_"  style="overflow:visible;"/>
					</clipPath>
					<path class="st61" d="M37.3,270.5l2.5,4.4c0.2,0.3,0.1,0.8-0.2,1l-0.1,0.1c-0.4,0.3-0.9,0.2-1.1-0.2l-2.4-4.5
						c-0.2-0.4-0.1-0.9,0.3-1.1C36.7,270,37.1,270.1,37.3,270.5"/>
					<path class="st62" d="M34.5,271.9l4.2,6.7c0.2,0.3,0.1,0.8-0.2,1l-0.1,0.1c-0.4,0.3-0.9,0.2-1.1-0.2l-4.1-6.8
						c-0.2-0.4-0.1-0.9,0.3-1.1C33.8,271.4,34.3,271.6,34.5,271.9"/>
				</g>
			</g>
			<g class="st50">
				<g>
					<defs>
						<rect id="SVGID_83_" x="64.6" y="279.3" width="28.6" height="41.4"/>
					</defs>
					<clipPath id="SVGID_84_">
						<use xlink:href="#SVGID_83_"  style="overflow:visible;"/>
					</clipPath>
					<path class="st63" d="M68.8,279.7L93,319.5c0.2,0.3,0.1,0.8-0.2,1l-0.1,0.1c-0.4,0.3-0.9,0.2-1.1-0.2l-24-39.9
						c-0.2-0.4-0.1-0.9,0.3-1.1C68.2,279.2,68.6,279.4,68.8,279.7"/>
					<path class="st64" d="M66,281.2l22,36.3c0.2,0.3,0.1,0.8-0.2,1l-0.1,0.1c-0.4,0.3-0.9,0.2-1.1-0.2L64.7,282
						c-0.2-0.4-0.1-0.9,0.3-1.1C65.4,280.7,65.8,280.8,66,281.2"/>
				</g>
			</g>
			<g class="st50">
				<g>
					<defs>
						<rect id="SVGID_85_" x="58.3" y="283.7" width="8.5" height="13.9"/>
					</defs>
					<clipPath id="SVGID_86_">
						<use xlink:href="#SVGID_85_"  style="overflow:visible;"/>
					</clipPath>
					<path class="st65" d="M62.5,284.1l4.1,6.4c0.2,0.3,0.1,0.8-0.2,1l-0.1,0.1c-0.4,0.3-0.9,0.2-1.1-0.2l-3.9-6.5
						c-0.2-0.4-0.1-0.9,0.3-1.1C61.9,283.6,62.3,283.7,62.5,284.1"/>
					<path class="st66" d="M59.7,285.5l6.6,10.8c0.2,0.3,0.1,0.8-0.2,1l-0.1,0.1c-0.4,0.3-0.9,0.2-1.1-0.2l-6.5-10.9
						c-0.2-0.4-0.1-0.9,0.3-1.1C59.1,285.1,59.5,285.2,59.7,285.5"/>
				</g>
			</g>
			<g class="st50">
				<g>
					<defs>
						<rect id="SVGID_87_" x="51.2" y="288.1" width="8.5" height="13.9"/>
					</defs>
					<clipPath id="SVGID_88_">
						<use xlink:href="#SVGID_87_"  style="overflow:visible;"/>
					</clipPath>
					<path class="st67" d="M55.5,288.4l4.1,6.4c0.2,0.3,0.1,0.8-0.2,1l-0.1,0.1c-0.4,0.3-0.9,0.2-1.1-0.2l-3.9-6.5
						c-0.2-0.4-0.1-0.9,0.3-1.1C54.9,288,55.3,288.1,55.5,288.4"/>
					<path class="st68" d="M52.7,289.9l6.6,10.8c0.2,0.3,0.1,0.8-0.2,1l-0.1,0.1c-0.4,0.3-0.9,0.2-1.1-0.2l-6.5-10.9
						c-0.2-0.4-0.1-0.9,0.3-1.1C52,289.5,52.5,289.6,52.7,289.9"/>
				</g>
			</g>
			<g class="st50">
				<g>
					<defs>
						<rect id="SVGID_89_" x="44.2" y="291.8" width="7" height="9.7"/>
					</defs>
					<clipPath id="SVGID_90_">
						<use xlink:href="#SVGID_89_"  style="overflow:visible;"/>
					</clipPath>
					<path class="st69" d="M48.5,292.1l2.6,4.3c0.2,0.3,0.1,0.8-0.2,1l-0.1,0.1c-0.4,0.3-0.9,0.2-1.1-0.2l-2.5-4.4
						c-0.2-0.4-0.1-0.9,0.3-1.1C47.8,291.7,48.3,291.8,48.5,292.1"/>
					<path class="st70" d="M45.7,293.6l4.3,6.6c0.2,0.3,0.1,0.8-0.2,1l-0.1,0.1c-0.4,0.3-0.9,0.2-1.1-0.2l-4.2-6.7
						c-0.2-0.4-0.1-0.9,0.3-1.1C45,293.1,45.4,293.2,45.7,293.6"/>
				</g>
			</g>
			<g class="st50">
				<g>
					<defs>
						<rect id="SVGID_91_" x="53" y="305.1" width="7" height="9.7"/>
					</defs>
					<clipPath id="SVGID_92_">
						<use xlink:href="#SVGID_91_"  style="overflow:visible;"/>
					</clipPath>
					<path class="st71" d="M57.2,305.4l2.6,4.3c0.2,0.3,0.1,0.8-0.2,1l-0.1,0.1c-0.4,0.3-0.9,0.2-1.1-0.2l-2.5-4.4
						c-0.2-0.4-0.1-0.9,0.3-1.1C56.6,305,57,305.1,57.2,305.4"/>
					<path class="st72" d="M54.4,306.9l4.3,6.6c0.2,0.3,0.1,0.8-0.2,1l-0.1,0.1c-0.4,0.3-0.9,0.2-1.1-0.2l-4.2-6.7
						c-0.2-0.4-0.1-0.9,0.3-1.1C53.8,306.4,54.2,306.6,54.4,306.9"/>
				</g>
			</g>
			<g class="st50">
				<g>
					<defs>
						<rect id="SVGID_93_" x="60.3" y="317" width="7" height="9.7"/>
					</defs>
					<clipPath id="SVGID_94_">
						<use xlink:href="#SVGID_93_"  style="overflow:visible;"/>
					</clipPath>
					<path class="st73" d="M64.6,317.4l2.6,4.3c0.2,0.3,0.1,0.8-0.2,1l-0.1,0.1c-0.4,0.3-0.9,0.2-1.1-0.2l-2.5-4.4
						c-0.2-0.4-0.1-0.9,0.3-1.1C63.9,316.9,64.3,317,64.6,317.4"/>
					<path class="st74" d="M61.7,318.8l4.3,6.6c0.2,0.3,0.1,0.8-0.2,1l-0.1,0.1c-0.4,0.3-0.9,0.2-1.1-0.2l-4.2-6.7
						c-0.2-0.4-0.1-0.9,0.3-1.1C61.1,318.4,61.5,318.5,61.7,318.8"/>
				</g>
			</g>
			<g class="st75">
				<g>
					<defs>
						<rect id="SVGID_95_" x="71.9" y="322.6" width="17.8" height="11.1"/>
					</defs>
					<clipPath id="SVGID_96_">
						<use xlink:href="#SVGID_95_"  style="overflow:visible;"/>
					</clipPath>
					<path class="st76" d="M89.7,332.4C89.7,332.4,89.7,332.4,89.7,332.4c0-0.1,0-0.1,0-0.1c0,0,0-0.1,0-0.1c0,0,0,0,0,0
						c-0.2-0.7-2.6-1.8-5.8-2.9c-0.1,0-0.3-0.1-0.4-0.1c-0.5-1.3-2.5-6-2.6-6.1c-0.1-0.3-0.7-0.5-0.8-0.2c0,0.1-0.1,0.3-0.1,0.5
						c-0.1,0.9-0.4,2.5-0.5,3.5l0,0.2c0,0,0,0,0,0l0.1,0.6c-0.3-0.1-0.6-0.2-0.8-0.3c-1.4-0.5-2.6-0.9-3.6-1.2l-0.2-0.1l0,0
						l-0.1-0.3l-0.3-1c0,0-0.1-0.1-0.1-0.1l-1.1-0.4l-0.1,0c-0.1,0-0.1,0-0.1,0l0,0c0,0,0,0,0,0l-0.1,1.4l0,0c-0.3,0-0.5-0.1-0.6,0
						c0,0,0,0,0,0c0,0,0,0,0,0c0,0,0,0-0.1,0c-0.1,0-0.1,0.1-0.1,0.1c0,0,0,0,0,0c0,0,0,0,0,0c0,0,0,0.1,0,0.2c0,0,0,0,0,0
						c0,0,0,0,0,0c0,0.1,0.2,0.2,0.3,0.3c0.1,0,0.1,0.1,0.2,0.2l0,0l-0.8,1.1c0,0,0,0,0,0l0,0c0,0,0,0.1,0.1,0.1l0.1,0l1.1,0.4
						c0.1,0,0.1,0,0.2,0l0.9-0.5l0.3-0.2l0,0l0.2,0.1c0.1,0,0.2,0.1,0.3,0.1c0.2,0.1,0.3,0.1,0.5,0.2c0.8,0.3,1.7,0.7,2.8,1.2
						c0.2,0.1,0.5,0.2,0.7,0.3l-0.4,0.4c0,0,0,0,0,0l-0.2,0.2c-0.6,0.9-1.5,2.2-2,3c-0.1,0.2-0.2,0.4-0.3,0.5
						c-0.2,0.3,0.4,0.5,0.7,0.4c0.1,0,4.7-2.3,6-2.9c0.1,0,0.1,0.1,0.2,0.1c3.3,1.3,5.8,2.1,6.5,1.7c0,0,0,0,0,0c0,0,0.1,0,0.1-0.1
						C89.6,332.5,89.7,332.4,89.7,332.4C89.7,332.4,89.7,332.4,89.7,332.4C89.7,332.4,89.7,332.4,89.7,332.4
						C89.7,332.4,89.7,332.4,89.7,332.4"/>
				</g>
			</g>
			<path class="st48" d="M48.5,225.8l11.9,20.2c0.4,0.7,0.1,1.7-0.6,2c-0.7,0.3-1.5,0.1-1.9-0.6l-11.9-20.2
				c-0.3-0.6-0.2-1.3,0.3-1.8l0,0C46.9,224.9,48,225,48.5,225.8"/>
			<g class="st77">
				<defs>
					<path id="SVGID_97_" d="M11.6,268.7l32.6,66.8l52.2-25.4l-32.6-66.8c-0.2-0.3-1.5-0.1-3.6,0.7
						C48.3,248.1,10.7,266.8,11.6,268.7"/>
				</defs>
				<clipPath id="SVGID_98_">
					<use xlink:href="#SVGID_97_"  style="overflow:visible;"/>
				</clipPath>
				
					<linearGradient id="SVGID_99_" gradientUnits="userSpaceOnUse" x1="-139.727" y1="893.6675" x2="-139.0696" y2="893.6675" gradientTransform="matrix(95.4617 -33.2463 -33.2463 -95.4617 43072.25 80965.7656)">
					<stop  offset="0" style="stop-color:#8E1D6B"/>
					<stop  offset="0.3703" style="stop-color:#901F6D"/>
					<stop  offset="0.5604" style="stop-color:#972775"/>
					<stop  offset="0.7094" style="stop-color:#A43481"/>
					<stop  offset="0.8371" style="stop-color:#B64794"/>
					<stop  offset="0.9502" style="stop-color:#CC60AB"/>
					<stop  offset="1" style="stop-color:#D96DB8"/>
				</linearGradient>
				<polygon class="st78" points="8.9,261.8 71.9,239.9 98.7,316.8 35.7,338.7 				"/>
				<path class="st79" d="M42.9,266.7c-7.1,3.4-10,12-6.6,19.1c3.4,7.1,12,10,19.1,6.6c7.1-3.4,10-12,6.6-19.1
					C58.6,266.2,50,263.3,42.9,266.7 M60.2,274.2c0.1,0.3-0.5,1.3-2.1,2.7c-0.2-0.5-0.3-0.9-0.6-1.4c-0.2-0.5-0.5-0.9-0.7-1.3
					C58.8,273.8,59.9,273.9,60.2,274.2C60.2,274.2,60.2,274.2,60.2,274.2 M54.5,290.5L54.5,290.5c-0.3,0.1-1.3-0.5-2.7-2.1
					c0.5-0.2,0.9-0.3,1.4-0.6c0.5-0.2,0.9-0.5,1.3-0.7C54.9,289.1,54.8,290.3,54.5,290.5 M52.4,286.1c-0.6,0.3-1.2,0.5-1.8,0.7
					c-0.5-0.6-1-1.4-1.5-2.2c0.8-0.3,1.5-0.6,2.1-1s1.3-0.7,2-1.1c0.3,0.9,0.6,1.7,0.8,2.5C53.5,285.4,53,285.8,52.4,286.1
					 M50.3,281.8c-0.8,0.4-1.5,0.7-2.2,1c-0.4-0.7-0.8-1.4-1.1-2.2c-0.4-0.8-0.7-1.5-1-2.2c0.7-0.4,1.4-0.8,2.2-1.1
					c0.8-0.4,1.5-0.7,2.2-1c0.4,0.7,0.8,1.4,1.1,2.2c0.4,0.8,0.7,1.5,1,2.2C51.8,281.1,51.1,281.4,50.3,281.8 M38.2,284.9
					C38.2,284.9,38.2,284.9,38.2,284.9c-0.1-0.3,0.5-1.3,2.1-2.7c0.2,0.5,0.3,0.9,0.6,1.4c0.2,0.5,0.5,0.9,0.7,1.3
					C39.6,285.3,38.4,285.2,38.2,284.9 M42.7,282.7c-0.3-0.6-0.5-1.2-0.7-1.8c0.6-0.5,1.4-1,2.2-1.5c0.3,0.8,0.7,1.5,1,2.1
					c0.3,0.6,0.7,1.3,1.1,2c-0.9,0.3-1.7,0.6-2.5,0.8C43.3,283.9,43,283.3,42.7,282.7 M43.8,268.6L43.8,268.6
					c0.3-0.1,1.3,0.5,2.7,2.1c-0.5,0.2-0.9,0.3-1.4,0.6c-0.5,0.2-0.9,0.5-1.3,0.7C43.4,270,43.5,268.8,43.8,268.6 M46,273
					c0.6-0.3,1.2-0.5,1.8-0.7c0.5,0.6,1,1.4,1.5,2.2c-0.8,0.3-1.5,0.6-2.1,1c-0.6,0.3-1.3,0.7-2,1.1c-0.3-0.9-0.6-1.7-0.8-2.5
					C44.8,273.7,45.4,273.3,46,273 M52.2,275.5c0.9-0.3,1.7-0.6,2.5-0.8c0.3,0.5,0.7,1.1,1,1.7c0.3,0.6,0.5,1.2,0.7,1.8
					c-0.6,0.5-1.4,1-2.2,1.5c-0.3-0.8-0.6-1.5-1-2.1C53,276.9,52.6,276.2,52.2,275.5 M55.6,272.3c-0.3-0.4-0.6-0.8-0.9-1.1
					c1.1,0.1,2.1,0.4,2.9,0.8C57.1,272.1,56.4,272.2,55.6,272.3 M53.5,272.9c-0.8,0.2-1.6,0.5-2.3,0.8c-0.4-0.7-0.9-1.4-1.3-2
					c0.7-0.2,1.5-0.3,2.2-0.4C52.5,271.8,53,272.3,53.5,272.9 M48.5,269.9c-0.5-0.6-0.9-1.1-1.4-1.6c0.9,0.2,1.9,0.6,2.8,1.2
					C49.5,269.6,49,269.8,48.5,269.9 M41.6,271c0.1,0.7,0.2,1.4,0.4,2.1c-0.4,0.3-0.8,0.6-1.1,0.9C41,272.8,41.2,271.9,41.6,271
					 M42.6,275.2c0.2,0.8,0.5,1.6,0.8,2.3c-0.7,0.4-1.4,0.9-2,1.3c-0.2-0.7-0.3-1.5-0.4-2.2C41.4,276.2,42,275.7,42.6,275.2
					 M39.5,280.2c-0.6,0.5-1.1,0.9-1.6,1.4c0.2-0.9,0.6-1.9,1.2-2.8C39.3,279.3,39.4,279.7,39.5,280.2 M42.7,286.8
					c0.3,0.4,0.6,0.8,0.9,1.1c-1.1-0.1-2.1-0.4-2.9-0.8C41.3,287,42,286.9,42.7,286.8 M44.9,286.2c0.8-0.2,1.6-0.5,2.3-0.8
					c0.4,0.7,0.9,1.4,1.3,2c-0.7,0.2-1.5,0.3-2.2,0.4C45.8,287.3,45.3,286.8,44.9,286.2 M49.8,289.2c0.5,0.6,0.9,1.1,1.4,1.6
					c-0.9-0.2-1.9-0.6-2.8-1.2C48.9,289.5,49.4,289.3,49.8,289.2 M56.7,288.1c-0.1-0.7-0.2-1.4-0.4-2.1c0.4-0.3,0.8-0.6,1.1-0.9
					C57.4,286.3,57.1,287.2,56.7,288.1 M55.8,283.9c-0.2-0.8-0.5-1.6-0.8-2.3c0.7-0.4,1.4-0.9,2-1.3c0.2,0.7,0.3,1.5,0.4,2.2
					C57,282.9,56.4,283.4,55.8,283.9 M58.8,278.9c0.6-0.5,1.1-0.9,1.6-1.4c-0.2,0.9-0.6,1.9-1.2,2.8C59.1,279.8,59,279.4,58.8,278.9
					 M55.7,269.2c-0.9-0.1-1.9-0.2-2.9-0.1c-0.8-0.7-1.6-1.2-2.4-1.7C52.3,267.6,54.1,268.3,55.7,269.2 M38.9,273.1
					c-0.1,0.9-0.2,1.9-0.1,2.9c-0.7,0.8-1.2,1.6-1.7,2.4C37.3,276.4,37.9,274.7,38.9,273.1 M42.7,289.9c0.9,0.1,1.9,0.2,2.9,0.1
					c0.8,0.7,1.6,1.2,2.4,1.7C46.1,291.5,44.3,290.9,42.7,289.9 M59.5,286c0.1-0.9,0.2-1.9,0.1-2.9c0.7-0.8,1.2-1.5,1.7-2.4
					C61.1,282.7,60.5,284.4,59.5,286"/>
				<path class="st79" d="M71.6,292.2L45,304.1c-0.4,0.2-0.6,0.7-0.3,1l0.1,0.2c0.2,0.3,0.6,0.5,1,0.3l26.5-12.1
					c0.4-0.2,0.5-0.6,0.4-1l0,0C72.4,292.2,72,292,71.6,292.2z"/>
				<path class="st79" d="M73.5,295.5l-26.6,11.9c-0.4,0.2-0.6,0.7-0.3,1l0.1,0.2c0.2,0.3,0.6,0.5,1,0.3l26.5-12.1
					c0.4-0.2,0.5-0.6,0.4-1l0,0C74.3,295.5,73.9,295.3,73.5,295.5z"/>
			</g>
			<path class="st80" d="M88.4,282.9l10.9-3.6l-1-7.1c-1.3,0.3-2.5,0.6-3.8,0.9c-1.9-1.2-17.1-10.9-21.1-6.3
				c-4.3,5,6.4,10.6,6.4,10.6L88.4,282.9z"/>
		</g>
	</g>
	<path class="st81" d="M301.7,273c-1.8,1.6-7.7,6.8-14.1,11.4c-4.7,3.4-9.6,6.4-13.1,8c2,1.3,3.7,2,4.6,1.7
		c-3.6,9.8-3.5,72.2-3.5,72.2s-2.3,4.4-2.6,6.8c-1.1,7.4-0.7,25.8,3.8,25.6c3.9-0.2,4.3-18.2,4.3-18.2s-0.3,15,2.7,14.8
		c3.9-0.3,4.3-11.7,4.3-14.2c0,2.6,0.2,14.5,4.1,13.4c4.1-1.1,1.5-12.9,1.2-14.3c0.3,1.4,3.5,14.3,7,11.7c3.7-2.7-1.2-15.6-1.2-15.6
		C301,359.9,313.8,293.8,301.7,273z"/>
</g>
</svg>
