<?xml version="1.0" encoding="utf-8"?>
<!-- Generator: Adobe Illustrator 22.0.1, SVG Export Plug-In . SVG Version: 6.00 Build 0)  -->
<svg version="1.1" xmlns="http://www.w3.org/2000/svg" xmlns:xlink="http://www.w3.org/1999/xlink" x="0px" y="0px"
	 viewBox="0 0 510 660" style="enable-background:new 0 0 510 660;" xml:space="preserve">
<style type="text/css">
	.st0{fill:url(#SVGID_1_);}
	.st1{fill:#3A5E38;}
	.st2{fill:#FFDABD;}
	.st3{fill:#DEDDD7;}
	.st4{fill:#473E35;}
	.st5{fill:#F7C6A1;}
	.st6{fill:url(#SVGID_2_);}
	.st7{fill:url(#SVGID_3_);}
	.st8{fill:url(#SVGID_4_);}
	.st9{fill:#FFBE99;}
	.st10{fill:#FDA671;}
	.st11{fill:url(#SVGID_5_);}
	.st12{fill:#5B2073;}
	.st13{fill:none;stroke:#000000;stroke-width:0.25;stroke-miterlimit:10;}
	.st14{fill:#FECDA4;}
	.st15{fill:url(#SVGID_6_);}
	.st16{fill:url(#SVGID_7_);}
	.st17{fill:url(#SVGID_8_);}
	.st18{fill:url(#SVGID_9_);}
	.st19{fill:url(#SVGID_10_);}
	.st20{fill:url(#SVGID_11_);}
	.st21{fill:url(#SVGID_12_);}
	.st22{fill:url(#SVGID_13_);}
	.st23{fill:#C1472F;}
	.st24{fill:url(#SVGID_14_);}
	.st25{fill:url(#SVGID_15_);}
	.st26{opacity:0.7;fill:url(#SVGID_16_);}
	.st27{opacity:0.7;fill:url(#SVGID_17_);}
	.st28{fill:url(#SVGID_18_);}
	.st29{fill:url(#SVGID_19_);}
	.st30{fill:url(#SVGID_20_);}
	.st31{fill:url(#SVGID_21_);}
	.st32{fill:url(#SVGID_22_);}
	.st33{fill:url(#SVGID_23_);}
	.st34{fill:url(#SVGID_24_);}
	.st35{fill:url(#SVGID_25_);}
	.st36{fill:#7E0058;}
	.st37{fill:#756D67;}
	.st38{fill:#490058;}
	.st39{fill:url(#SVGID_26_);}
	.st40{fill:url(#SVGID_27_);}
	.st41{fill:url(#SVGID_28_);}
	.st42{fill:url(#SVGID_29_);}
	.st43{fill:url(#SVGID_30_);}
	.st44{fill:url(#SVGID_31_);}
	.st45{fill:#00A680;}
	.st46{font-family:'Nobile-Italic';}
	.st47{font-size:16.2717px;}
	.st48{font-size:12.6252px;}
	.st49{fill:#8F8B77;}
</style>
<g id="Layer_2">
	
		<radialGradient id="SVGID_1_" cx="268" cy="47.7205" r="164.9228" gradientTransform="matrix(1 0 0 -1 0 662)" gradientUnits="userSpaceOnUse">
		<stop  offset="0" style="stop-color:#A8A59C"/>
		<stop  offset="1" style="stop-color:#C5C2B7"/>
	</radialGradient>
	<ellipse class="st0" cx="268" cy="614.3" rx="229" ry="44.3"/>
</g>
<g id="Layer_1">
	<g>
		<g>
			<g>
				<g>
					<g>
						<path class="st1" d="M337,594.8c0,0,0.1,0.1,0,0.1c0,0-0.1,0-0.1,0c0,0-0.1,0-0.1,0c-0.1,0-0.1,0-0.2,0c0,0-0.1,0-0.1,0
							c0,0,0,0-0.1-0.1c0,0-0.1-0.1-0.1-0.2c0-0.1,0-0.2,0-0.3c0,0,0.1-0.1,0.1-0.1c0.1,0,0.1-0.1,0.1-0.1c0.2,0,0.2,0,0.3,0l0.3,0
							l0,0.2c0,0.2,0,0.3-0.1,0.4C337.1,594.8,337.1,594.8,337,594.8c0,0-0.1-0.1-0.2-0.2c-0.1-0.1-0.2,0-0.2-0.1L337,594.8
							c-0.1,0-0.2,0.1-0.2,0.1c0,0,0,0,0-0.1c0-0.1,0-0.1-0.1-0.1c0-0.1-0.1-0.1-0.1-0.1c0.1,0,0.2-0.3,0.2-0.2c0,0,0.1,0.1,0.1,0.1
							c0,0,0,0,0,0.1c0,0,0,0,0,0.1C337,594.7,337,594.7,337,594.8z"/>
					</g>
				</g>
			</g>
		</g>
		<g>
			<path class="st2" d="M351.9,385.1l-26.2-2.8c-12.5,76.5,9.5,205.4,11.3,212.2c2.7-0.4,21.3,0.6,27,0.3
				C346.5,533.4,346.9,411.4,351.9,385.1z"/>
		</g>
	</g>
	<g>
		<g>
			<path class="st2" d="M400.7,385.1l-36.7,0c5.6,94.7,32.6,204.8,34.4,211.6c2.7-0.4,16.7-1.6,22.3-1.9
				C414.1,533.9,395.7,411.4,400.7,385.1z"/>
		</g>
	</g>
	<g>
		<path class="st3" d="M363.3,585c-13.1-0.8-16.6-1.1-29.5,1.6c-0.1,0.5,0.9,20.4,0.9,20.4c-10.8,3.2-21.4,7-31.8,11.3
			c-5.7,2.4-12,5.8-13.3,11.8c25.7,4.1,51.3-1.3,79.6-5.5C370.9,618.1,363.5,590.6,363.3,585z"/>
	</g>
	<g>
		<g>
			<g>
				<g>
					<path class="st4" d="M349.9,599.7c0.1,0.3-2.9,1.6-6.8,1.6c-4,0-7-1.3-6.8-1.6c0.1-0.4,3.1,0.2,6.8,0.2
						C346.8,599.9,349.8,599.3,349.9,599.7z"/>
				</g>
			</g>
		</g>
	</g>
	<g>
		<g>
			<g>
				<g>
					<path class="st4" d="M352.3,605.6c0.1,0.3-3.4,1.6-8,1.3c-4.5-0.2-7.9-1.9-7.8-2.2c0.1-0.4,3.5,0.6,7.9,0.8
						C348.7,605.8,352.2,605.2,352.3,605.6z"/>
				</g>
			</g>
		</g>
	</g>
	<g>
		<g>
			<g>
				<g>
					<path class="st4" d="M346.4,613.9c-0.1,0.4-3,0.1-6.4-1.2c-3.4-1.3-5.7-3-5.6-3.3c0.2-0.3,2.8,0.8,6,2
						C343.7,612.7,346.4,613.6,346.4,613.9z"/>
				</g>
			</g>
		</g>
	</g>
	<path class="st3" d="M393.9,613.9l2-22.7c0,0,16.8-0.5,25.2-3.7l2.3,38c0,0-59.1,32.9-67.6,27.2
		C347.4,647.1,393.9,613.9,393.9,613.9z"/>
	<g>
		<g>
			<g>
				<g>
					<path class="st4" d="M415.9,598.8c0.1,0.2-0.9,0.7-2.4,1.4c-1.6,0.7-3.8,1.5-6.5,1.9c-2.6,0.4-5.1,0.2-6.8-0.3
						c-1.7-0.5-2.6-1.2-2.5-1.3c0.1-0.2,1.1,0.1,2.7,0.4c1.6,0.2,3.9,0.3,6.4-0.1c2.5-0.4,4.7-1.1,6.4-1.5
						C414.7,598.8,415.8,598.6,415.9,598.8z"/>
				</g>
			</g>
		</g>
	</g>
	<g>
		<g>
			<g>
				<g>
					<path class="st4" d="M416.7,606.3c0.1,0.3-3.8,1.9-9,2.2c-1.3,0.1-2.5,0-3.6,0c-1.1-0.1-2.2-0.3-3-0.6
						c-0.8-0.3-1.4-0.8-1.7-1.2c-0.3-0.4-0.4-0.7-0.3-0.7c0.2-0.1,0.9,0.6,2.4,1c1.5,0.4,3.8,0.3,6.2,0.2
						C412.6,606.9,416.6,606,416.7,606.3z"/>
				</g>
			</g>
		</g>
	</g>
	<g>
		<g>
			<g>
				<g>
					<path class="st4" d="M416.2,615c0.1,0.2-0.9,0.8-2.6,1.3c-1.7,0.5-4.2,0.8-7,0.5c-2.7-0.4-5.1-1.3-6.6-2.2
						c-1.5-0.9-2.3-1.7-2.2-1.9c0.2-0.4,3.9,2.1,9,2.7C412,616,416.1,614.6,416.2,615z"/>
				</g>
			</g>
		</g>
	</g>
	<g>
		<g>
			<path class="st5" d="M350.1,520.5c-7.2-56.7-9.5-117.7-6.2-135.4l-30.9-2.8c-2.1,12.6-2.8,26.6-2.7,41.3
				c17,21,25.7,48.7,33.5,75.1C346,505.9,348.1,513.2,350.1,520.5z"/>
		</g>
	</g>
	<g>
		<g>
			<path class="st5" d="M416,555c-8-63.7-19.4-148.5-15.3-169.9h-36.7c0.9,15.9,2.5,32.3,4.4,48.6c5.7,6.7,9.8,15.1,13.4,23.2
				C395.9,488.4,409.2,521.3,416,555z"/>
		</g>
	</g>
	<g>
		<g>
			<linearGradient id="SVGID_2_" gradientUnits="userSpaceOnUse" x1="6.142" y1="91.3228" x2="74.9386" y2="91.3228">
				<stop  offset="0" style="stop-color:#FFC056"/>
				<stop  offset="0.5892" style="stop-color:#E0981F"/>
			</linearGradient>
			<path class="st6" d="M35,46.8c-4.1,1.3-8.4,3-10.8,6.5c-3.3,4.8-2.2,11.3-0.3,16.8c1.9,5.5,4.4,11.2,3.5,16.9
				c-1.1,7.2-7.3,12.4-12.5,17.5c-5.2,5.1-10.2,12.1-8.2,19.2c0.7,2.5,2.2,4.6,3.9,6.5c6.5,7.2,16,11.2,25.6,12.9
				c9.6,1.6,19.4,1.1,29.1,0.6l9.7-105.2C61.4,39.7,47.9,42.5,35,46.8z"/>
		</g>
		<g>
			<g>
				<linearGradient id="SVGID_3_" gradientUnits="userSpaceOnUse" x1="38.6884" y1="91.3175" x2="74.9386" y2="91.3175">
					<stop  offset="0" style="stop-color:#7E0058"/>
					<stop  offset="1" style="stop-color:#B80080"/>
				</linearGradient>
				<path class="st7" d="M65.3,143.7l9.7-105.2c-5.1,0.5-10.2,1.2-15.2,2.1C49.2,56.1,42.3,74,39.9,92.5c-1,7.6-1.2,15.3-1.2,23
					c0,9.3,0.5,19,2.2,28.2C48.9,144.5,57.1,144.1,65.3,143.7z"/>
			</g>
		</g>
		<g>
			<linearGradient id="SVGID_4_" gradientUnits="userSpaceOnUse" x1="46.7011" y1="89.0822" x2="172.6451" y2="89.0822">
				<stop  offset="0" style="stop-color:#FFC056"/>
				<stop  offset="1" style="stop-color:#F5A622"/>
			</linearGradient>
			<path class="st8" d="M84.2,174.5c-6.8-0.5-13.8-2.4-19-7c-7.5-6.7-17-19.2-17.9-29.3c-3.2-34.9,6-77.6,24-100.7
				c18-23.1,30.4-28,40.9-30.8c9-2.4,18.5-3.9,27.8-2.7c9.3,1.2,18.4,5.4,24.3,12.7c3.9,4.9,6.2,10.8,7.4,17
				c0.9,4.5,1.2,9.2,0.8,13.7c-0.6,6.2-2.5,12.2-4.6,18.1c-11.9,32.6-30.8,62.3-53.7,88.4C106.7,162.5,97.6,174.5,84.2,174.5"/>
		</g>
		<polygon class="st9" points="113.2,178.8 116.5,211.4 144.2,252.4 155.6,226.3 147.9,168.8 		"/>
		<g>
			<path class="st10" d="M141.5,211c-6.4-8.4-8.5-19.8-5.7-30c0.2-0.7,0.4-1.5,0.9-2.1c0.7-1,1.8-1.7,2.8-2.3
				c2.9-1.7,5.8-3.4,8.8-5.1l-0.4-2.7l-34.7,10l3.3,32.6l27.7,41l11.5-26.1l-0.5-4C149.9,219.4,145.1,215.8,141.5,211z"/>
		</g>
		<g>
			<linearGradient id="SVGID_5_" gradientUnits="userSpaceOnUse" x1="60.7638" y1="100.781" x2="187.3487" y2="100.781">
				<stop  offset="0" style="stop-color:#6446BD"/>
				<stop  offset="1" style="stop-color:#231C47"/>
			</linearGradient>
			<path class="st11" d="M174,60.4c0,0,2.4-3.8,4-12.3c0.6-3.1,1-6.3,0.1-9.3c-0.9-3-3.3-5.8-6.4-6.2c-2.9-0.4-5.7,1.2-8.2,2.8
				c0.5-5.4,0.6-11.8-3.7-15c-2.8-2.1-6.6-2.1-10-1.5c-6.1,1.1-11.8,4-16.2,8.2c2.2-3.5-0.6-8.5-4.6-9.8c-3.9-1.4-8.3-0.1-12.1,1.5
				c-16.3,6.7-29.6,19.7-38.5,35c-8.9,15.2-13.7,32.6-16.1,50.1c-1.7,12.4-2.2,25-0.5,37.4c1.1,8.1,10.7,23.2,23.1,33.5
				c12.4,10.3,30.3,11,46.3,9.9c8.4-0.6,17.1-1.2,25.1-4.1c17.2-6.2,29.8-23.3,31-41.5c-0.1-0.9-0.1-1.7-0.1-2.6
				C187.3,117.4,174.1,62.2,174,60.4C173.9,60.4,174,60.4,174,60.4z"/>
		</g>
		<g>
			<g>
				<path class="st2" d="M158.5,47.8c-4,0.4-15.4,5-23.3,6.3c-7.9,1.2-17.2-9.1-28.6,0c-11.4,9.1-30.7,31.2-31.6,65.5
					s35.7,34.6,49.5,18.9s36.3-21.6,52.1-9.2c4.6,3.6,8.1,6.8,10.8,9.7c0.1-0.9,0-2.7,0-3.6c0.1-19-11-73.8-13.4-75
					C174,60.4,162.5,47.4,158.5,47.8z"/>
			</g>
		</g>
		<g>
			<g>
				<path class="st5" d="M137.5,123.4c-4.5,0.5-8.9,1.5-13.4,1.9c-5.9,0.5-12-0.2-17.6-2.1c-6.2-2-12.2-5.7-15.3-11.4
					c-1.3-2.4-2-5.1-2.4-7.8c-1.5-9.5,0.5-19.4,4.8-28.1c5.3-10.8,15.3-19.1,24.6-25.5c-3.6-0.3-7.4,0.4-11.6,3.7
					c-11.4,9.1-30.7,31.2-31.6,65.5s35.7,34.6,49.5,18.9c6.7-7.6,15.4-12.9,24.4-14.9C145.1,123,141.3,123,137.5,123.4z"/>
			</g>
		</g>
		<g>
			<g>
				<g>
					<g>
						<path class="st12" d="M156.4,180.4c0,0-0.4,0.2-1.1,0.5c-0.7,0.3-1.8,0.7-3.2,1.1c-2.8,0.8-7,1.7-12.2,2.3
							c-5.2,0.6-11.4,1.1-18.4,1.2c-6.9,0.1-14.7-0.4-22.4-2.7c-3.9-1.2-7.5-2.8-10.7-4.8c-3.2-2.1-6-4.5-8.5-6.9
							c-4.9-4.9-8.8-9.9-11.6-14.3c-1.4-2.2-2.6-4.3-3.5-6.2c-0.9-1.9-1.6-3.5-2.1-4.9c-0.2-0.7-0.4-1.3-0.6-1.9
							c-0.1-0.6-0.3-1-0.3-1.4c-0.1-0.8-0.1-1.2-0.1-1.2c0.1,0,0.4,1.6,1.4,4.3c0.5,1.4,1.3,3,2.2,4.8c1,1.8,2.2,3.8,3.6,6
							c2.9,4.3,6.8,9.2,11.7,13.9c2.5,2.4,5.2,4.8,8.3,6.7c3.1,2,6.7,3.5,10.4,4.7c7.5,2.3,15.2,2.8,22,2.8c6.9,0,13.1-0.5,18.3-0.9
							c5.2-0.5,9.3-1.2,12.2-1.9C154.8,180.8,156.3,180.3,156.4,180.4z"/>
					</g>
				</g>
			</g>
		</g>
	</g>
	<path class="st13" d="M192.4,141.6"/>
	<g>
		<path class="st2" d="M93.3,436.4c0,0-7,158.8-4.3,163.6c2.7,4.8,67.8,49.5,81.3,46.8c13.5-2.7,19.4-4.8,19.4-11.8
			c0-7-60.8-47.9-60.8-47.9l5.6-155L93.3,436.4z"/>
		<path class="st4" d="M189.7,635c-0.7-0.1-1.3,1.5-2.8,3.7c-1.6,2.2-4.3,5-8.7,6.5c-4.3,1.6-9.7,1.4-16-0.7
			c-3.9-1.3-7.9-3.3-12-5.7c0.7-0.5,1.4-1,2.2-1.7c3-2.2,6.9-6.1,10.9-8.2c4.1-2.1,8.9-2.7,12.6-3.2c3.7-0.5,6.3-0.9,6.5-2.2
			c0.3-1.2-1.9-2.9-6-4.1c-4-1.1-10.5-1.8-17.2,1.5c-3.3,1.7-5.7,4-7.5,6.1c-1.8,2.1-3.2,4.2-4.2,6c-0.6,1.1-1,2.2-1.4,3.1
			c-1-0.7-2-1.3-3-2c-5.1-3.4-10.1-6.6-14.8-9.6c0.6-0.5,1.3-1,2-1.5c3.1-2.3,7.7-5,13.5-7.2c5.9-2.3,11-4,14.7-4.4
			c3.7-0.6,6.3-0.1,7-1.2c0.7-0.9-1.4-3.9-6.5-5.1c-5.1-1.3-12-0.2-18.5,2.4c-6.7,2.6-12.2,7-14.9,11.3c-0.7,1.1-1.2,2.1-1.6,3.1
			c-5.7-3.5-10.9-6.6-15.5-9.2c1.1-0.4,2.4-1,4-1.7c4.1-1.8,9.4-5.3,14.9-7.7c5.4-2.5,10.8-3,15.3-3.6c4.4-0.5,7.3-1.3,7.4-2.5
			c0.1-1.2-2.5-2.7-7.1-3.7c-2.3-0.5-5.2-0.9-8.5-0.8c-3.3,0.1-7.2,0.9-10.7,2.5c-3.5,1.6-6.4,3.5-8.9,5.4c-2.4,1.9-4.4,3.7-6.1,5.3
			c-0.7,0.7-1.2,1.3-1.7,1.9c-0.9-3.9-2-7.5-3.2-10.8c-1.5-4.1-3.5-7.6-5.6-10.3c3.3,1,7.2,1.7,11.3,1.8c6.9,0.2,13.2-1.3,17.3-3.2
			c4.1-1.9,6.2-4,5.8-5.1c-1-2.3-10.9-0.1-22.8-0.6c-11.9-0.2-21.7-2.9-22.8-0.7c-0.2,0.4,0,0.9,0.3,1.4c-1.1,1.3-2.3,5-3.6,10.4
			c-0.4,1.7-0.8,3.6-1.2,5.7c-0.2,1.1-0.4,2.4-0.2,4.2c0.1,0.9,0.4,1.9,0.9,2.9c0.5,1,1.3,1.9,2,2.5c1.4,1.3,2.3,1.7,3.4,2.4
			c1.1,0.7,2.2,1.3,3.3,2c2.3,1.3,4.6,2.7,7,4c0.8,0.5,1.7,0.9,2.5,1.4l2.5,1.4c8.5,6.6,20.5,15.1,34.1,24.1
			c6.9,4.8,14.3,8.8,21.8,10.7c3.7,1,7.4,1.5,11.1,1.3c3.6-0.2,7-1.2,9.7-2.7c5.6-2.9,8.3-7.6,9.2-10.8
			C190.8,636.8,190.2,635,189.7,635z"/>
		<g>
			<path class="st14" d="M104.8,471.4c4.9,7.1,6.6,15.8,8.1,24.3c3.9,21.1,7.9,42.2,11.8,63.3c1,5.2,2.1,10.7,4.5,15.3l5.1-142.2
				l-41.1,4.3c0,0-0.4,10.2-1.1,25.5C97.2,463.4,101.8,467,104.8,471.4z"/>
		</g>
	</g>
	<g>
		<path class="st2" d="M143.9,425c0,0-7.3,167.3-3.4,170c3.9,2.8,77.7,17.3,85.2,13.5c7.5-3.8-12.1-21.5-43.2-30.1l4.4-162
			L143.9,425z"/>
		<path class="st4" d="M213.3,607.6c-0.3,0-0.7-0.1-1-0.2c0.5-1.7,1-3.6,1.6-5.5c0.6-2.1,1.3-4.2,2.1-6.9c0.4-1.7,1-3.1,0.6-4.3
			c-0.3-1.1-2.6-1.6-5.3,0c-2.6,1.7-4.8,4.7-6,8.6c-0.7,2.4-0.9,4.7-0.7,6.7c-3-0.6-6.4-1.4-9.9-2.2c0.9-2,2-4.3,3.4-6.8
			c1.7-2.8,3.6-5,5.1-6.9c1.5-1.8,2.7-3.3,2.3-4.5c-0.3-1.1-2.4-1.8-5.5-0.9c-3.1,0.8-6.9,3.5-9.5,7.6c-2,3.3-2.8,6.9-2.7,9.8
			c-1.4-0.3-2.9-0.7-4.4-1c-5.1-1.1-10-2.2-14.6-3.1c2.3-1.9,5.2-4,8.8-6c2.3-1.4,4.6-2.7,6.8-4c2.2-1.3,4-2.5,5.4-3.4
			c2.7-1.8,4.7-2.2,5.2-3.4c0.2-0.6-0.3-1.4-1.5-2c-1.2-0.6-3.3-0.9-5.5-0.6c-2.3,0.3-4.7,1.1-7,2c-2.4,0.9-5.1,2.1-7.8,3.7
			c-4.1,2.4-7.5,5.6-9.7,8.8c-1.9-3.7-4.4-6.8-7.1-9c-2.2-1.9-4.5-3.2-6.6-4.2c3.9,0.5,8.3,0.6,12.8,0.2c3.6-0.3,6.9-0.7,10.2-1.3
			c3.2-0.7,6.2-1.7,8.5-3.1c2.3-1.4,3.9-3,4.7-4.3c0.8-1.3,0.8-2.3,0.4-2.7c-1-0.8-3.4,0.5-7.4,1.2c-4,0.8-10,0.8-17.1,1.4
			c-6.9,0.6-12.9,1-17.3,1c-4.4,0.1-7.4,0-7.8,1.2c-0.4,0.9,1.3,2.6,4.6,4.1c-1.3,0-2.2,0.3-2.4,0.8c-0.1,0.2,0,0.4,0,0.6l0.8,15.8
			c-0.3,1,1.8,2.6,5.4,4.5c3.7,1.9,8.8,4.1,15.4,5.8l6.2,1.6l-0.1-0.9c4.7,1.3,9.7,2.6,15.1,3.8c6,1.3,11.6,2.4,16.9,3.2
			c5.3,0.7,10.3,1.1,14.5,0.8c8.5-0.5,13.2-3.3,12.8-4.4C225.6,608.2,220.7,608.6,213.3,607.6z"/>
		<g>
			<path class="st14" d="M162.1,471.2c5.1,7.3,7.4,16.2,8.9,25.1c1.1,6.7,1.8,13.5,2.1,20.3c0.5,11.5-0.1,23.2,3.2,34.2
				c1.4,4.6,3.7,9,6.7,12.8l4-147.1l-43.1,8.6c0,0-0.6,14.1-1.4,34.1C150.3,459.7,157.5,464.7,162.1,471.2z"/>
		</g>
	</g>
	<g>
		<linearGradient id="SVGID_6_" gradientUnits="userSpaceOnUse" x1="141.1197" y1="380.8083" x2="192.1382" y2="380.8083">
			<stop  offset="0" style="stop-color:#006B53"/>
			<stop  offset="1" style="stop-color:#008A6A"/>
		</linearGradient>
		<path class="st15" d="M150,346.5l-8.9,92.3c0,0,34.1-1.4,51-3.4c-1.3-27.1-1.3-54.2,0-81.3l-25.5-31.2L150,346.5z"/>
		<linearGradient id="SVGID_7_" gradientUnits="userSpaceOnUse" x1="133.7143" y1="435.3312" x2="194.7517" y2="435.3312">
			<stop  offset="0" style="stop-color:#005945"/>
			<stop  offset="0.9946" style="stop-color:#007A5D"/>
		</linearGradient>
		<path class="st16" d="M133.7,431c0,0,56.6-2.7,60.2-3.9l0.8,13c0,0-43.3,6.6-60.4,1.4L133.7,431z"/>
		<linearGradient id="SVGID_8_" gradientUnits="userSpaceOnUse" x1="83.8319" y1="397.5076" x2="191.8042" y2="397.5076">
			<stop  offset="0" style="stop-color:#009674"/>
			<stop  offset="0.2927" style="stop-color:#00A17D"/>
			<stop  offset="0.8106" style="stop-color:#00BF94"/>
			<stop  offset="1" style="stop-color:#00CC9E"/>
		</linearGradient>
		<path class="st17" d="M88.4,357.3c0,0-5.7,84.4-4.3,89.5c1.4,5,62,1.4,64.7,0c2.8-1.4,4.6-50.9,4.6-50.9
			c11.6-0.7,33-24.8,38.5-50.2L88.4,357.3z"/>
		<linearGradient id="SVGID_9_" gradientUnits="userSpaceOnUse" x1="80.8333" y1="445.8605" x2="155.6449" y2="445.8605">
			<stop  offset="0" style="stop-color:#006B53"/>
			<stop  offset="1" style="stop-color:#008A6A"/>
		</linearGradient>
		<path class="st18" d="M80.8,438.8c0,0,70.2,0.9,74.8,0v13.1c0,0-54.2,3.8-74.8-2.5V438.8z"/>
	</g>
	<g>
		<linearGradient id="SVGID_10_" gradientUnits="userSpaceOnUse" x1="62.9339" y1="291.0868" x2="198.8026" y2="291.0868">
			<stop  offset="0" style="stop-color:#FF8A65"/>
			<stop  offset="1" style="stop-color:#F4511E"/>
		</linearGradient>
		<path class="st19" d="M147.9,203.5c0,0,28.2,38.1,39.5,86.7c11.3,48.6,18.5,68.7,0,86.9c0,0-16.1-16.4-17.1-29.5
			c0,0-1.1,30.8-7,35.3c0,0-24.3,6.4-45.1-8.3c-20.9-14.7-41.1-11.5-41.1-11.5s15.2-58.7,16.5-77.1c0,0-23.9,0-30.8-7.3
			c0,0,29.7-65.4,43.6-78.5c10.6-10,35.6,11.8,41.1,27.9C147.6,228.2,146.6,208.9,147.9,203.5z"/>
		<linearGradient id="SVGID_11_" gradientUnits="userSpaceOnUse" x1="79.6925" y1="308.5256" x2="181.8784" y2="308.5256">
			<stop  offset="0" style="stop-color:#E64A19"/>
			<stop  offset="1" style="stop-color:#CF4519"/>
		</linearGradient>
		<path class="st20" d="M121.3,352.1c10.5-3.5,20-11.2,23.2-21.8c2.2-7.2,1.5-15.7,6.3-21.6c3-3.7,7.6-5.6,11.7-8
			c8.4-5,15.2-12.8,19-21.8c0.5-1.2,0.9-2.8,0-3.7c-0.5-0.5-1.2-0.6-1.8-0.8c-5-0.9-10.2-0.1-14.8,2c-5.6,2.6-10.5,7.5-16.7,7.7
			c-6.7,0.3-12.2-4.9-16.6-9.9c-4.4-5.1-9-10.7-15.5-12.1c0,6.1,0,12.1,0.1,18.2c0,1.5,0,3-0.5,4.4c-0.7,1.9-2.3,3.2-3.9,4.4
			c-5.8,4.4-12.5,7.5-19.6,9.4c-3,16.7-8.9,41.2-12.3,54.7c3,0.3,6,0.6,8.8,0.9C99.5,355.3,110.8,355.5,121.3,352.1z"/>
		<g>
			<linearGradient id="SVGID_12_" gradientUnits="userSpaceOnUse" x1="97.4598" y1="210.5146" x2="127.9886" y2="210.5146">
				<stop  offset="0" style="stop-color:#FFAE94"/>
				<stop  offset="1" style="stop-color:#DE3400"/>
			</linearGradient>
			<path class="st21" d="M105.7,192.8c-3.5,4.5-6.2,9.6-7.7,15.1c-0.5,1.6-0.8,3.5-0.2,5c0.5,1.1,1.4,2,2.4,2.8
				c4.8,4.2,9.6,8.4,14.4,12.6c-0.7-4.9-0.4-10,0.9-14.9c0.6-2.3,1.5-4.7,3.1-6.5c1.6-1.8,6.9-3.4,9.3-3.2
				C121.4,199.8,113,195.2,105.7,192.8z"/>
		</g>
		<g>
			<linearGradient id="SVGID_13_" gradientUnits="userSpaceOnUse" x1="147.9389" y1="206.2909" x2="158.4756" y2="206.2909">
				<stop  offset="0" style="stop-color:#FFAE94"/>
				<stop  offset="1" style="stop-color:#DE3400"/>
			</linearGradient>
			<path class="st22" d="M158.1,197.2c-0.4-1.1-1.2-2.1-2.3-2.4c-1.6-0.5-3.2,0.5-4.3,1.7c-2.6,2.7-3.4,4.5-3.6,7
				c3,4,6.2,10.4,7.7,14.3c1.7-4.5,2.7-12.4,2.8-17.2C158.5,199.5,158.5,198.3,158.1,197.2z"/>
		</g>
		<g>
			<path class="st23" d="M166.6,279.4c2.9,11.7,8.8,84-3.3,103.6"/>
		</g>
		<g>
			<path class="st23" d="M144.3,221.5c5.7,11.1,10.4,21.7,11.4,30.9"/>
		</g>
	</g>
	<g>
		<linearGradient id="SVGID_14_" gradientUnits="userSpaceOnUse" x1="305.9098" y1="188.6617" x2="505.2135" y2="188.6617">
			<stop  offset="0" style="stop-color:#B80080"/>
			<stop  offset="1" style="stop-color:#7E0058"/>
		</linearGradient>
		<path class="st24" d="M315.1,45.3c2.8-5.4,6.6-10.5,11.7-13.7c8.8-5.6,41.2-2.1,49.5,12.8c10-3.9,32.4,0.3,42.1,4.8
			c17.7,8.2,33.9,20.5,44.4,36.9c10.5,16.4,14.9,37.2,9.5,55.9c-1.9,6.5-4.8,12.6-6.5,19.1c-5.8,23.1,5.8,46.9,19.4,66.5
			c4.9,7.1,10.1,14,13.6,21.9c2.8,6.3,4.3,13.1,5.3,19.9c1.9,13,1.8,26.6-2.1,39.2c-3.9,12.6-12,24.2-23.5,30.7
			c-6.3,3.6-13.5,5.5-20.6,6.9c-27.5,5.3-58.5,1.6-79.2-17.3c-16.3-15-23.9-37.3-28.2-59c-4.3-21.8-6-44.2-13.6-65.1
			c-4.4-12.1-10.6-23.4-15.5-35.2c-9.4-22.5-14.1-46.8-15.2-71.2C305.3,80.2,306.6,61.3,315.1,45.3z"/>
	</g>
	<g>
		<path class="st2" d="M417.6,136.8c1.4-7.1,0-15-1.5-22.1c-2.2-10.6-4.6-21.3-9.3-31.1c-4.7-9.8-11.9-18.7-21.6-23.5
			c-4.8-2.4-10-3.7-15.3-4.3c-6.7-0.8-13.7-0.6-20,2c-9.2,3.8-15.8,12.1-20.9,20.7c-7.9,13.6-12.9,28.8-14.5,44.4
			c-0.9,8.2-0.8,16.6,1.6,24.5c2.4,7.9,7.4,15.2,14.7,19.1c4.9,2.7,10.5,3.7,16.1,4.4c7.7,1,15.5,1.4,23.3,1.3
			c0.3,3.9,0.6,7.7,0.9,11.6c-9.6,3.9-19.1,7.7-28.7,11.6c5,8.7,12,16.8,21.4,20.3c5.8,2.2,12.2,2.4,18.4,2.4
			c4.1,0,8.2-0.2,12.1-1.4c9.3-3,15.5-11.4,21.1-19.3l-21.3-12.2c0,0,0.3-8.5,0.2-14.1c10.3-0.3,19.8-12.4,19.8-12.4s22.9-0.2,23-14
			C437.1,130.8,422.2,133,417.6,136.8z"/>
	</g>
	<g>
		<g>
			<path class="st5" d="M414.1,158.6c0,0,22.9-0.2,23-14c0.1-13.8-14.9-11.6-19.4-7.8c1.4-7.1,0-15-1.5-22.1
				c-2.2-10.6-4.6-21.3-9.3-31.1c-1.7-3.5-3.7-6.8-6-9.9c1.9,4.2,3.7,8.5,5.6,12.7c2,4.5,4,9.2,4.6,14.1c0.8,7.2-1.6,14.7-6.5,20
				c-4.8,5.3-12.4,9.4-12.6,16.6c-0.1,5.3,4.1,9.7,5.9,14.7c3.1,8.5-2,19.1-10.6,22c-1.8,0.6-3.7,0.9-5.2,2c-4.2,3.2-2.2,9.8-3.1,15
				c-1.3,7.7-9.3,12.2-16.8,14.5c-3.4,1-6.8,1.8-10.3,2.6c3.5,3.4,7.4,6.2,12,7.9c2.3,0.9,4.8,1.4,7.3,1.7c3.7,0.5,7.4,0.7,11.1,0.6
				c4.1,0,8.2-0.2,12.1-1.4c9.3-3,15.5-11.4,21.1-19.3l-0.7-0.4l-20.6-11.8c0,0,0.3-8.5,0.2-14.1
				C404.5,170.7,414.1,158.6,414.1,158.6z"/>
		</g>
	</g>
	<linearGradient id="SVGID_15_" gradientUnits="userSpaceOnUse" x1="365.9731" y1="563.0302" x2="365.9731" y2="321.3313">
		<stop  offset="0" style="stop-color:#FF8A65"/>
		<stop  offset="1" style="stop-color:#F4511E"/>
	</linearGradient>
	<path class="st25" d="M400.9,329.6c0,0-30.5,13.1-71-8.2c0,0-20.1,25.6-24.3,98.1c-4.2,72.5,22.2,141.9,22.2,141.9l38.4-4.6
		c0,0-17.5-101.1-16.6-150.6l7.6,1.9c0,0,16,124,29.5,155l33-1.9c0,0-1.4-130.9,6.2-164.5C433.3,363.1,400.9,329.6,400.9,329.6z"/>
	<g>
		<linearGradient id="SVGID_16_" gradientUnits="userSpaceOnUse" x1="378.713" y1="445.8441" x2="426.8734" y2="445.8441">
			<stop  offset="0" style="stop-color:#E64A19"/>
			<stop  offset="1" style="stop-color:#CF4519"/>
		</linearGradient>
		<path class="st26" d="M380.2,426.6c1.8-16.2,5.7-32.9,16-45.6c2.9,6.7,6.9,12.9,11.7,18.3c5-4.1,5.7-11.6,5.1-18.1
			c-1.7-18.4-10.5-36.1-24-48.7c7.6-1.2,12-3,12-3s32.4,33.5,24.9,67.1c-7.6,33.6-6.2,164.5-6.2,164.5l-17.4,1
			c-3.3-14.2-8.9-27.9-13.3-41.8C379.6,490.1,376.6,458,380.2,426.6z"/>
		<linearGradient id="SVGID_17_" gradientUnits="userSpaceOnUse" x1="331.1728" y1="479.6393" x2="366.1576" y2="479.6393">
			<stop  offset="0" style="stop-color:#E64A19"/>
			<stop  offset="1" style="stop-color:#CF4519"/>
		</linearGradient>
		<path class="st27" d="M352.9,558.3c-2-18-6-36-10.1-54c-7.1-31-19.1-72.4-5.3-103.3c4.8,1.5,9.4,3.2,13.2,5.5l-1.2-0.3
			c-0.9,49.5,16.6,150.6,16.6,150.6L352.9,558.3z"/>
		<linearGradient id="SVGID_18_" gradientUnits="userSpaceOnUse" x1="381.1483" y1="559.988" x2="421.1209" y2="559.988">
			<stop  offset="0" style="stop-color:#E64A19"/>
			<stop  offset="1" style="stop-color:#CF4519"/>
		</linearGradient>
		<path class="st28" d="M381.1,555c0,0,37.5,0.7,40,0v9.2c0,0-28.9,2.7-40-1.7V555z"/>
		<linearGradient id="SVGID_19_" gradientUnits="userSpaceOnUse" x1="322.7672" y1="559.462" x2="367.9994" y2="559.462">
			<stop  offset="0" style="stop-color:#E64A19"/>
			<stop  offset="1" style="stop-color:#CF4519"/>
		</linearGradient>
		<path class="st29" d="M322.8,554.5c0,0,42.8,0.7,45.2,0v9.2c0,0-34.2,2.7-45.2-1.7V554.5z"/>
	</g>
	<linearGradient id="SVGID_20_" gradientUnits="userSpaceOnUse" x1="304.3954" y1="301.8919" x2="440.5056" y2="301.8919">
		<stop  offset="0" style="stop-color:#009674"/>
		<stop  offset="0.2927" style="stop-color:#00A17D"/>
		<stop  offset="0.8106" style="stop-color:#00BF94"/>
		<stop  offset="1" style="stop-color:#00CC9E"/>
	</linearGradient>
	<path class="st30" d="M350.9,188.4c0,0,1.2,18.5,25.5,20.2c24.3,1.7,32.2-17.3,32.2-17.3l9.6,5.1l0.4,51.6l-16,34.6
		c0,0,14,79.2,37.9,120.3c0,0-61.9,28.1-136.1,0c0,0-0.3-80,24-126l5.4-24.2c0,0-8.5-5.2-12.5-15.7
		C317.2,226.4,350.9,188.4,350.9,188.4z"/>
	<g>
		<linearGradient id="SVGID_21_" gradientUnits="userSpaceOnUse" x1="304.3954" y1="306.721" x2="418.6624" y2="306.721">
			<stop  offset="0" style="stop-color:#006B53"/>
			<stop  offset="1" style="stop-color:#008A6A"/>
		</linearGradient>
		<path class="st31" d="M339.4,214c-1.2-2.8-1.9-5.7-2.4-8.7c-8.8,11.5-18,25.8-15.8,31.6c4,10.5,12.5,15.7,12.5,15.7l-5.4,24.2
			c-24.3,46-24,126-24,126c5.3,2,10.6,3.7,15.8,5.2c-0.2-6.5,0.6-13,3.8-18.5c3.1-5.2,8.1-9.1,13.3-12.1c6.9-3.9,14.5-6.7,22.3-8.1
			c10.6-1.9,22.3-1.5,31.2-7.5c7.1-4.8,11.3-13.3,11.2-21.8c-0.1-8.5-4.5-16.8-11.3-21.9c-7.2-5.4-16.8-7.5-22.9-14.1
			c-6.6-7.2-7-19.2-0.9-26.9c3.9-4.9,9.8-7.8,15.8-9.6c8.9-2.7,18.5-3.3,27.7-1.8l8.2-17.7l0-5.9c-13.3-1.7-27-1.1-40.3-3.2
			C362.4,236.4,345.8,228.8,339.4,214z"/>
	</g>
	<g>
		<g>
			<linearGradient id="SVGID_22_" gradientUnits="userSpaceOnUse" x1="330.9301" y1="252.2848" x2="353.1392" y2="252.2848">
				<stop  offset="0" style="stop-color:#211B45"/>
				<stop  offset="1" style="stop-color:#4C358F"/>
			</linearGradient>
			<path class="st32" d="M350.8,315.6c-0.5,0-0.8-1.9-1-5.3c-0.3-3.3-0.4-8.2-1.5-13.8c-1.1-5.6-3.7-11.9-7.2-18.9
				c-3.4-7-7.6-15.3-9.2-24.9c-1.6-9.5-1-18.7,0.6-26.8c1.6-8.1,4.3-14.9,6.8-20.5c5.3-11.1,10-16.9,10.7-16.5
				c0.9,0.5-2.4,7.2-6.3,18.3c-1.9,5.6-4,12.3-5.2,19.8c-1.2,7.5-1.5,16-0.1,24.6c1.4,8.6,5,16.1,8.2,23.5
				c3.2,7.3,5.7,14.5,6.3,20.8c0.6,6.3,0,11.2-0.5,14.6C351.8,313.8,351.3,315.6,350.8,315.6z"/>
		</g>
		<g>
			<linearGradient id="SVGID_23_" gradientUnits="userSpaceOnUse" x1="390.6094" y1="246.7999" x2="415.4197" y2="246.7999">
				<stop  offset="0" style="stop-color:#211B45"/>
				<stop  offset="1" style="stop-color:#4C358F"/>
			</linearGradient>
			<path class="st33" d="M394,310.8c-0.5-0.2,0.1-2.2,0.4-5.7c0.4-3.5,0.3-8.6-0.7-14.9c-0.9-6.3-3-14-3.1-23.1
				c-0.2-9,1.4-18.9,4.3-28.7c2.9-9.8,6.7-18.7,10.2-26.7c1.8-4,3.6-7.6,4.5-10.9c0.9-3.3,0.7-6.4-0.4-8.8c-1-2.3-3.1-3.8-5.3-4.8
				c-2.2-1-6.3-0.1-6.3-0.1l-3.5-2l0-1.6c0,0,0-0.4,3.9-0.7c1.9-0.1,4.4,0,7.1,0.9c1.4,0.4,2.8,1,4.3,1.9c1.5,0.9,2.9,2.4,3.9,4.1
				c2,3.5,2.5,7.9,1.6,12.2c-0.8,4.3-2.6,8.2-4.2,12.1c-3.2,8-6.7,16.8-9.5,26.1c-2.7,9.4-4.4,18.5-4.6,26.8
				c-0.3,8.3,1.3,15.9,1.6,22.6c0.5,6.7-0.2,12.3-1.4,16C395.8,309.3,394.4,310.9,394,310.8z"/>
		</g>
		<g>
			<linearGradient id="SVGID_24_" gradientUnits="userSpaceOnUse" x1="345.6723" y1="322.2528" x2="407.4859" y2="322.2528">
				<stop  offset="0.2054" style="stop-color:#70542B"/>
				<stop  offset="0.4411" style="stop-color:#654C26"/>
				<stop  offset="0.8541" style="stop-color:#473619"/>
			</linearGradient>
			<path class="st34" d="M405.8,313.5c-0.1-1.6-0.3-3.4-1.2-4.7c-1.5-2-4.3-2.4-6.8-2.5c-2.8-0.1-5.6-0.1-8.4,0
				c-0.8,0-1.6,0-2.3-0.4c-0.6-0.3-0.9-0.9-1.2-1.5c-1.2-2.2-2.1-4.5-2.9-6.9c-6.6-0.6-13.2-0.4-19.8,0.6l-1.8,6.9
				c-2.8-0.1-5.6-0.1-8.4-0.1c-4.4,0.1-7.9,3.9-7.4,8.3c0.1,1.2,2,32.2,2,32.2c7,4.4,59.4-1,59.8-4
				C407.6,341.1,406.4,322.4,405.8,313.5z"/>
		</g>
		<linearGradient id="SVGID_25_" gradientUnits="userSpaceOnUse" x1="331.6111" y1="328.3498" x2="376.2205" y2="328.3498">
			<stop  offset="0" style="stop-color:#918F9C"/>
			<stop  offset="0.7784" style="stop-color:#58565E"/>
		</linearGradient>
		<path class="st35" d="M361.4,313.5c-1.9-0.2-10.6-1.3-13.6-1.3c-8.9,0-16.2,7.2-16.2,16.2c0,8.9,7.2,16.2,16.2,16.2
			c3.1,0,10.2-1,13.6-1.3c8.1-0.8,14.8-6.6,14.8-14.8C376.2,320.2,370.8,314.7,361.4,313.5z"/>
		<path class="st36" d="M357.4,338c-5.3,5.3-14,5.3-19.3,0c-5.3-5.3-5.3-14,0-19.3c5.3-5.3,14-5.3,19.3,0
			C362.7,324,362.7,332.7,357.4,338z"/>
		<g>
			<g>
				<g>
					<g>
						<path class="st37" d="M395.6,340.4c-0.4,0-1.4-6.2-2.2-14c-0.8-7.8-1.2-14.2-0.8-14.2s1.4,6.3,2.2,14
							C395.7,334,396,340.3,395.6,340.4z"/>
					</g>
				</g>
			</g>
		</g>
		<g>
			<g>
				<g>
					<g>
						<path class="st37" d="M405.1,316c0.1,0.4-1.6,1-3.8,1c-2.2,0-3.9-0.7-3.8-1.1c0.1-0.4,1.8-0.3,3.8-0.3
							C403.3,315.7,405,315.7,405.1,316z"/>
					</g>
				</g>
			</g>
		</g>
		<g>
			<g>
				<g>
					<g>
						<path class="st37" d="M405.1,321.4c0,0.4-1.5,0.7-3.3,0.9c-1.8,0.1-3.3,0-3.4-0.3c-0.1-0.4,1.4-0.9,3.3-1
							C403.5,320.7,405,321,405.1,321.4z"/>
					</g>
				</g>
			</g>
		</g>
		<g>
			<g>
				<g>
					<g>
						<path class="st37" d="M406.2,328c0.1,0.4-1.4,0.9-3.2,1.2c-1.8,0.3-3.4,0.2-3.4-0.2c-0.1-0.4,1.4-0.9,3.2-1.2
							C404.6,327.5,406.1,327.6,406.2,328z"/>
					</g>
				</g>
			</g>
		</g>
		<g>
			<path class="st37" d="M379.1,302.3c-0.1-0.2-0.1-0.3-0.3-0.5c-0.2-0.1-0.4-0.1-0.5-0.1c-3.8,0.1-7.6,0.1-11.3,0.2
				c-0.4,1.3-0.8,2.5-1.4,3.7l14.8,0.1C379.9,304.6,379.5,303.5,379.1,302.3z"/>
		</g>
		<path class="st38" d="M341.3,324.5c2.5-3.4,5.3-6.5,7.9-9.6c-3.9-0.4-8,0.8-11,3.9c-3.9,3.9-4.9,9.5-3.1,14.3
			C337.1,330.2,339.2,327.3,341.3,324.5z"/>
		<path class="st38" d="M349.7,329.4c-2.8,3.6-5.5,7.3-8.2,11c5.1,2.7,11.6,1.9,15.9-2.4c5.1-5.1,5.3-13.3,0.5-18.6
			C355.3,322.7,352.3,325.8,349.7,329.4z"/>
	</g>
	<g>
		<g>
			<path class="st5" d="M418.6,236.9c-9.3-4.1-21.4-5.7-31.4-7.2c-11.7-1.8-24-2.8-34.9,1.8c-4.5,1.9-9.1,5.9-8.4,10.7
				c5.3-1.3,10.8-2.1,16.4-2.2c-1.6,2.1-2.9,4.7-2.7,7.4c0.2,2.7,2.4,5.3,5.1,5.2c1.5-0.1,2.9-1,4.2-1.9c0.2,2.4,2.9,4,5.3,3.7
				c2.4-0.4,4.3-2.2,5.5-4.3c0.3-0.5,0.6-1.1,1.2-1.4c0.5-0.2,1.1-0.2,1.6-0.1c25.6,3,49.1,18.3,75,18.4c6.2,0,13.3-1.4,16.3-6.8
				c2-3.6,1.6-8.1,0.6-12.1c-2.4-9.6-7.9-18.3-14.7-25.5c-11.4-12.1-23-19.8-39.4-23C411.1,212.7,410.6,226.2,418.6,236.9z"/>
		</g>
	</g>
	<g>
		<linearGradient id="SVGID_26_" gradientUnits="userSpaceOnUse" x1="166.9904" y1="220.3032" x2="213.8719" y2="220.3032">
			<stop  offset="0.2054" style="stop-color:#949287"/>
			<stop  offset="0.9027" style="stop-color:#B8B5A8"/>
		</linearGradient>
		<path class="st39" d="M198.8,132.4c0,0-16.8,21.9-31.8,28.9c0,0,39.1,82.5,31.8,147C198.8,308.2,232.7,217.7,198.8,132.4z"/>
		<linearGradient id="SVGID_27_" gradientUnits="userSpaceOnUse" x1="166.9904" y1="227.628" x2="258.4674" y2="227.628">
			<stop  offset="0.2054" style="stop-color:#949287"/>
			<stop  offset="0.9027" style="stop-color:#B8B5A8"/>
		</linearGradient>
		<path class="st40" d="M230.6,132.4c0,0-40,25.6-63.6,28.9c0,0,31.8,65.1,31.8,150.2c0,0,28,2.4,34.5,11.4
			C246.9,319.8,283.9,206.3,230.6,132.4z"/>
		<linearGradient id="SVGID_28_" gradientUnits="userSpaceOnUse" x1="292.4734" y1="217.9778" x2="353.2952" y2="217.9778">
			<stop  offset="7.027027e-02" style="stop-color:#B8B5A8"/>
			<stop  offset="1" style="stop-color:#949287"/>
		</linearGradient>
		<path class="st41" d="M313.5,126.3l33.4-20.8c0,0,19.9,122-10.2,208.6l-44.1,16.3L313.5,126.3z"/>
		<path class="st3" d="M313.5,126.3l-82.9,6.1c0,0,20.5,104.5,2.7,190.5l59.2,7.6C292.5,330.4,324.8,221.5,313.5,126.3z"/>
		<linearGradient id="SVGID_29_" gradientUnits="userSpaceOnUse" x1="244.8183" y1="212.6672" x2="308.201" y2="212.6672">
			<stop  offset="0" style="stop-color:#14ADDE"/>
			<stop  offset="0.2415" style="stop-color:#16B8DF"/>
			<stop  offset="0.6686" style="stop-color:#1CD6E3"/>
			<stop  offset="1" style="stop-color:#21F2E7"/>
		</linearGradient>
		<path class="st42" d="M244.8,188.4c0,0,2.9,34,1.7,48.5h57.2c0,0,5.1-34.2,4.4-48.5H244.8z"/>
		<g>
			<linearGradient id="SVGID_30_" gradientUnits="userSpaceOnUse" x1="245.2689" y1="203.8833" x2="257.1925" y2="203.8833">
				<stop  offset="0" style="stop-color:#006B53"/>
				<stop  offset="1" style="stop-color:#008A6A"/>
			</linearGradient>
			<path class="st43" d="M249.1,208.1c0.3-0.2,0.7-0.2,1.1-0.3c1.2-0.5,1.1-2.2,0.9-3.4c-0.2-1.3-0.1-2.9,1.1-3.3
				c1.1-0.3,2.3,0.8,3.4,0.6c1.2-0.3,1.5-1.7,1.6-2.9c0.1-1.1,0.1-2.3-0.5-3.1c-1.1-1.5-3.4-1.2-5.2-0.6c-1.8,0.6-3.9,1.3-5.4,0.1
				c-0.3-0.2-0.5-0.5-0.8-0.8c0.4,4.8,0.8,12,1.2,19.5c0.3,0,0.5-0.1,0.8-0.3C248.9,212.3,247.4,208.9,249.1,208.1z"/>
			<linearGradient id="SVGID_31_" gradientUnits="userSpaceOnUse" x1="253.3318" y1="212.6672" x2="308.2008" y2="212.6672">
				<stop  offset="0" style="stop-color:#009674"/>
				<stop  offset="0.2927" style="stop-color:#00A17D"/>
				<stop  offset="0.8106" style="stop-color:#00BF94"/>
				<stop  offset="1" style="stop-color:#00CC9E"/>
			</linearGradient>
			<path class="st44" d="M308.1,188.4h-39.1c-0.9,0.5-1.8,1.1-2.7,1.8c-0.4,0.3-0.7,0.6-0.9,1c-0.6,1.3,0.7,2.7,2.1,3.1
				c1.4,0.4,2.9,0.3,4.2,1c0.5,0.3,1,0.8,0.9,1.4c0,0.3-0.2,0.6-0.4,0.9c-0.8,1.1-2.1,1.8-3.2,2.6c-1.1,0.8-2.2,1.8-2.6,3.1
				c-0.3,1.3,0.5,3,1.8,3.1c0.6,0.1,1.2-0.2,1.8-0.4c1.4-0.5,2.8-1,4.3-1.3c0.6-0.1,1.2-0.2,1.7,0c2.1,1-0.2,5,1.7,6.4
				c1,0.7,2.3,0.1,3.3-0.5c1.7-0.9,3.6-1.5,5.5-1.1c1.8,0.5,3.4,2.4,2.8,4.2c-0.4,1.1-1.4,1.9-2.3,2.5c-1.3,0.9-2.5,1.8-3.8,2.6
				c-0.6,0.4-1.3,0.9-2,1.1c-1.3,0.4-2.7-0.1-4-0.5c-5.5-1.6-11.4-2-17.1-1.3c-2.2,0.3-4.5,0.8-6.1,2.5c-0.4,0.5-0.8,1-0.9,1.7
				c-0.3,2.1,2.4,3.4,4.6,3.4c2.2,0,4.6-0.4,6.2,1.1c0.4,0.4,0.7,0.8,1.2,1.1c1.3,0.7,3.2-0.7,4.3,0.2c0.9,0.7,0.8,2.3,1.9,2.7
				c0.6,0.2,1.2-0.1,1.8,0c1.1,0.1,1.9,1.4,1.9,2.5c0,1.1-0.4,2.2-0.6,3.4c0,0,0,0,0,0.1h16c0.6-1.4,1.2-2.8,1.7-4.2
				c0.7-2.1,1.5-4.4,3.5-5.3c0.8-0.4,1.7-0.5,2.6-0.6c1.5-0.3,2.9-0.8,4.4-1.4c0.9-0.3,1.8-0.7,2.7-1
				C306.9,213.2,308.6,197.1,308.1,188.4z"/>
		</g>
		<text transform="matrix(0.9989 -4.587986e-02 4.587986e-02 0.9989 246.427 173.2625)"><tspan x="0" y="0" class="st45 st46 st47">justro.</tspan><tspan x="45.6" y="0" class="st45 st46 st48">me</tspan></text>
		<circle class="st3" cx="265.4" cy="298.9" r="4.8"/>
		<g>
			<g>
				<g>
					<g>
						<g>
							<path class="st49" d="M270.3,243.8c0,0.4-4.8,0.8-10.7,1c-5.9,0.1-10.7,0-10.7-0.4c0-0.4,4.8-0.8,10.7-1
								C265.5,243.3,270.3,243.5,270.3,243.8z"/>
						</g>
					</g>
				</g>
			</g>
			<g>
				<g>
					<g>
						<g>
							<path class="st49" d="M269.3,252.1c0,0.4-4.8,0.8-10.7,1c-5.9,0.1-10.7,0-10.7-0.4s4.8-0.8,10.7-1
								C264.5,251.5,269.3,251.7,269.3,252.1z"/>
						</g>
					</g>
				</g>
			</g>
			<g>
				<g>
					<g>
						<g>
							<path class="st49" d="M268.4,260.4c0,0.4-4.8,0.8-10.7,1c-5.9,0.1-10.7,0-10.7-0.4c0-0.4,4.8-0.8,10.7-1
								C263.5,259.8,268.3,260,268.4,260.4z"/>
						</g>
					</g>
				</g>
			</g>
			<g>
				<g>
					<g>
						<g>
							<path class="st49" d="M267.4,268.6c0,0.4-4.8,0.8-10.7,1c-5.9,0.1-10.7,0-10.7-0.4c0-0.4,4.8-0.8,10.7-1
								C262.6,268,267.4,268.2,267.4,268.6z"/>
						</g>
					</g>
				</g>
			</g>
			<g>
				<g>
					<g>
						<g>
							<path class="st49" d="M266.4,276.9c0,0.4-4.8,0.8-10.7,1c-5.9,0.1-10.7,0-10.7-0.4c0-0.4,4.8-0.8,10.7-1
								C261.6,276.3,266.4,276.5,266.4,276.9z"/>
						</g>
					</g>
				</g>
			</g>
			<g>
				<g>
					<g>
						<g>
							<path class="st49" d="M265.4,285.1c0,0.4-4.8,0.8-10.7,1c-5.9,0.1-10.7,0-10.7-0.4c0-0.4,4.8-0.8,10.7-1
								C260.6,284.6,265.4,284.8,265.4,285.1z"/>
						</g>
					</g>
				</g>
			</g>
			<g>
				<g>
					<g>
						<g>
							<path class="st49" d="M298.4,243.8c0,0.4-4.8,0.8-10.7,1c-5.9,0.1-10.7,0-10.7-0.4c0-0.4,4.8-0.8,10.7-1
								C293.6,243.3,298.4,243.5,298.4,243.8z"/>
						</g>
					</g>
				</g>
			</g>
			<g>
				<g>
					<g>
						<g>
							<path class="st49" d="M297.5,252.1c0,0.4-4.8,0.8-10.7,1c-5.9,0.1-10.7,0-10.7-0.4s4.8-0.8,10.7-1
								C292.7,251.5,297.4,251.7,297.5,252.1z"/>
						</g>
					</g>
				</g>
			</g>
			<g>
				<g>
					<g>
						<g>
							<path class="st49" d="M296.5,260.4c0,0.4-4.8,0.8-10.7,1c-5.9,0.1-10.7,0-10.7-0.4c0-0.4,4.8-0.8,10.7-1
								C291.7,259.8,296.5,260,296.5,260.4z"/>
						</g>
					</g>
				</g>
			</g>
			<g>
				<g>
					<g>
						<g>
							<path class="st49" d="M295.5,268.6c0,0.4-4.8,0.8-10.7,1c-5.9,0.1-10.7,0-10.7-0.4c0-0.4,4.8-0.8,10.7-1
								C290.7,268,295.5,268.2,295.5,268.6z"/>
						</g>
					</g>
				</g>
			</g>
			<g>
				<g>
					<g>
						<g>
							<path class="st49" d="M294.6,276.9c0,0.4-4.8,0.8-10.7,1c-5.9,0.1-10.7,0-10.7-0.4c0-0.4,4.8-0.8,10.7-1
								C289.8,276.3,294.5,276.5,294.6,276.9z"/>
						</g>
					</g>
				</g>
			</g>
			<g>
				<g>
					<g>
						<g>
							<path class="st49" d="M293.6,285.1c0,0.4-4.8,0.8-10.7,1c-5.9,0.1-10.7,0-10.7-0.4c0-0.4,4.8-0.8,10.7-1
								C288.8,284.6,293.6,284.8,293.6,285.1z"/>
						</g>
					</g>
				</g>
			</g>
			<g>
				<g>
					<g>
						<g>
							
								<ellipse transform="matrix(7.981069e-02 -0.9968 0.9968 7.981069e-02 -67.0992 548.8743)" class="st49" cx="263.7" cy="310.8" rx="0.7" ry="23.1"/>
						</g>
					</g>
				</g>
			</g>
			<g>
				<g>
					<g>
						<g>
							
								<ellipse transform="matrix(7.981069e-02 -0.9968 0.9968 7.981069e-02 -73.4145 554.7041)" class="st49" cx="263.7" cy="317.1" rx="0.7" ry="23.1"/>
						</g>
					</g>
				</g>
			</g>
		</g>
	</g>
	<g>
		<g>
			<g>
				<path class="st14" d="M210.7,245.2c0-3.7-20.5-2.1-20.5-2.1s24.5,0.5,23.7-5.3c-0.5-3.7-19.4-2.1-19.4-2.1s15.5-2,15.2-5.8
					c-0.4-4.3-14.9-1.8-18.4-1.6c-5.1,0.3-10.8,3.9-13.1,8.4c-9.1,16.9-23.8,26-41,34.8c-19.6,10-31.8,17.4-64.6,12
					c-2,11.2-2.8,22.6-2.3,33.9c0.2,5,4.9,8.7,9.8,7.7c28.5-5.4,54.2-21.8,76.6-40.5c8.3-6.9,23.9-25.7,23.9-25.7s23.4-2.3,23.4-6
					c0-2.6-10-3.7-10-3.7S210.7,249.4,210.7,245.2z"/>
			</g>
			<g>
				<g>
					<g>
						<g>
							<path d="M72.5,283.7c0,0.2-0.1,0.3-0.1,0.3C72.4,284,72.4,283.9,72.5,283.7c0-0.2,0-0.3,0-0.3
								C72.5,283.4,72.5,283.5,72.5,283.7z"/>
						</g>
					</g>
				</g>
			</g>
		</g>
	</g>
</g>
</svg>
