<?xml version="1.0" encoding="utf-8"?>
<!-- Generator: Adobe Illustrator 24.1.1, SVG Export Plug-In . SVG Version: 6.00 Build 0)  -->
<svg version="1.1" id="Layer_1" xmlns="http://www.w3.org/2000/svg" xmlns:xlink="http://www.w3.org/1999/xlink" x="0px" y="0px"
	 viewBox="0 0 800 600" style="enable-background:new 0 0 800 600;" xml:space="preserve">
<style type="text/css">
	.st0{fill:url(#SVGID_1_);}
	.st1{fill:url(#SVGID_2_);}
	.st2{fill:#221D51;}
	.st3{fill:#DA6CA0;}
	.st4{fill:url(#SVGID_3_);}
	.st5{fill:url(#SVGID_4_);}
	.st6{fill:url(#SVGID_5_);}
	.st7{fill:url(#SVGID_6_);}
	.st8{fill:url(#SVGID_7_);}
	.st9{fill:url(#SVGID_8_);}
	.st10{fill:#FF8B00;}
	.st11{fill:url(#SVGID_9_);}
	.st12{fill:url(#SVGID_10_);}
	.st13{fill:url(#SVGID_11_);}
	.st14{fill:#FFFFFF;}
	.st15{fill:url(#SVGID_12_);}
	.st16{fill:url(#SVGID_13_);}
	.st17{fill:url(#SVGID_14_);}
	.st18{fill:#007D90;}
	.st19{fill:#7CDBE8;}
	.st20{fill:#00BFB3;}
	.st21{fill:#FFC056;}
	.st22{fill:#00DD8C;}
	.st23{fill:#00B853;}
	.st24{fill:#008158;}
	.st25{fill:#00AA99;}
	.st26{fill:#008993;}
	.st27{fill:url(#SVGID_15_);}
	.st28{fill:url(#SVGID_16_);}
	.st29{fill:#FFDABD;}
	.st30{fill:#FECDA4;}
	.st31{fill:#5DADB3;}
	.st32{fill:#F7C6A1;}
	.st33{fill:#DEDDD7;}
	.st34{fill:#473E35;}
	.st35{fill:url(#SVGID_17_);}
	.st36{fill:url(#SVGID_18_);}
	.st37{fill:url(#SVGID_19_);}
	.st38{fill:url(#SVGID_20_);}
	.st39{fill:url(#SVGID_21_);}
	.st40{fill:url(#SVGID_22_);}
	.st41{fill:url(#SVGID_23_);}
	.st42{fill:#7E0058;}
	.st43{fill:url(#SVGID_24_);}
	.st44{fill:url(#SVGID_25_);}
	.st45{fill:url(#SVGID_26_);}
	.st46{fill:#8EC3C7;}
	.st47{fill:url(#SVGID_27_);}
	.st48{fill:none;stroke:#06092A;stroke-width:0.5;stroke-miterlimit:10;}
	.st49{fill:url(#SVGID_28_);}
	.st50{fill:url(#SVGID_29_);}
	.st51{fill:url(#SVGID_30_);}
	.st52{fill:url(#SVGID_31_);}
	.st53{opacity:0.6;fill:#473E35;enable-background:new    ;}
</style>
<image style="overflow:visible;" width="946" height="504" xlink:href="002_slide1_bg.png"  transform="matrix(0.7949 0 0 0.8988 24 69)">
</image>
<g id="Layer_2_1_">
	
		<radialGradient id="SVGID_1_" cx="299.9449" cy="711.1871" r="167.3036" gradientTransform="matrix(0.6819 0 0 0.7095 63.8857 22.5948)" gradientUnits="userSpaceOnUse">
		<stop  offset="4.048583e-03" style="stop-color:#A19F96"/>
		<stop  offset="1" style="stop-color:#C5C2B7"/>
	</radialGradient>
	<ellipse class="st0" cx="268.4" cy="527.2" rx="159.6" ry="24.8"/>
</g>
<g id="Layer_1_1_">
	
		<linearGradient id="SVGID_2_" gradientUnits="userSpaceOnUse" x1="157.9981" y1="93.8739" x2="268.6387" y2="93.8739" gradientTransform="matrix(1 0 0 1 0 60)">
		<stop  offset="0" style="stop-color:#211B45"/>
		<stop  offset="1" style="stop-color:#4C358F"/>
	</linearGradient>
	<path class="st1" d="M236.2,104.7c0,0,6.5-22.3,22.6-13.3c16.2,9,6.2,45.2,3.4,72.7c-1.6,15.9,2,26.7,5.5,32.9
		c2.1,4,0.4,8.9-3.7,10.6c-15.7,6.5-50.4,17.6-79.4,5.5c-38.8-16.2-26.4-69.7-17.4-90.5C176.3,102.1,224.4,86.3,236.2,104.7z"/>
	<path class="st2" d="M236.3,107.7c0,0,5-10.6,11.4-8.4c6.4,2.1,8.5,16.4,5,27.3L236.3,107.7z"/>
	<g>
		<path class="st3" d="M238.6,145.5c0.1,0.1-0.5,1.2-2.5,1.1c-0.9-0.1-2-0.5-3-1.5c-1-1.1-1.6-2.6-1.6-4.3c-0.2-3.3,1.2-7,3.2-10.3
			c2-3.3,24.1-37.4,24.1-37.4l4,2.4c0,0-8.7,12.3-18.5,26.7c-4.7,7.2-10.1,13.4-10.2,18.5c-0.1,2.5,1.2,4,2.5,4.5
			S238.5,145.2,238.6,145.5z"/>
	</g>
	<g>
		
			<linearGradient id="SVGID_3_" gradientUnits="userSpaceOnUse" x1="94.449" y1="286.3766" x2="283.6852" y2="286.3766" gradientTransform="matrix(1 0 0 1 0 60)">
			<stop  offset="0" style="stop-color:#003025"/>
			<stop  offset="1" style="stop-color:#005742"/>
		</linearGradient>
		<path class="st4" d="M283.7,330c0,0-21-6.7-48.6-5.5c-87.9,19.4-140.7,43.3-140.7,43.3l71.9,0.8L283.7,330z"/>
		
			<linearGradient id="SVGID_4_" gradientUnits="userSpaceOnUse" x1="166.3247" y1="367.4006" x2="292.7975" y2="367.4006" gradientTransform="matrix(1 0 0 1 0 60)">
			<stop  offset="0" style="stop-color:#006B53"/>
			<stop  offset="1" style="stop-color:#008A6A"/>
		</linearGradient>
		<path class="st5" d="M283.7,330c9.5,15.1,11.4,103.1,6.5,135.2c-44.3,34.2-121.9,59.7-121.9,59.7l-1.9-156.3L283.7,330z"/>
		<g>
			
				<linearGradient id="SVGID_5_" gradientUnits="userSpaceOnUse" x1="166.3247" y1="352.3596" x2="292.8345" y2="352.3596" gradientTransform="matrix(1 0 0 1 0 60)">
				<stop  offset="0" style="stop-color:#003025"/>
				<stop  offset="1" style="stop-color:#005742"/>
			</linearGradient>
			<path class="st6" d="M283.7,330l-117.4,38.6l0.6,47.9c0.2-0.4,0.3-0.8,0.5-1.1c4.6-9.5,11.3-18,19.2-24.8
				c7.1-6,15.9-10.8,25-10.1c10,0.7,18.7,7.9,23.9,16.8c5.2,8.9,7.2,19.3,8.5,29.6c1.7,13.1,2.3,26.3,1.4,39.5
				c-0.7,9.6-2.2,19.1-4.4,28.5c17.4-8.6,35-18.7,49.2-29.7C295.1,433,293.2,345.1,283.7,330z"/>
		</g>
		
			<linearGradient id="SVGID_6_" gradientUnits="userSpaceOnUse" x1="92.3956" y1="386.2373" x2="168.2341" y2="386.2373" gradientTransform="matrix(1 0 0 1 0 60)">
			<stop  offset="0" style="stop-color:#006B53"/>
			<stop  offset="1" style="stop-color:#008A6A"/>
		</linearGradient>
		<path class="st7" d="M94.4,367.7l71.9,0.8l1.9,156.3c0,0-57.7-3.5-67.2-7.5C86.8,466,94.4,367.7,94.4,367.7z"/>
		<g>
			
				<linearGradient id="SVGID_7_" gradientUnits="userSpaceOnUse" x1="101.3685" y1="350.8084" x2="166.9384" y2="350.8084" gradientTransform="matrix(1 0 0 1 0 60)">
				<stop  offset="0" style="stop-color:#003025"/>
				<stop  offset="1" style="stop-color:#005742"/>
			</linearGradient>
			<path class="st8" d="M107.8,367.8c-3.3,10-4.7,21-5.7,31.6c-0.9,9.9-1.5,19.9,0.9,29.6c2.3,9.6,8.1,18.8,16.8,22.8
				c13.4,6,29.7-2.3,37.6-15.1c3.9-6.3,6.3-13.5,9.5-20.2l-0.6-47.9L107.8,367.8z"/>
		</g>
		
			<linearGradient id="SVGID_8_" gradientUnits="userSpaceOnUse" x1="93.8158" y1="448.691" x2="120.399" y2="448.691" gradientTransform="matrix(1 0 0 1 0 60)">
			<stop  offset="0" style="stop-color:#FFC056"/>
			<stop  offset="1" style="stop-color:#E0981F"/>
		</linearGradient>
		<path class="st9" d="M106.1,509.7c-5.9-7-10.2-16.5-11.5-15.8c-1.6,0.9-1,18.8,2.4,24.5c0.4,0.7,0.9,1.4,1.6,1.9
			c0.6,0.4,1.4,0.7,2.2,0.9c6.3,1.8,18.9,3.5,19.6,0.8C121,519.5,112,516.8,106.1,509.7z"/>
		<path class="st10" d="M286.8,458.2c3.4-5.9,4.3-13.6,5.3-13c1.2,0.6,2.6,14.7,1.4,20.6c-0.1,0.7-0.3,1.4-0.7,2.1
			c-0.3,0.5-0.8,0.9-1.2,1.2c-3.7,2.6-11.5,5.7-12.4,3.2C278.2,469.7,282.8,465,286.8,458.2z"/>
		
			<linearGradient id="SVGID_9_" gradientUnits="userSpaceOnUse" x1="151.66" y1="452.3168" x2="184.3292" y2="452.3168" gradientTransform="matrix(1 0 0 1 0 60)">
			<stop  offset="0" style="stop-color:#FFD896"/>
			<stop  offset="1" style="stop-color:#F5A622"/>
		</linearGradient>
		<path class="st11" d="M169,495.8c-4,0.4-3.5,14.4-9.7,21.1s-7.4,4.7-7.6,7c-0.2,2.3,9.5,5.7,16.6,4.7c7.1-1.1,16.2-6.3,16.1-10.2
			C184.2,514.5,173.1,495.5,169,495.8z"/>
		<g>
			
				<linearGradient id="SVGID_10_" gradientUnits="userSpaceOnUse" x1="151.661" y1="452.5382" x2="170.4081" y2="452.5382" gradientTransform="matrix(1 0 0 1 0 60)">
				<stop  offset="0" style="stop-color:#FFC056"/>
				<stop  offset="1" style="stop-color:#F5A622"/>
			</linearGradient>
			<path class="st12" d="M168,496.3c-2.9,2.5-3.1,14.5-8.7,20.6c-6.2,6.7-7.4,4.7-7.6,7c-0.1,1.9,6.3,4.5,12.6,4.8
				c2.6-2.8,4.5-6.5,5.4-10.4C171.3,511.1,170,503.5,168,496.3z"/>
		</g>
		<g>
			
				<linearGradient id="SVGID_11_" gradientUnits="userSpaceOnUse" x1="90.383" y1="317.0263" x2="107.7475" y2="317.0263" gradientTransform="matrix(1 0 0 1 0 60)">
				<stop  offset="0" style="stop-color:#FFD896"/>
				<stop  offset="1" style="stop-color:#F5A622"/>
			</linearGradient>
			<path class="st13" d="M107.2,365.8c-0.5-1,0.3-2.2,0.5-3.3c-4.8-1.3-16.2,3.5-16.8,5.3c-0.6,1.8-1.2,23.3,1.6,24.1
				c2.8,0.7,6.8-18.4,14.2-23.3c0.5-0.4,1-0.7,1.1-1.3C107.8,366.8,107.5,366.3,107.2,365.8z"/>
		</g>
		<g>
			<g>
				<path class="st14" d="M92.1,394.4C92.1,394.4,92.1,394.4,92.1,394.4C92,394.4,92,394.4,92.1,394.4L92.1,394.4z"/>
			</g>
		</g>
		<g>
			
				<linearGradient id="SVGID_12_" gradientUnits="userSpaceOnUse" x1="90.3853" y1="319.6502" x2="106.4315" y2="319.6502" gradientTransform="matrix(1 0 0 1 0 60)">
				<stop  offset="0" style="stop-color:#FFC056"/>
				<stop  offset="1" style="stop-color:#E0981F"/>
			</linearGradient>
			<path class="st15" d="M93.4,370.3c-1.1,0.8-2,1.7-2.9,2.8c-0.3,7,0,18.4,2,18.9c2.7,0.7,6.8-18,14-23.1c-1.4-0.7-2.9-1.2-4.6-1.3
				C98.9,367.2,95.9,368.4,93.4,370.3z"/>
		</g>
		
			<linearGradient id="SVGID_13_" gradientUnits="userSpaceOnUse" x1="148.9052" y1="316.1962" x2="184.1722" y2="316.1962" gradientTransform="matrix(1 0 0 1 0 60)">
			<stop  offset="0" style="stop-color:#FFC056"/>
			<stop  offset="1" style="stop-color:#F5A622"/>
		</linearGradient>
		<path class="st16" d="M149,367.4c-1.5,1.9,14.6,22.6,17.7,23.3c3.1,0.8,18.1-25.8,17.5-28.5C183.5,359.7,150.7,365.3,149,367.4z"
			/>
		<g>
			
				<linearGradient id="SVGID_14_" gradientUnits="userSpaceOnUse" x1="149.0036" y1="319.5347" x2="170.1365" y2="319.5347" gradientTransform="matrix(1 0 0 1 0 60)">
				<stop  offset="0" style="stop-color:#FFC056"/>
				<stop  offset="1" style="stop-color:#E0981F"/>
			</linearGradient>
			<path class="st17" d="M170.1,380.5c-0.3-3.8-1.9-7.5-4.8-9.6c-2.3-1.6-5.1-2.1-7.9-2.3c-2.7-0.3-5.5-0.3-8.3-0.2
				c1,4.3,14.9,21.8,17.7,22.6c0.5,0.1,1.6-0.6,2.8-2.1C169.9,386,170.3,383.2,170.1,380.5z"/>
		</g>
		<g>
			
				<ellipse transform="matrix(0.9105 -0.4135 0.4135 0.9105 -173.9423 124.4733)" class="st18" cx="200.6" cy="464" rx="15" ry="19.8"/>
			
				<ellipse transform="matrix(0.9058 -0.4237 0.4237 0.9058 -177.7198 128.6872)" class="st19" cx="200.6" cy="464" rx="10.8" ry="15.1"/>
			<g>
				<path class="st20" d="M212.2,467.7c0,4.3-1.6,8.1-4.8,9.8c-4.6,2.5-10.6,0-14.7-5.5c-0.6-0.9-1.2-1.8-1.7-2.8c-1-2-1.7-4-2-6
					c1.6-0.6,3.3-1.1,5-1.5c3.9-0.9,7.9-1.3,11.9-1.4h1.4c1.2,0,2.4,0.1,3.5,0.2C211.7,463,212.2,465.4,212.2,467.7z"/>
			</g>
			<g>
				<path class="st21" d="M205.9,460.4c-4,0.1-8,0.5-11.9,1.4c-0.1-1.8,0.1-3.5,1.1-4.9c1.8-2.5,5.7-2.4,8-0.5
					C204.4,457.4,205.3,458.8,205.9,460.4z"/>
			</g>
			<g>
				<path class="st14" d="M253.1,438.2c0.8-0.9,1.6-1.8,2.5-2.8c-0.3-0.6-0.6-1.3-0.9-1.9l0,0c0.3-1.5,0.7-3,1-4.5
					c-1.1-0.3-2.1-0.6-3.2-0.8c0,0,0,0,0,0.1c-0.3-0.6-0.5-1.3-0.8-1.9c-1,0.7-2,1.3-2.9,2.1c-0.5-1.1-1.1-2.1-1.6-3.3
					c-1,0.7-2,1.4-2.9,2.2c-0.5-1.1-1.1-2.2-1.6-3.3c-1,0.7-2,1.5-3,2.3c-0.5-1.1-1.1-2.2-1.6-3.3c-1,0.8-2,1.6-3,2.3
					c-0.5-1.1-1.1-2.3-1.6-3.4c-0.5,0.5-1.1,1.1-1.6,1.6c0-0.1,0-0.1,0.1-0.1c-1.1-0.2-2.2-0.5-3.3-0.7c-0.4,1.7-0.8,3.4-1.2,5
					c0.1,0,0.1,0,0.1,0c-0.5,0.6-1.1,1.1-1.6,1.7c0.4,1.3,0.8,2.6,1.2,4c-0.9,1.1-1.7,2.2-2.6,3.3c0.4,1.3,0.9,2.6,1.3,3.9
					c-0.8,1.1-1.6,2.3-2.5,3.4c0.5,1.3,1,2.6,1.4,3.8c-0.8,1.1-1.6,2.3-2.3,3.5c0.5,1.3,1,2.6,1.6,3.8c-0.8,1.1-1.5,2.3-2.3,3.5
					c0.3,0.6,0.7,1.2,1,1.8l0,0c-0.1,1.7-0.2,3.4-0.3,5.1c1.1,0,2.2,0.1,3.3,0.1c0,0,0,0,0-0.1c0.4,0.6,0.8,1.3,1.2,1.9
					c0.8-0.9,1.6-1.9,2.5-2.8c0.8,1,1.5,2,2.3,2.9c0.8-0.9,1.6-1.8,2.5-2.8c0.8,1,1.5,1.9,2.3,2.9c0.8-0.9,1.6-1.8,2.5-2.7
					c0.8,0.9,1.5,1.9,2.3,2.8c0.8-0.9,1.6-1.8,2.5-2.6c0.8,0.9,1.5,1.8,2.3,2.8c0.4-0.6,0.9-1.1,1.3-1.6c1.1,0.1,2.1,0.1,3.2,0.1
					c0.1-1.5,0.1-2.9,0.3-4.4c0.5-0.5,0.9-1.1,1.4-1.6c-0.5-1.1-1.1-2.3-1.6-3.4c0.8-1,1.5-2,2.3-3c-0.5-1.1-1-2.3-1.5-3.5
					c0.8-1,1.6-2,2.3-2.9c-0.5-1.1-1-2.3-1.4-3.5c0.8-1,1.6-1.9,2.5-2.8C254,440.6,253.5,439.4,253.1,438.2z"/>
				<path class="st21" d="M247.5,462.3c-7.2-0.5-14.3-0.9-21.5-1.2c0.8-10.9,2.3-21.9,4.6-32.6c7,1.3,14.1,2.8,21.1,4.4
					C249.6,442.5,248.2,452.4,247.5,462.3z"/>
				<path class="st22" d="M243.7,460.4c-0.1-3.3-0.9-6.5-1.9-9.3c-1.4-3.8-3.5-7.3-6.3-9c-2.2-1.3-4.6-1.6-7.2-1.5
					c-1.1,6.7-1.8,13.6-2.3,20.4c5.9,0.3,11.8,0.6,17.7,1C243.7,461.5,243.7,461,243.7,460.4z"/>
				<path class="st23" d="M248.6,451c-0.5-0.2-1.2-0.5-1.8-0.6c-5.3-1.6-11-1-16.2,2.2c-1.4,0.9-2.9,2-4.2,3.2
					c-0.1,1.8-0.3,3.5-0.4,5.3c7.2,0.3,14.3,0.7,21.5,1.2C247.7,458.5,248.1,454.8,248.6,451z"/>
			</g>
			<path class="st22" d="M185.1,389.9c-1.1,10-3.2,31.2-2.5,31.3c0.5,0.1,16.6-13.6,25.4-18.5C200.9,398.2,192.6,393.9,185.1,389.9z
				"/>
			<path class="st24" d="M202.5,402.5c-1.2,0.6-2.6,1.6-4.1,2.6c-5.5,3.8-11.9,9.2-12.1,9.2c-0.3,0,0.2-6.2,0.8-12.2
				c0.3-2.8,0.5-5.7,0.8-7.7C192.6,396.9,197.9,399.7,202.5,402.5z"/>
			<path class="st20" d="M198.4,405.2c-5.5,3.8-11.9,9.2-12.1,9.2c-0.3,0,0.2-6.2,0.8-12.2c0.8-0.4,1.6-0.7,2.6-0.9
				C193.2,400.8,196.5,402.4,198.4,405.2z"/>
			<g>
				<path class="st25" d="M192.7,472c3.6-1.8,7.6-2.9,11.6-3.6c2.6-0.5,5.3-0.8,7.9-0.6c0,4.3-1.6,8.1-4.8,9.8
					C202.9,480,196.7,477.6,192.7,472z"/>
			</g>
		</g>
	</g>
	<path class="st26" d="M279,446.7c-13.7-0.5-22.8,2.3-23.7,5c-0.8,2.7,40.8,2.9,42.6-1.3C299.5,446.3,279,446.7,279,446.7z"/>
	
		<linearGradient id="SVGID_15_" gradientUnits="userSpaceOnUse" x1="90.978" y1="207.956" x2="200.4982" y2="207.956" gradientTransform="matrix(1 0 0 1 0 60)">
		<stop  offset="0" style="stop-color:#8C1B69"/>
		<stop  offset="0.2109" style="stop-color:#972674"/>
		<stop  offset="0.5853" style="stop-color:#B34491"/>
		<stop  offset="1" style="stop-color:#D96DB8"/>
	</linearGradient>
	<path class="st27" d="M187.7,201.6c-19.2-7.7-58-10-78.8,32.6s-28.8,85.9,5.6,99.5c34.4,13.6,70.2-2.3,82.2-22.9
		C208.9,290.1,187.7,201.6,187.7,201.6z"/>
	
		<linearGradient id="SVGID_16_" gradientUnits="userSpaceOnUse" x1="110.7741" y1="216.5734" x2="192.4441" y2="216.5734" gradientTransform="matrix(1 0 0 1 0 60)">
		<stop  offset="0" style="stop-color:#7E0058"/>
		<stop  offset="1" style="stop-color:#B80080"/>
	</linearGradient>
	<path class="st28" d="M181.3,216.2c0,0-26.7-18.4-48.4,22.3c-21.8,40.7-31.2,87.3-10.6,99s60-8.2,68.1-27
		C198.4,291.8,181.3,216.2,181.3,216.2z"/>
	<path class="st29" d="M200.2,102.4c16-8.2,41.6-1.3,49.6,13.3s15.5,64.6-0.6,81.1c-16.2,16.5-39.1-2.6-50,23.6
		c-7.2-0.2-14.3-0.9-18.6-8.1l5-19.1c0,0-10-6.5-12.4-14.2c0,0-13.6,1.9-14.9-17.1C157.1,142.8,181.9,111.8,200.2,102.4z"/>
	<g>
		<path class="st30" d="M200.8,192.1c3.1-6.2,12.1-8.8,12.8-15.8c0.5-4.2-2.4-7.9-5.5-10.7s-6.6-5.2-8.5-8.9
			c-3-6.1-0.4-13.6,3.5-19.1c6.5-9,16.4-14.8,26.4-19.2c3.8-1.6,7.8-3.3,9.9-7c0.9-1.6,1.2-3.5,1.2-5.3c-11.4-7.5-28.6-9.8-40.4-3.7
			c-18.3,9.4-43.2,40.4-41.9,59.5s14.9,17.1,14.9,17.1c2.5,7.7,12.4,14.2,12.4,14.2l-5,19.1c2.7,4.4,6.4,6.4,10.6,7.3
			c4-5.5,6.8-12.1,7.7-18.9C199.3,197.7,199.5,194.7,200.8,192.1z"/>
	</g>
	<path class="st30" d="M205.1,244.6c0,0,3.2,14.8,23.7,28.6c0,0,21.5-11.5,31.8-28.3c0,0,0.5-24.1,19.4-30.3
		c18.8-6.2-1.4,14.5-1.4,14.5l-4.8,26.6c0,0-21,30.8-44.7,46c0,0-32.3-17.7-42.6-42L205.1,244.6z"/>
	<path class="st31" d="M190.9,305.6c0,0,81.3-33.3,92.1-31.9c0,0-23.5,39.5-28.8,46.8c-5.4,7.3-60.4-3.1-60.4-3.1L190.9,305.6z"/>
	<polygon class="st32" points="317.6,407.6 333.8,438.8 347,430.3 332.2,397.3 	"/>
	<path class="st33" d="M367.4,425c-1.6,1.6-3.3,3.1-5,4.8c-0.1,0.1-0.3,0.3-0.5,0.4c-0.8,0.7-1.6,1.3-2.3,2
		c-1.8,1.5-3.4,2.8-4.9,4.1c-19,15.4-21.6,11.8-21.6,11.8l-1.1-12.3c0,0,10.2-4.2,13.2-10.6c0,0,36.9-37.5,43.4-38.7
		C394.4,385.4,386.8,405.7,367.4,425z"/>
	<g>
		<path class="st34" d="M359.6,431.4c0,0.2,0,0.5,0,0.6c-1.8,1.5-3.4,2.8-4.9,4.1c-0.1-1.5-0.2-3.1-0.2-4.8
			c0.1-6.5,1.3-11.8,2.7-11.9C358.5,419.4,359.7,424.7,359.6,431.4z"/>
	</g>
	<g>
		<path class="st34" d="M367.4,425c-1.6,1.6-3.3,3.1-5,4.8v-1.4c0.1-7.4,1.3-13.6,2.7-13.6C366.3,414.7,367.2,419,367.4,425z"/>
	</g>
	
		<linearGradient id="SVGID_17_" gradientUnits="userSpaceOnUse" x1="118.7973" y1="323.6447" x2="313.0503" y2="323.6447" gradientTransform="matrix(1 0 0 1 0 60)">
		<stop  offset="0" style="stop-color:#5DADB3"/>
		<stop  offset="1" style="stop-color:#458085"/>
	</linearGradient>
	<path class="st35" d="M120.7,307.9c0,0-14.9,40.4,38.8,53s111.8-24.5,111.8-24.5l-10.6,121l25.4,2.9c0,0,29.5-136,26.7-148.3
		c-2.8-12.3-119.2,1.9-119.2,1.9S148.7,321.7,120.7,307.9z"/>
	<g>
		<g>
			
				<linearGradient id="SVGID_18_" gradientUnits="userSpaceOnUse" x1="118.8655" y1="275.5488" x2="267.0461" y2="275.5488" gradientTransform="matrix(1 0 0 1 0 60)">
				<stop  offset="0" style="stop-color:#41797D"/>
				<stop  offset="1" style="stop-color:#458085"/>
			</linearGradient>
			<path class="st36" d="M240,333.5c-7.2,2.2-13.7,6.5-20.4,10.1c-15.5,8.3-33.1,12.7-50.5,12.6c-12.1,0-25.3-2.8-32.9-12.6
				c-1.8-2.4-3.3-5.2-4.4-8c-3.3-7.9-4.8-16.5-4.5-25c-2.3-0.8-4.4-1.7-6.5-2.8c0,0-14.9,40.4,38.8,53c45.1,10.6,93.2-13.9,107.5-22
				C261.2,329.7,246.7,331.5,240,333.5z"/>
		</g>
	</g>
	<path class="st26" d="M315.7,377.1c-13,9.5-19.4,18.8-18.3,21.9c1.1,3.1,39.6-27.2,38.3-32.2C334.4,361.7,315.7,377.1,315.7,377.1z
		"/>
	<polygon class="st32" points="261.7,469.4 258,504.6 273.3,506.3 279.3,470.4 	"/>
	<path class="st33" d="M293.3,514.1c-1.5,0.1-3.1,0.1-4.6,0.2c-0.6,0-1.3,0.1-1.8,0.1c-1.2,0.1-2.5,0.1-3.6,0.1
		c-2.3,0.1-4.5,0.1-6.5,0.1c-22.3,0-22.8-0.9-22.8-0.9l4.4-12.6c0,0,10.6,3.2,16.7,0c0,0,55.6-2.2,59,3.6
		C338.1,511.6,321.1,512.9,293.3,514.1z"/>
	<g>
		<path class="st34" d="M283.2,514.4c-2.3,0.1-4.5,0.1-6.5,0.1c0.6-0.9,1.2-1.8,1.9-2.7c3.9-5.1,8-8.6,9.1-7.7
			C288.9,505,286.8,509.5,283.2,514.4z"/>
	</g>
	<g>
		<path class="st34" d="M293.3,514.1c-1.5,0.1-3.1,0.1-4.6,0.2c-0.6,0-1.3,0.1-1.8,0.1c4.4-5.7,8.9-9.7,10-8.9
			C297.7,506.2,296.2,509.7,293.3,514.1z"/>
	</g>
	
		<linearGradient id="SVGID_19_" gradientUnits="userSpaceOnUse" x1="271.2664" y1="149.4997" x2="314.1335" y2="149.4997" gradientTransform="matrix(1 0 0 1 0 60)">
		<stop  offset="0" style="stop-color:#70542B"/>
		<stop  offset="0.3634" style="stop-color:#654C26"/>
		<stop  offset="1" style="stop-color:#473619"/>
	</linearGradient>
	<path class="st37" d="M283.3,185.1l-11.9,43.6c-0.9,3.3,1.1,6.6,4.3,7.2l15.7,3.2c2.7,0.6,5.4-1.1,6.3-3.8l16.1-48
		c0.4-1.3,0.4-2.6,0-3.9l0,0c-0.8-2.4-3.1-3.9-5.5-3.8l-19.9,1.1C286,181,284,182.7,283.3,185.1z"/>
	
		<linearGradient id="SVGID_20_" gradientUnits="userSpaceOnUse" x1="277.4811" y1="144.5543" x2="305.9092" y2="144.5543" gradientTransform="matrix(1 0 0 1 0 60)">
		<stop  offset="0" style="stop-color:#0078AA"/>
		<stop  offset="0.2728" style="stop-color:#0B8DB5"/>
		<stop  offset="0.7374" style="stop-color:#1CABC6"/>
		<stop  offset="1" style="stop-color:#22B6CC"/>
	</linearGradient>
	<path class="st38" d="M303.5,183.5l-13.2,0.6c-1,0.1-1.8,0.7-2,1.6l-10.7,35.8c-0.4,1.4,0.5,2.9,2,3.1l12.5,1c1,0.1,2-0.6,2.3-1.6
		l11.4-37.3C306.3,185,305.1,183.4,303.5,183.5z"/>
	
		<linearGradient id="SVGID_21_" gradientUnits="userSpaceOnUse" x1="115.865" y1="206.5377" x2="213.0706" y2="206.5377" gradientTransform="matrix(1 0 0 1 0 60)">
		<stop  offset="0" style="stop-color:#009674"/>
		<stop  offset="0.2927" style="stop-color:#00A17D"/>
		<stop  offset="0.8106" style="stop-color:#00BF94"/>
		<stop  offset="1" style="stop-color:#00CC9E"/>
	</linearGradient>
	<path class="st39" d="M199.3,220.3c0,0,9.3,28.2,13.4,37.3c3.3,7.3-12.1,10.3-12.1,10.3l-5.2,21.3l2.3,25.5l-3.5,0.9
		c-9.6,7.7-60.4,8.4-78.1-9.7c0,0,6.8-84.4,64.8-93.6C180.6,212.3,189.9,220.6,199.3,220.3z"/>
	<g>
		
			<linearGradient id="SVGID_22_" gradientUnits="userSpaceOnUse" x1="115.7935" y1="206.4851" x2="188.3717" y2="206.4851" gradientTransform="matrix(1 0 0 1 0 60)">
			<stop  offset="0" style="stop-color:#006B53"/>
			<stop  offset="1" style="stop-color:#008A6A"/>
		</linearGradient>
		<path class="st40" d="M155.5,309.7c0.1-1.1,0.8-2.1,1.6-2.8c1.8-1.6,4.2-1.6,6.4-1.8c9.5-0.6,12.1-2.1,19.5-4.3
			c2.3-0.7,3.8-3,3.6-5.5l0,0c-0.1-1.3-0.8-2.6-1.7-3.5c-2.9-2.6-6.1-8.9-6.3-12.6c-0.2-4,2.8-7.4,5-10.7
			c6.9-10.7,5.7-38.6,0.5-53.6c-2.1-1.5-3.5-2.6-3.5-2.6c-58,9.3-64.8,93.6-64.8,93.6c11.6,11.8,37.2,15.7,56.3,14.8
			c-4.9-1.4-9.7-3.5-14-6.5C156.8,313.1,155.2,311.8,155.5,309.7z"/>
	</g>
	
		<linearGradient id="SVGID_23_" gradientUnits="userSpaceOnUse" x1="107.9513" y1="191.7189" x2="182.2565" y2="191.7189" gradientTransform="matrix(1 0 0 1 0 60)">
		<stop  offset="0" style="stop-color:#7E0058"/>
		<stop  offset="1" style="stop-color:#B80080"/>
	</linearGradient>
	<path class="st41" d="M175.3,207.1c0,0,18,35.5-4,70.1S108,289.1,108,289.1l5.6-15.5c0,0,28.8,15.8,45-7.1
		c16.2-22.9,3.8-55.9,3.8-55.9L175.3,207.1z"/>
	<polygon class="st33" points="106.7,266.8 117.3,272.3 108.3,295.6 102.4,294.9 95.9,277.8 	"/>
	<path class="st42" d="M103.7,279.1c0,1.3-1,2.3-2.2,2.3s-2.2-1-2.2-2.3s1-2.3,2.2-2.3C102.6,276.8,103.7,277.9,103.7,279.1z"/>
	<g>
		<path class="st29" d="M146,264.3c0,0,3.4,4.1,5.4,6c42.3,39.1,93.8,39.1,93.8,39.1s30.3-37.7,34-58.7c0,0,21.4,1.6,22.4-2.9
			c1-3.9-2.2-4.8-2.2-4.8s5-3.9,4.6-7.7c-0.3-3.8-4.4-3.9-4.4-3.9s7.4-5.5,7.2-9.7c-0.3-4.2-22.4,3.9-22.4,3.9s7.2-8.4,7.4-12.9
			c0.3-4.5-16.4,2.9-21.1,14.2C266.2,238,268,250,268,250s-16.2,23.6-31.6,35.5c0,0-36-1.6-70.2-39.7L146,264.3z"/>
	</g>
	
		<linearGradient id="SVGID_24_" gradientUnits="userSpaceOnUse" x1="134.9961" y1="184.1616" x2="175.3944" y2="184.1616" gradientTransform="matrix(1 0 0 1 0 60)">
		<stop  offset="0" style="stop-color:#009674"/>
		<stop  offset="0.2927" style="stop-color:#00A17D"/>
		<stop  offset="0.8106" style="stop-color:#00BF94"/>
		<stop  offset="1" style="stop-color:#00CC9E"/>
	</linearGradient>
	<path class="st43" d="M164.5,216.2c0,0-18.9-2.6-26,12.6s-2.2,32.3,6.2,43.6c0,0,20.2-11,30.8-23.9l-9.1-21.1L164.5,216.2z"/>
	<g>
		
			<linearGradient id="SVGID_25_" gradientUnits="userSpaceOnUse" x1="134.9961" y1="184.0906" x2="164.8244" y2="184.0906" gradientTransform="matrix(1 0 0 1 0 60)">
			<stop  offset="0" style="stop-color:#006B53"/>
			<stop  offset="1" style="stop-color:#008A6A"/>
		</linearGradient>
		<path class="st44" d="M152.9,255.2c-5.8-9.6-4.7-23.3,2.8-31.6c2.4-2.6,5.7-4.8,9.1-5.2l-0.3-2.3c0,0-18.9-2.6-26,12.6
			s-2.2,32.3,6.2,43.6c0,0,7.1-3.9,15.1-9.7C157,260.6,154.7,258.2,152.9,255.2z"/>
	</g>
	<g>
		
			<linearGradient id="SVGID_26_" gradientUnits="userSpaceOnUse" x1="114.18" y1="281.9542" x2="163.2313" y2="281.9542" gradientTransform="matrix(1 0 0 1 0 60)">
			<stop  offset="0" style="stop-color:#D96DB8"/>
			<stop  offset="1" style="stop-color:#8C1B69"/>
		</linearGradient>
		<path class="st45" d="M157.1,320.3c0,0,4.2,28.8,6.1,28.3c1.6-1.9-39.8,15-39.8,15c-3.1,1.1-11.8-38.4-8.5-38.9
			C129,323.3,143.2,323.1,157.1,320.3z"/>
		<g>
			<path class="st33" d="M148.6,347.1c0.7-0.2,1.4,0.1,1.5,0.9c0,0.1,0.1,0.3,0.1,0.4c0.5-0.1,1-0.3,1.4-0.4
				c0.1,0.1,0.1,0.4,0.1,0.5c-1.3,0.4-2.6,0.9-3.9,1.3c-0.1-0.3-0.1-0.6-0.2-0.9C147.4,347.9,148,347.2,148.6,347.1z M148.7,347.5
				c-0.4,0.1-0.7,0.6-0.5,1c0,0.1,0.1,0.3,0.1,0.4c0.5-0.1,1-0.3,1.4-0.5c0-0.1-0.1-0.3-0.1-0.4
				C149.5,347.6,149.1,347.4,148.7,347.5z"/>
			<path class="st33" d="M149.9,344.1c0.1,0.5,0.2,1.1,0.3,1.6c0.3,0,0.6,0.1,0.9,0.1c0.1,0.2,0.1,0.4,0.1,0.6
				c-1.4-0.1-2.9-0.3-4.4-0.4v-0.1c1.2-1,2.4-1.9,3.6-2.8c0.1,0.2,0.1,0.4,0.1,0.6C150.4,343.8,150.2,343.9,149.9,344.1z
				 M149.4,344.5c-0.5,0.4-1,0.7-1.4,1.1c0.5,0.1,1.1,0.1,1.6,0.1C149.6,345.3,149.5,344.9,149.4,344.5z"/>
			<path class="st33" d="M149.8,343c-0.1-0.1-0.3-0.1-0.5-0.3c0.3-0.3,0.4-0.6,0.3-1s-0.4-0.6-0.7-0.4c-1,0.3-0.3,1.9-1.6,2.3
				c-0.5,0.1-1.1-0.1-1.3-0.8c-0.1-0.5,0.1-0.9,0.3-1.2c0.1,0.1,0.3,0.1,0.4,0.2c-0.2,0.2-0.3,0.6-0.3,0.9c0.1,0.4,0.3,0.5,0.6,0.4
				c0.9-0.2,0.3-1.9,1.6-2.3c0.6-0.1,1.2,0.1,1.3,0.9C150.4,342.1,150.2,342.7,149.8,343z"/>
			<path class="st33" d="M149.2,340.2c-0.1-0.1-0.3-0.2-0.5-0.3c0.3-0.3,0.4-0.6,0.3-1s-0.4-0.6-0.7-0.5c-1,0.2-0.3,1.9-1.6,2.2
				c-0.5,0.1-1.2-0.2-1.3-0.9c-0.1-0.5,0.1-0.9,0.3-1.2c0.1,0.1,0.3,0.1,0.4,0.2c-0.2,0.2-0.3,0.6-0.3,0.9c0.1,0.4,0.3,0.5,0.6,0.4
				c0.9-0.2,0.3-1.9,1.6-2.2c0.6-0.1,1.2,0.1,1.4,0.9C149.8,339.4,149.5,339.9,149.2,340.2z"/>
			<path class="st33" d="M146,335.6c0.7-0.1,1.4,0.1,1.6,1c0,0.1,0.1,0.3,0.1,0.4c0.5-0.1,1-0.2,1.4-0.4c0.1,0.1,0.1,0.4,0.1,0.5
				c-1.4,0.3-2.7,0.6-4,0.9c-0.1-0.3-0.1-0.6-0.2-0.9C144.8,336.3,145.4,335.7,146,335.6z M146.1,336.1c-0.4,0.1-0.7,0.5-0.5,0.9
				c0,0.1,0.1,0.3,0.1,0.4c0.5-0.1,1-0.2,1.5-0.4c0-0.1-0.1-0.3-0.1-0.4C147,336.2,146.6,336,146.1,336.1z"/>
			<path class="st33" d="M146.7,335.1c-1.1,0.2-2.3-0.3-2.5-1.5c-0.3-1.1,0.5-2.1,1.7-2.3c1.1-0.2,2.3,0.4,2.5,1.5
				C148.6,333.9,147.8,334.8,146.7,335.1z M146,331.7c-0.8,0.1-1.4,0.9-1.2,1.7c0.2,0.9,1,1.3,1.8,1.1s1.4-0.9,1.2-1.7
				C147.6,332,146.8,331.6,146,331.7z"/>
			<path class="st33" d="M146,329.4c0,0.1,0.1,0.3,0.1,0.5c0.5-0.1,1-0.2,1.6-0.3c0.1,0.1,0.1,0.4,0.1,0.5c-1.4,0.3-2.7,0.5-4,0.8
				c-0.1-0.4-0.1-0.7-0.2-1.1c-0.1-0.8,0.3-1.3,1-1.4c0.5-0.1,1,0.1,1.3,0.6c0.5-0.4,1-0.8,1.4-1.2c0.1,0.2,0.1,0.4,0.1,0.6
				C146.9,328.7,146.4,329,146,329.4z M145.5,330c0-0.1-0.1-0.4-0.1-0.5c-0.1-0.4-0.5-0.6-0.9-0.6c-0.4,0.1-0.7,0.4-0.5,0.9
				c0,0.1,0.1,0.4,0.1,0.5C144.6,330.2,145,330,145.5,330z"/>
			<path class="st33" d="M143.2,325.8c0.1,0.3,0.1,0.6,0.2,0.9c1.2-0.1,2.3-0.4,3.5-0.6c0.1,0.1,0.1,0.4,0.1,0.5
				c-1.2,0.2-2.3,0.4-3.5,0.6c0.1,0.4,0.1,0.6,0.2,1c-0.2,0-0.3,0.1-0.5,0.1c-0.1-0.8-0.3-1.6-0.5-2.4
				C142.9,325.8,143,325.8,143.2,325.8z"/>
		</g>
		<g>
			<path class="st33" d="M155.7,346.8c-1.1,0.4-2.2-0.1-2.5-1.3c-0.1-0.4-0.1-0.6,0-0.9c0.2-0.1,0.4-0.1,0.6-0.1
				c-0.1,0.3-0.2,0.6-0.1,0.9c0.2,0.8,1,1.1,1.8,0.9c0.8-0.2,1.4-1,1.2-1.8c-0.1-0.4-0.3-0.6-0.5-0.8c0.2-0.1,0.4-0.1,0.6-0.1
				c0.2,0.2,0.3,0.4,0.4,0.8C157.5,345.6,156.8,346.6,155.7,346.8z"/>
			<path class="st33" d="M155,343.8c-1.1,0.3-2.2-0.1-2.5-1.3c-0.3-1.1,0.5-2.1,1.6-2.4c1.1-0.3,2.2,0.2,2.5,1.3
				C156.9,342.5,156.1,343.5,155,343.8z M154.3,340.6c-0.8,0.2-1.4,0.9-1.2,1.8c0.2,0.8,1,1.1,1.8,0.9c0.8-0.2,1.4-0.9,1.2-1.8
				C156,340.7,155.1,340.4,154.3,340.6z"/>
			<path class="st33" d="M154.7,339.3c-0.9,0.2-1.8,0.4-2.7,0.6c-0.1-0.1-0.1-0.4-0.1-0.5c0.9-0.2,1.7-0.4,2.6-0.6
				c0.6-0.1,0.9-0.6,0.8-1c-0.1-0.4-0.5-0.6-1.1-0.5c-0.9,0.2-1.7,0.4-2.6,0.6c-0.1-0.1-0.1-0.4-0.1-0.5c0.9-0.2,1.8-0.4,2.7-0.6
				c0.8-0.2,1.5,0.1,1.6,0.9C156,338.5,155.6,339.1,154.7,339.3z"/>
			<path class="st33" d="M150.7,333.8c1.4-0.3,2.7-0.6,4.1-0.9v0.1c-0.8,1-1.5,2-2.3,3c0.9-0.2,1.8-0.4,2.7-0.6
				c0.1,0.1,0.1,0.3,0.1,0.5c-1.4,0.3-2.7,0.6-4,1v-0.1c0.8-1,1.6-2.1,2.3-3.1c-1,0.2-1.8,0.4-2.8,0.6
				C150.8,334.1,150.8,334,150.7,333.8z"/>
			<path class="st33" d="M150.6,330.9c0.1,0.3,0.1,0.6,0.2,0.9c1.2-0.2,2.3-0.5,3.5-0.7c0.1,0.1,0.1,0.4,0.1,0.5
				c-1.2,0.3-2.3,0.5-3.5,0.8c0.1,0.3,0.1,0.6,0.2,0.9c-0.2,0.1-0.3,0.1-0.5,0.1c-0.1-0.8-0.3-1.6-0.5-2.3
				C150.3,330.9,150.5,330.9,150.6,330.9z"/>
			<path class="st33" d="M152.3,329.1c0,0.1,0.1,0.3,0.1,0.4c0.5-0.1,1-0.2,1.6-0.3c0.1,0.1,0.1,0.4,0.1,0.5c-1.4,0.3-2.7,0.6-4,0.9
				c-0.1-0.4-0.1-0.6-0.2-1c-0.1-0.7,0.3-1.3,1-1.4c0.5-0.1,1,0.1,1.3,0.5c0.5-0.4,1-0.8,1.4-1.2c0.1,0.2,0.1,0.4,0.1,0.6
				C153.2,328.3,152.8,328.7,152.3,329.1z M151.9,329.7c0-0.1-0.1-0.3-0.1-0.5c-0.1-0.4-0.4-0.6-0.9-0.6c-0.4,0.1-0.6,0.4-0.5,0.9
				c0,0.1,0.1,0.3,0.1,0.5C150.9,329.8,151.4,329.7,151.9,329.7z"/>
			<path class="st33" d="M151.8,326.1c0.5-0.1,1-0.2,1.4-0.3c0.1,0.1,0.1,0.4,0.1,0.5c-0.5,0.1-1,0.2-1.4,0.3
				c-0.8,0.6-1.6,1.1-2.3,1.7c-0.1-0.2-0.1-0.4-0.1-0.6c0.6-0.4,1.2-0.9,1.8-1.3c-0.8-0.2-1.5-0.4-2.3-0.6c-0.1-0.2-0.1-0.4-0.1-0.6
				C149.9,325.6,150.8,325.8,151.8,326.1z"/>
		</g>
		<path class="st33" d="M124.8,342.9c1.1,5,5.9,7.8,10.2,6.3c4.4-1.5,7.1-6,6.1-10.2c-1-4.2-5.3-7.1-9.8-6.5
			C126.8,333.1,123.7,337.8,124.8,342.9z M131.6,333.7c0.2,0,0.7,0.6,1.2,1.6c-0.3,0-0.5,0.1-0.9,0.1c-0.3,0.1-0.5,0.1-0.9,0.2
			C131.1,334.4,131.4,333.8,131.6,333.7C131.5,333.7,131.6,333.7,131.6,333.7z M140,339.2L140,339.2c0,0.2-0.5,0.6-1.5,1.2
			c-0.1-0.3-0.1-0.6-0.1-0.9c-0.1-0.3-0.1-0.6-0.2-0.9C139.3,338.8,139.9,339,140,339.2z M137.2,339.9c0.1,0.4,0.1,0.7,0.2,1.1
			c-0.4,0.2-0.9,0.4-1.4,0.6c-0.1-0.5-0.1-0.9-0.3-1.3c-0.1-0.4-0.2-0.9-0.3-1.3c0.5-0.1,1.1-0.1,1.6-0.1
			C137,339.2,137.1,339.5,137.2,339.9z M134.5,340.5c0.1,0.5,0.2,1,0.3,1.4c-0.4,0.1-0.9,0.3-1.4,0.4c-0.5,0.1-1,0.2-1.4,0.3
			c-0.1-0.4-0.3-0.9-0.3-1.4c-0.1-0.5-0.2-1-0.3-1.5c0.5-0.1,0.9-0.2,1.4-0.4c0.5-0.1,1-0.2,1.4-0.3
			C134.3,339.5,134.4,340,134.5,340.5z M134.7,348L134.7,348c-0.2,0-0.7-0.5-1.3-1.5c0.3-0.1,0.5-0.1,0.9-0.2
			c0.3-0.1,0.5-0.2,0.8-0.3C135.1,347.2,134.9,347.9,134.7,348z M134,345.1c-0.4,0.1-0.8,0.1-1.2,0.2c-0.2-0.4-0.3-0.9-0.5-1.5
			c0.5-0.1,1-0.2,1.3-0.3c0.4-0.1,0.8-0.2,1.3-0.4c0.1,0.6,0.1,1.1,0.1,1.6C134.8,344.9,134.4,345,134,345.1z M126,342.6L126,342.6
			c0-0.2,0.5-0.8,1.6-1.3c0.1,0.3,0.1,0.6,0.1,0.9c0.1,0.3,0.2,0.6,0.3,0.9C126.7,343,126.1,342.8,126,342.6z M128.9,341.9
			c-0.1-0.4-0.1-0.8-0.2-1.2c0.4-0.2,1-0.4,1.5-0.6c0.1,0.5,0.1,1,0.3,1.3c0.1,0.4,0.2,0.9,0.3,1.3c-0.5,0.1-1.1,0.1-1.6,0.1
			C129.1,342.7,129,342.3,128.9,341.9z M131.1,338.5c-0.1-0.6-0.1-1.1-0.1-1.6c0.3-0.1,0.8-0.2,1.1-0.3c0.4-0.1,0.8-0.1,1.2-0.1
			c0.2,0.4,0.3,0.9,0.5,1.5c-0.5,0.1-1,0.1-1.4,0.2C132.1,338.3,131.6,338.4,131.1,338.5z M129.8,336.1c-0.3,0.1-0.5,0.2-0.8,0.3
			c0.2-0.6,0.5-1.1,0.9-1.6C129.9,335.1,129.8,335.6,129.8,336.1z M129.8,337.4c0,0.5,0.1,1,0.1,1.5c-0.5,0.1-0.9,0.3-1.4,0.5
			c0-0.5,0-0.9,0.1-1.3C129.1,337.8,129.4,337.5,129.8,337.4z M127.4,339.9c-0.4,0.2-0.8,0.4-1.1,0.6c0.3-0.5,0.6-1.1,1.1-1.5
			C127.4,339.2,127.4,339.6,127.4,339.9z M127.1,344.3c0.4,0.1,0.8,0.1,1.3,0.1c0.1,0.3,0.2,0.6,0.3,0.8
			C128.1,344.9,127.5,344.6,127.1,344.3z M129.7,344.2c0.5-0.1,1-0.1,1.4-0.2c0.1,0.5,0.3,0.9,0.5,1.4c-0.5,0-0.9,0-1.3,0
			C130.1,345.1,129.9,344.6,129.7,344.2z M132.2,346.7c0.2,0.4,0.4,0.8,0.6,1.1c-0.5-0.2-1-0.6-1.4-1.1
			C131.6,346.7,131.9,346.7,132.2,346.7z M136.3,345.5c0.3-0.1,0.5-0.2,0.8-0.4c-0.2,0.6-0.5,1.2-0.8,1.6
			C136.3,346.3,136.3,345.9,136.3,345.5z M136.3,344.1c-0.1-0.5-0.1-0.9-0.1-1.4c0.5-0.1,0.9-0.4,1.4-0.5c0,0.4,0,0.9-0.1,1.3
			C137,343.7,136.7,344,136.3,344.1z M138.6,341.7c0.4-0.2,0.8-0.4,1.1-0.6c-0.3,0.5-0.6,1-1.1,1.4
			C138.6,342.2,138.6,341.9,138.6,341.7z M139,337.7c-0.4-0.1-0.8-0.1-1.2-0.1c-0.1-0.3-0.2-0.5-0.3-0.7
			C138,337.1,138.5,337.4,139,337.7z M136.5,337.7c-0.5,0-1,0.1-1.4,0.1c-0.1-0.4-0.3-0.9-0.5-1.3c0.5,0,0.9,0.1,1.3,0.1
			C136,336.9,136.3,337.3,136.5,337.7z M134.1,335.3c-0.2-0.4-0.3-0.8-0.5-1.1c0.5,0.3,1,0.6,1.4,1.1
			C134.6,335.3,134.3,335.3,134.1,335.3z M128.1,335.5c-0.2,0.5-0.4,1.1-0.5,1.7c-0.5,0.4-1,0.7-1.3,1.1
			C126.6,337.3,127.2,336.3,128.1,335.5z M128,346.2c0.5,0.2,1.1,0.4,1.6,0.4c0.3,0.5,0.8,0.9,1.2,1.3
			C129.8,347.6,128.8,347.1,128,346.2z M138,345.8c0.2-0.5,0.3-1.1,0.4-1.6c0.5-0.4,0.9-0.8,1.2-1.1C139.4,344,138.8,345,138,345.8z
			 M138.2,335.9c-0.5-0.2-1-0.4-1.6-0.5c-0.3-0.5-0.7-0.9-1.1-1.3C136.5,334.6,137.4,335.1,138.2,335.9z"/>
		<path class="st33" d="M119.1,327.7c0.9-0.1,1.7,0.6,1.8,1.6c0.1,1-0.5,1.9-1.4,2c-0.9,0.1-1.7-0.6-1.8-1.6
			C117.6,328.7,118.2,327.8,119.1,327.7z"/>
	</g>
	<g>
		<path class="st46" d="M162.2,355c-2.3-15.7-12.1-29.9-25.6-37.2l29.7,2.5l3.8,29.4L162.2,355z"/>
	</g>
	
		<linearGradient id="SVGID_27_" gradientUnits="userSpaceOnUse" x1="119.3088" y1="83.658" x2="242.1771" y2="83.658" gradientTransform="matrix(1 0 0 1 0 60)">
		<stop  offset="0" style="stop-color:#6446BD"/>
		<stop  offset="1" style="stop-color:#231C47"/>
	</linearGradient>
	<path class="st47" d="M177.9,150.5c2.5,1.6,5.7,0.3,6.3-2.6c3.1-12.6,10.5-34.8,24.5-38.7c19.8-5.5,28.2,2.3,32.9-7.4
		c4.6-9.7-28.8-47.3-71-24c-41.5,22.9-68.1,77.3-39.5,123.1c0.8,1.3,2.4,2.1,3.9,2c3.6-0.4,30,10.7,40.2,14c3.8,1.2,7-3.1,4.8-6.5
		c-8.3-13.5-17.7-35.9-8.5-57.8c1-2.4,3.8-3.4,6-2.1C177.8,150.5,177.9,150.5,177.9,150.5z"/>
	<g>
		<g>
			<path class="st48" d="M176.4,200.7"/>
		</g>
	</g>
	<g>
		<g>
			<path class="st48" d="M186,121.1"/>
		</g>
	</g>
	
		<linearGradient id="SVGID_28_" gradientUnits="userSpaceOnUse" x1="260.8405" y1="276.5161" x2="334.08" y2="276.5161" gradientTransform="matrix(1 0 0 1 0 60)">
		<stop  offset="0" style="stop-color:#5DADB3"/>
		<stop  offset="1" style="stop-color:#458085"/>
	</linearGradient>
	<path class="st49" d="M282.9,273.8c5.1,0.6,51.1,105.9,51.1,105.9l-24.2,19.6c0,0-41.7-56.6-49-91.1L282.9,273.8z"/>
	
		<linearGradient id="SVGID_29_" gradientUnits="userSpaceOnUse" x1="297.4603" y1="333.8067" x2="347.8432" y2="333.8067" gradientTransform="matrix(1 0 0 1 0 60)">
		<stop  offset="0" style="stop-color:#70D1D9"/>
		<stop  offset="0.3534" style="stop-color:#60B4BA"/>
		<stop  offset="0.7664" style="stop-color:#51979C"/>
		<stop  offset="1" style="stop-color:#4B8C91"/>
	</linearGradient>
	<path class="st50" d="M312.8,420.8L297.5,399c0,0,14.5-10.1,23.5-18.2c8.9-8.2,14.8-14,14.8-14s7.6,17.4,11.6,20.7
		C351.3,390.9,331.9,413.5,312.8,420.8z"/>
	
		<linearGradient id="SVGID_30_" gradientUnits="userSpaceOnUse" x1="254.6349" y1="404.1176" x2="298.8241" y2="404.1176" gradientTransform="matrix(1 0 0 1 0 60)">
		<stop  offset="0" style="stop-color:#70D1D9"/>
		<stop  offset="0.3534" style="stop-color:#60B4BA"/>
		<stop  offset="0.7664" style="stop-color:#51979C"/>
		<stop  offset="1" style="stop-color:#4B8C91"/>
	</linearGradient>
	<path class="st51" d="M254.6,475.3l0.7-23.9c0,0,15.4,1.1,25.8,0.5c10.4-0.6,17.7-1.4,17.7-1.4s-3.8,16.4-2.7,21
		C297.2,476,271.8,480.9,254.6,475.3z"/>
	<g>
		<g>
			<g>
				<g>
					<path class="st26" d="M162.2,355c-0.2,0-0.5-2.6-1.8-6.7c-0.1-0.5-0.3-1.1-0.5-1.6c-0.2-0.6-0.4-1.1-0.6-1.7
						c-0.4-1.2-1-2.4-1.6-3.7c-1.2-2.5-2.7-5.2-4.5-7.9c-1.8-2.6-3.8-5-5.7-7c-1-1-1.9-1.9-2.9-2.7c-0.5-0.4-0.9-0.8-1.4-1.1
						c-0.5-0.4-0.9-0.7-1.3-1c-3.3-2.6-5.6-3.8-5.5-4c0-0.1,0.6,0.2,1.6,0.8c0.3,0.1,0.5,0.3,0.9,0.4c0.3,0.1,0.6,0.4,1,0.6
						c0.7,0.4,1.5,0.9,2.4,1.6c0.4,0.3,0.9,0.6,1.4,1s0.9,0.8,1.4,1.1c1,0.8,1.9,1.7,2.9,2.7c2,2,4,4.3,5.9,7s3.3,5.5,4.5,8
						c0.5,1.3,1.1,2.6,1.5,3.8c0.2,0.6,0.4,1.1,0.6,1.7c0.1,0.6,0.3,1.1,0.5,1.6c0.3,1.1,0.5,2,0.7,2.8c0.1,0.4,0.2,0.8,0.2,1.1
						c0.1,0.4,0.1,0.7,0.1,1C162.2,354.4,162.3,355,162.2,355z"/>
				</g>
			</g>
		</g>
	</g>
	<g>
		
			<linearGradient id="SVGID_31_" gradientUnits="userSpaceOnUse" x1="164.7368" y1="54.0828" x2="263.6984" y2="54.0828" gradientTransform="matrix(1 0 0 1 0 60)">
			<stop  offset="0" style="stop-color:#DA6CA0"/>
			<stop  offset="1" style="stop-color:#A15076"/>
		</linearGradient>
		<path class="st52" d="M262.3,92.3l-28.4-1.3c0-0.4,0-0.7-0.1-1.2c-0.2-0.8-0.8-1.8-1.7-2.6c-1-0.7-2.3-1-3.5-0.9
			c-2.5,0.1-4.3,1.7-5,3c-0.1,0.1-0.1,0.2-0.1,0.3L191.5,88c0,0,0.1,0.4,0.3,0.9c-2.7,4-21.9,33.8-23.8,36.9c-2,3.3-3.4,7-3.2,10.3
			c0.1,1.6,0.7,3.2,1.6,4.3c1,1,2,1.4,3,1.5c1.9,0.1,2.6-0.9,2.5-1.1c-0.1-0.2-1,0.2-2.2-0.3c-1.3-0.4-2.7-1.9-2.5-4.5
			c0.1-5.1,5.6-11.4,10.2-18.5c7.4-10.8,13.7-19.5,16.4-23.1c3.7,8.4,11.9,21.9,26.5,19.7c18.1-2.6,8.6-19.2,5.8-23.6
			c0.8-0.4,1.8-0.8,2.8-0.9c1.4-0.1,2.1,0.2,2.8,0.9c0.1,0.1,0.1,0.1,0.1,0.1c0.6,1.6,8.3,22.2,22.3,20.7
			C268.8,110.1,262.3,92.3,262.3,92.3z M228.1,107c-1,2.5-3.8,4-8.2,4.7c-0.9,0.1-1.8,0.2-2.7,0.2c-12.7,0-19.7-14.3-22.3-21.1
			l29,1.4C226.1,95.5,229.9,102.6,228.1,107z M260,105.8c-1.2,1.9-3.2,3.1-6.2,3.3c-0.4,0.1-0.8,0.1-1.2,0.1c-8.5,0-14.5-10-17-15.5
			l24.9,1.2C261.2,97.7,261.9,102.6,260,105.8z"/>
		<path class="st53" d="M252.6,109.2c0.4,0,0.8,0,1.2-0.1c3-0.4,5-1.4,6.2-3.3c1.8-3.1,1.2-8.1,0.4-10.9l-24.9-1.2
			C238.2,99.2,244.1,109.2,252.6,109.2z"/>
		<path class="st53" d="M217.3,111.9c0.9,0,1.8-0.1,2.7-0.2c4.5-0.6,7.2-2.2,8.2-4.7c1.8-4.4-2-11.6-4.1-14.8l-29-1.4
			C197.6,97.6,204.6,111.9,217.3,111.9z"/>
	</g>
</g>
<image style="overflow:visible;" width="53" height="71" xlink:href="slide1_balloon3.png"  transform="matrix(1 0 0 1 45 130)">
</image>
<image style="overflow:visible;" width="77" height="105" xlink:href="slide1_balloon1.png"  transform="matrix(1 0 0 1 481 78)">
</image>
<image style="overflow:visible;" width="45" height="61" xlink:href="slide1_balloon2.png"  transform="matrix(1 0 0 1 638 160)">
</image>
</svg>
